<?xml version="1.0" encoding="UTF-8" standalone="no"?>
<!DOCTYPE svg PUBLIC "-//W3C//DTD SVG 1.1//EN" "http://www.w3.org/Graphics/SVG/1.1/DTD/svg11.dtd">
<svg width="100%" height="100%" viewBox="0 0 168 250" version="1.1" xmlns="http://www.w3.org/2000/svg" xmlns:xlink="http://www.w3.org/1999/xlink" xml:space="preserve" xmlns:serif="http://www.serif.com/" style="fill-rule:evenodd;clip-rule:evenodd;stroke-linejoin:round;stroke-miterlimit:1.41421;">
    <rect x="-5.7" y="-5.7" width="178.6" height="260.8" style="fill:rgb(245,230,181);"/>
    <circle cx="20.8" cy="39.2" r="2.6" style="fill:rgb(186,48,51);"/>
    <g transform="matrix(1,0,0,1,13.2251,28.6087)">
        <path d="M0.945,-0.984L2.703,-1.203L2.703,-9.727L0.914,-9.695L0.914,-10.656L4.242,-11.375L4.242,-1.203L5.992,-0.984L5.992,0L0.945,0L0.945,-0.984Z" style="fill-rule:nonzero;"/>
        <path d="M9.43,-6.398L10.773,-6.398C11.456,-6.398 11.939,-6.569 12.223,-6.91C12.507,-7.251 12.648,-7.727 12.648,-8.336C12.648,-8.987 12.487,-9.482 12.164,-9.82C11.841,-10.159 11.365,-10.328 10.734,-10.328C10.135,-10.328 9.655,-10.152 9.293,-9.801C8.931,-9.449 8.75,-8.982 8.75,-8.398L7.273,-8.398L7.258,-8.445C7.232,-9.305 7.543,-10.035 8.191,-10.637C8.84,-11.238 9.688,-11.539 10.734,-11.539C11.786,-11.539 12.625,-11.259 13.25,-10.699C13.875,-10.139 14.188,-9.341 14.188,-8.305C14.188,-7.836 14.046,-7.368 13.762,-6.902C13.478,-6.436 13.052,-6.081 12.484,-5.836C13.167,-5.612 13.65,-5.26 13.934,-4.781C14.217,-4.302 14.359,-3.766 14.359,-3.172C14.359,-2.135 14.02,-1.32 13.34,-0.727C12.66,-0.133 11.792,0.164 10.734,0.164C9.693,0.164 8.833,-0.116 8.156,-0.676C7.479,-1.236 7.154,-1.995 7.18,-2.953L7.203,-3L8.672,-3C8.672,-2.401 8.855,-1.924 9.223,-1.57C9.59,-1.216 10.094,-1.039 10.734,-1.039C11.385,-1.039 11.896,-1.216 12.266,-1.57C12.635,-1.924 12.82,-2.448 12.82,-3.141C12.82,-3.844 12.656,-4.362 12.328,-4.695C12,-5.029 11.482,-5.195 10.773,-5.195L9.43,-5.195L9.43,-6.398Z" style="fill-rule:nonzero;"/>
    </g>
    <circle cx="146.4" cy="210.3" r="2.6" style="fill:rgb(186,48,51);"/>
    <g transform="matrix(-1,0,0,-1,154.033,220.843)">
        <path d="M0.945,-0.984L2.703,-1.203L2.703,-9.727L0.914,-9.695L0.914,-10.656L4.242,-11.375L4.242,-1.203L5.992,-0.984L5.992,0L0.945,0L0.945,-0.984Z" style="fill-rule:nonzero;"/>
        <path d="M9.43,-6.398L10.773,-6.398C11.456,-6.398 11.939,-6.569 12.223,-6.91C12.507,-7.251 12.648,-7.727 12.648,-8.336C12.648,-8.987 12.487,-9.482 12.164,-9.82C11.841,-10.159 11.365,-10.328 10.734,-10.328C10.135,-10.328 9.655,-10.152 9.293,-9.801C8.931,-9.449 8.75,-8.982 8.75,-8.398L7.273,-8.398L7.258,-8.445C7.232,-9.305 7.543,-10.035 8.191,-10.637C8.84,-11.238 9.688,-11.539 10.734,-11.539C11.786,-11.539 12.625,-11.259 13.25,-10.699C13.875,-10.139 14.188,-9.341 14.188,-8.305C14.188,-7.836 14.046,-7.368 13.762,-6.902C13.478,-6.436 13.052,-6.081 12.484,-5.836C13.167,-5.612 13.65,-5.26 13.934,-4.781C14.217,-4.302 14.359,-3.766 14.359,-3.172C14.359,-2.135 14.02,-1.32 13.34,-0.727C12.66,-0.133 11.792,0.164 10.734,0.164C9.693,0.164 8.833,-0.116 8.156,-0.676C7.479,-1.236 7.154,-1.995 7.18,-2.953L7.203,-3L8.672,-3C8.672,-2.401 8.855,-1.924 9.223,-1.57C9.59,-1.216 10.094,-1.039 10.734,-1.039C11.385,-1.039 11.896,-1.216 12.266,-1.57C12.635,-1.924 12.82,-2.448 12.82,-3.141C12.82,-3.844 12.656,-4.362 12.328,-4.695C12,-5.029 11.482,-5.195 10.773,-5.195L9.43,-5.195L9.43,-6.398Z" style="fill-rule:nonzero;"/>
    </g>
    <path d="M98.4,186.9C98,176.9 91.7,172.1 86.1,167.9C81.1,164.1 76.8,160.9 76.5,154.1C76.2,147.3 79.4,143.3 84,139.2C89.2,134.6 94.4,130.7 94,120.7C93.9,118.8 94,116.5 92.2,116.5C90.3,116.6 90.3,118.7 90.4,120.5C90.7,127.3 85.1,130.3 80.4,134.5C75.2,139.1 69.2,144.4 69.6,154.4C70,164.4 76.3,169.2 81.9,173.4C82.8,174.1 83.6,174.7 84.4,175.3C84.4,175.3 93.3,183.4 88.4,192.7C86.9,195.6 81.8,198.6 80.8,199.5C75.6,204.1 82.9,210.9 87.6,206.8C92.8,202.2 98.8,196.9 98.4,186.9Z" style="fill:rgb(217,200,193);fill-rule:nonzero;"/>
    <g transform="matrix(1,0,0,1,29.7445,170.332)">
        <path d="M6.064,-3.032L22.517,-3.032L22.517,-78.95L3.538,-74.683L3.538,-77.49L25.549,-82.207L25.549,-3.032L42.002,-3.032L42.002,0L6.064,0L6.064,-3.032Z" style="fill-rule:nonzero;"/>
        <path d="M67.607,-43.293L73.84,-43.293C80.691,-43.293 86.082,-44.997 90.012,-48.403C93.943,-51.81 95.908,-56.003 95.908,-60.981C95.908,-66.484 94.214,-71.014 90.826,-74.57C87.439,-78.127 82.45,-79.905 75.862,-79.905C69.797,-79.905 64.762,-78.127 60.757,-74.57C56.751,-71.014 54.749,-66.278 54.749,-60.364L52.166,-60.364L52.053,-60.701C51.866,-67.327 54.084,-72.689 58.707,-76.788C63.33,-80.887 69.049,-82.937 75.862,-82.937C82.9,-82.937 88.505,-80.944 92.679,-76.957C96.853,-72.97 98.94,-67.57 98.94,-60.757C98.94,-56.452 97.583,-52.596 94.869,-49.189C92.155,-45.783 88.496,-43.331 83.892,-41.833C89.207,-40.523 93.344,-38.146 96.301,-34.702C99.259,-31.258 100.737,-26.916 100.737,-21.675C100.737,-14.562 98.472,-8.975 93.943,-4.913C89.413,-0.852 83.555,1.179 76.367,1.179C69.442,1.179 63.321,-0.87 58.005,-4.969C52.69,-9.069 50.125,-14.88 50.313,-22.405L50.425,-22.742L53.008,-22.742C53.008,-16.677 55.226,-11.68 59.662,-7.749C64.098,-3.818 69.666,-1.853 76.367,-1.853C83.105,-1.853 88.346,-3.584 92.09,-7.047C95.833,-10.51 97.705,-15.311 97.705,-21.45C97.705,-27.814 95.562,-32.522 91.276,-35.573C86.989,-38.623 81.178,-40.149 73.84,-40.149L67.607,-40.149L67.607,-43.293Z" style="fill-rule:nonzero;"/>
    </g>
    <path d="M121.8,223.7C121.8,202.9 105,185.9 84.1,185.9C63.3,185.9 46.3,202.7 46.3,223.6C46.3,249.2 72.2,277.8 84,277.8C95.8,277.8 121.8,247.3 121.8,223.7Z" style="fill:rgb(217,200,193);fill-rule:nonzero;"/>
    <g>
        <path d="M103.9,75.6L62.7,75.6L57.1,-27.6L109.4,-27.6L103.9,75.6Z" style="fill:rgb(209,140,82);fill-rule:nonzero;"/>
        <g>
            <circle cx="63.9" cy="77.5" r="11.6" style="fill:rgb(209,140,82);"/>
            <circle cx="83.6" cy="77.5" r="11.6" style="fill:rgb(209,140,82);"/>
            <circle cx="102.6" cy="77.5" r="11.6" style="fill:rgb(209,140,82);"/>
        </g>
        <path d="M65.7,97.7L67,84.3L60.4,85.3L65.7,97.7Z" style="fill:rgb(82,43,16);fill-rule:nonzero;"/>
        <path d="M82.7,97.8L86,84.7L79.3,84.7L82.7,97.8Z" style="fill:rgb(82,43,16);fill-rule:nonzero;"/>
        <path d="M100.5,97.7L105.8,85.3L99.1,84.3L100.5,97.7Z" style="fill:rgb(82,43,16);fill-rule:nonzero;"/>
        <circle cx="62.9" cy="81.1" r="4.7" style="fill:rgb(209,140,82);"/>
        <circle cx="82.6" cy="81.1" r="4.7" style="fill:rgb(209,140,82);"/>
        <circle cx="103" cy="81.1" r="4.7" style="fill:rgb(209,140,82);"/>
        <path d="M59.5,15.8L59.7,20.7L92.3,15.8L59.5,15.8Z" style="fill:rgb(213,86,39);fill-rule:nonzero;"/>
        <path d="M58.9,4.8L59,7.3L75.6,4.8L58.9,4.8Z" style="fill:rgb(213,86,39);fill-rule:nonzero;"/>
        <path d="M90.9,31.1L106.3,31.1L106.4,28.4L90.9,31.1Z" style="fill:rgb(201,105,40);fill-rule:nonzero;"/>
        <path d="M104.7,61.3C104.7,63.1 105.3,65.1 108.6,67.6C111.8,70.1 102.2,71.5 102.2,71.5L100.3,64C100.2,63.9 104.7,59.5 104.7,61.3Z" style="fill:rgb(209,140,82);fill-rule:nonzero;"/>
        <path d="M61.8,60.5C61.9,63.3 60.4,66.2 58.3,67.3C56.2,68.3 63.5,71.6 63.5,71.6L68.8,61L61.8,60.5Z" style="fill:rgb(209,140,82);fill-rule:nonzero;"/>
    </g>
    <g>
        <clipPath id="_clip1">
            <path d="M98.4,186.9C98,176.9 91.7,172.1 86.1,167.9C81.1,164.1 76.8,160.9 76.5,154.1C76.2,147.3 79.4,143.3 84,139.2C89.2,134.6 94.4,130.7 94,120.7C93.9,118.8 94,116.5 92.2,116.5C90.3,116.6 90.3,118.7 90.4,120.5C90.7,127.3 85.1,130.3 80.4,134.5C75.2,139.1 69.2,144.4 69.6,154.4C70,164.4 76.3,169.2 81.9,173.4C82.8,174.1 83.6,174.7 84.4,175.3C84.4,175.3 93.3,183.4 88.4,192.7C86.9,195.6 81.8,198.6 80.8,199.5C75.6,204.1 82.9,210.9 87.6,206.8C92.8,202.2 98.8,196.9 98.4,186.9Z"/>
        </clipPath>
        <g clip-path="url(#_clip1)">
            <g opacity="0.08">
                <path d="M90.5,125.1L89.3,123.8L87.9,125L86.7,123.6L85.4,124.8L84.2,123.5L82.8,124.7L81.6,123.3L80.2,124.5L79,123.2L77.7,124.4L76.5,123L75.1,124.2L73.9,122.9L72.1,124.5L74.7,124.6L75.5,124.7L77.2,124.8L78.1,124.8L79.8,124.9L80.6,125L82.4,125.1L83.2,125.1L84.9,125.2L85.8,125.3L87.5,125.4L88.3,125.4L90,125.5L90.9,125.6L93.4,125.7L91.8,123.9L90.5,125.1Z" style="fill-rule:nonzero;"/>
                <path d="M93.6,115L92.4,113.7L91.1,114.9L89.9,113.5L88.5,114.7L87.3,113.4L86,114.6L84.7,113.2L83.4,114.4L82.2,113.1L80.8,114.3L79.6,112.9L78.3,114.1L77.1,112.8L75.3,114.4L77.8,114.5L78.7,114.6L80.4,114.7L81.2,114.7L82.9,114.8L83.8,114.9L85.5,115L86.4,115L88.1,115.1L88.9,115.2L90.6,115.3L91.5,115.3L93.2,115.4L94,115.5L96.6,115.6L95,113.8L93.6,115Z" style="fill-rule:nonzero;"/>
                <path d="M87.4,141.6L86,142.8L84.8,141.5L83.5,142.7L82.3,141.3L80.9,142.5L79.7,141.2L78.4,142.4L77.2,141L75.8,142.2L74.6,140.9L73.2,142.1L72,140.7L70.2,142.4L72.8,142.5L73.6,142.6L75.3,142.6L76.2,142.7L77.9,142.8L78.8,142.8L80.5,142.9L81.3,143L83,143.1L83.9,143.1L85.6,143.2L86.4,143.3L88.1,143.4L89,143.4L91.6,143.6L90,141.8L88.6,143L87.4,141.6Z" style="fill-rule:nonzero;"/>
                <path d="M101.8,145L100.4,146.2L99.2,144.9L97.8,146.1L96.6,144.7L95.3,145.9L94.1,144.6L92.7,145.8L91.5,144.4L90.2,145.6L89,144.3L87.6,145.5L86.4,144.1L85,145.3L83.8,144L82.5,145.2L81.3,143.8L79.9,145.1L78.7,143.7L77.4,144.9L76.2,143.6L74.8,144.8L73.6,143.4L71.8,145L74.3,145.2L75.2,145.2L76.9,145.3L77.8,145.4L79.5,145.5L80.3,145.5L82,145.6L82.9,145.7L84.6,145.8L85.4,145.8L87.1,145.9L88,145.9L89.7,146L90.6,146.1L92.3,146.2L93.1,146.2L94.8,146.3L95.7,146.4L97.4,146.5L98.2,146.5L100,146.6L100.8,146.7L103.4,146.8L101.8,145Z" style="fill-rule:nonzero;"/>
                <path d="M97.6,142.2L96.3,143.4L95.1,142.1L93.3,143.7L95.8,143.8L96.7,143.9L98.4,144L99.2,144L101.8,144.2L100.2,142.4L98.8,143.6L97.6,142.2Z" style="fill-rule:nonzero;"/>
                <path d="M95.2,139.5L93.4,141.1L96,141.3L96.8,141.3L99.4,141.5L97.8,139.7L96.4,140.9L95.2,139.5Z" style="fill-rule:nonzero;"/>
                <path d="M87.8,133.9L86.5,135.2L85.3,133.8L83.9,135L82.7,133.7L81.4,134.9L80.2,133.5L78.8,134.7L77.6,133.4L76.2,134.6L75,133.2L73.7,134.4L72.5,133.1L71.1,134.3L69.9,132.9L68.1,134.5L70.7,134.7L71.5,134.7L73.2,134.8L74.1,134.9L75.8,135L76.6,135L78.3,135.1L79.2,135.2L80.9,135.3L81.8,135.3L83.5,135.4L84.3,135.5L86,135.6L86.9,135.6L88.6,135.7L89.4,135.8L91.2,135.9L92,135.9L93.7,136L94.6,136L97.1,136.2L95.5,134.4L94.2,135.6L93,134.2L91.6,135.4L90.4,134.1L89,135.3L87.8,133.9Z" style="fill-rule:nonzero;"/>
                <path d="M94.5,130.5L93.3,129.1L91.9,130.3L90.7,129L89.3,130.2L88.1,128.8L86.8,130L85.6,128.7L84.2,129.9L83,128.5L81.7,129.7L80.4,128.4L79.1,129.6L77.9,128.2L76.5,129.4L75.3,128.1L74,129.3L72.8,127.9L71.4,129.1L70.2,127.8L68.4,129.4L71,129.6L71.8,129.6L73.5,129.7L74.4,129.7L76.1,129.8L76.9,129.9L78.6,130L79.5,130L81.2,130.1L82.1,130.2L83.8,130.3L84.6,130.3L86.3,130.4L87.2,130.5L88.9,130.6L89.7,130.6L91.4,130.7L92.3,130.8L94,130.9L94.9,130.9L97.4,131.1L95.8,129.3L94.5,130.5Z" style="fill-rule:nonzero;"/>
                <path d="M89.9,128.1L92.4,128.2L93.3,128.3L95.9,128.4L94.3,126.6L92.9,127.8L91.7,126.5L89.9,128.1Z" style="fill-rule:nonzero;"/>
                <path d="M92.7,138.5L95.3,138.7L93.7,136.9L92.3,138.1L91.1,136.7L89.3,138.3L91.9,138.5L92.7,138.5Z" style="fill-rule:nonzero;"/>
                <path d="M93,133.4L95.6,133.5L94,131.7L92.6,132.9L91.4,131.6L89.6,133.2L92.2,133.3L93,133.4Z" style="fill-rule:nonzero;"/>
                <path d="M70.3,126.9L72,127L72.8,127.1L74.5,127.2L75.4,127.2L77.1,127.3L77.9,127.4L79.6,127.5L80.5,127.5L82.2,127.6L83.1,127.7L84.8,127.8L85.6,127.8L88.2,128L86.6,126.2L85.2,127.4L84,126L82.7,127.2L81.5,125.9L80.1,127.1L78.9,125.7L77.5,126.9L76.3,125.6L75,126.8L73.8,125.4L72.4,126.6L71.2,125.3L69.9,126.5L68.6,125.1L66.8,126.7L69.4,126.9L70.3,126.9Z" style="fill-rule:nonzero;"/>
                <path d="M74,122L75.7,122.1L76.5,122.2L78.2,122.3L79.1,122.3L80.8,122.4L81.6,122.5L83.4,122.6L84.2,122.6L85.9,122.7L86.8,122.8L88.5,122.9L89.3,122.9L91.9,123L90.3,121.2L88.9,122.4L87.7,121.1L86.4,122.3L85.2,120.9L83.8,122.2L82.6,120.8L81.2,122L80,120.7L78.7,121.9L77.5,120.5L76.1,121.7L74.9,120.4L73.6,121.6L72.4,120.2L70.5,121.8L73.1,122L74,122Z" style="fill-rule:nonzero;"/>
                <path d="M75.8,119.6L77.5,119.7L78.4,119.7L80.1,119.8L80.9,119.8L82.6,119.9L83.5,120L85.2,120.1L86.1,120.1L87.8,120.2L88.6,120.3L90.3,120.4L91.2,120.4L93.7,120.6L92.1,118.8L90.8,120L89.6,118.6L88.2,119.8L87,118.5L85.7,119.7L84.5,118.3L83.1,119.5L81.9,118.2L80.5,119.4L79.3,118L78,119.2L76.8,117.9L75.4,119.1L74.2,117.7L72.4,119.4L75,119.5L75.8,119.6Z" style="fill-rule:nonzero;"/>
                <path d="M76.8,117L78.5,117.1L79.4,117.2L81.1,117.3L81.9,117.3L83.6,117.4L84.5,117.5L86.2,117.6L87.1,117.6L88.8,117.7L89.6,117.8L91.3,117.9L92.2,117.9L94.7,118.1L93.1,116.3L91.8,117.5L90.6,116.1L89.2,117.3L88,116L86.7,117.2L85.5,115.8L84.1,117L82.9,115.7L81.5,116.9L80.3,115.5L79,116.7L77.8,115.4L76.4,116.6L75.2,115.2L73.4,116.8L76,117L76.8,117Z" style="fill-rule:nonzero;"/>
                <path d="M74.9,150.3L76.6,150.4L77.5,150.5L79.2,150.6L80,150.6L81.7,150.7L82.6,150.8L84.3,150.9L85.1,150.9L86.9,151L87.7,151.1L89.4,151.2L90.3,151.2L92,151.3L92.8,151.4L94.5,151.5L95.4,151.5L98,151.7L96.3,149.9L95,151.1L93.8,149.7L92.4,150.9L91.2,149.6L89.9,150.8L88.7,149.4L87.3,150.6L86.1,149.3L84.7,150.5L83.5,149.1L82.2,150.3L81,149L79.6,150.2L78.4,148.8L77.1,150L75.9,148.7L74.5,149.9L73.3,148.5L71.5,150.1L74.1,150.3L74.9,150.3Z" style="fill-rule:nonzero;"/>
                <path d="M72.5,147.6L73.3,147.7L75.1,147.8L75.9,147.8L77.6,147.9L78.5,148L80.2,148.1L81,148.1L82.7,148.2L83.6,148.3L85.3,148.4L86.1,148.4L87.9,148.5L88.7,148.6L90.4,148.7L91.3,148.7L93,148.8L93.8,148.9L96.4,149L94.8,147.2L93.4,148.4L92.2,147L90.9,148.3L89.7,146.9L88.3,148.1L87.1,146.8L85.7,148L84.5,146.6L83.2,147.8L82,146.5L80.6,147.7L79.4,146.3L78.1,147.5L76.9,146.2L75.5,147.4L74.3,146L72.9,147.2L71.7,145.9L69.9,147.5L72.5,147.6Z" style="fill-rule:nonzero;"/>
                <path d="M71.2,139.8L72.9,139.9L73.8,140L75.5,140.1L76.3,140.1L78.1,140.2L78.9,140.3L80.6,140.4L81.5,140.4L83.2,140.5L84,140.6L85.7,140.7L86.6,140.7L89.2,140.9L87.5,139.1L86.2,140.3L85,138.9L83.6,140.1L82.4,138.8L81.1,140L79.9,138.6L78.5,139.8L77.3,138.5L75.9,139.7L74.7,138.3L73.4,139.5L72.2,138.2L70.8,139.4L69.6,138L67.8,139.6L70.4,139.8L71.2,139.8Z" style="fill-rule:nonzero;"/>
                <path d="M69.7,137.2L71.4,137.3L72.2,137.3L73.9,137.4L74.8,137.5L76.5,137.6L77.3,137.6L79.1,137.7L79.9,137.8L81.6,137.9L82.5,137.9L84.2,138L85,138.1L87.6,138.2L86,136.4L84.6,137.6L83.4,136.3L82.1,137.5L80.9,136.1L79.5,137.3L78.3,136L76.9,137.2L75.7,135.8L74.4,137L73.2,135.7L71.8,136.9L70.6,135.5L69.3,136.7L68.1,135.4L66.3,137L68.8,137.1L69.7,137.2Z" style="fill-rule:nonzero;"/>
                <path d="M70,132.1L71.7,132.2L72.5,132.2L74.2,132.3L75.1,132.4L76.8,132.5L77.6,132.5L79.3,132.6L80.2,132.7L81.9,132.7L82.8,132.8L84.5,132.9L85.3,132.9L87.9,133.1L86.3,131.3L84.9,132.5L83.7,131.1L82.4,132.3L81.2,131L79.8,132.2L78.6,130.8L77.2,132.1L76,130.7L74.7,131.9L73.5,130.6L72.1,131.8L70.9,130.4L69.6,131.6L68.4,130.3L66.5,131.9L69.1,132L70,132.1Z" style="fill-rule:nonzero;"/>
                <path d="M75.4,170.9L77.1,171L78,171.1L79.7,171.2L80.6,171.2L82.3,171.3L83.1,171.4L84.8,171.5L85.7,171.5L87.4,171.6L88.2,171.7L89.9,171.8L90.8,171.8L92.5,171.9L93.4,171.9L95.1,172L95.9,172.1L98.5,172.2L96.9,170.4L95.5,171.6L94.3,170.3L93,171.5L91.7,170.1L90.4,171.3L89.2,170L87.8,171.2L86.6,169.8L85.3,171.1L84.1,169.7L82.7,170.9L81.5,169.6L80.2,170.8L78.9,169.4L77.6,170.6L76.4,169.3L75,170.5L73.8,169.1L72,170.7L74.6,170.9L75.4,170.9Z" style="fill-rule:nonzero;"/>
                <path d="M73.9,168.3L75.6,168.4L76.4,168.4L78.1,168.5L79,168.6L80.7,168.7L81.6,168.7L83.3,168.8L84.1,168.8L85.8,168.9L86.7,169L88.4,169.1L89.2,169.1L90.9,169.2L91.8,169.3L93.5,169.4L94.4,169.4L96.9,169.6L95.3,167.8L94,169L92.7,167.6L91.4,168.8L90.2,167.5L88.8,168.7L87.6,167.3L86.3,168.5L85.1,167.2L83.7,168.4L82.5,167L81.2,168.2L79.9,166.9L78.6,168.1L77.4,166.7L76,168L74.8,166.6L73.5,167.8L72.3,166.5L70.5,168.1L73,168.2L73.9,168.3Z" style="fill-rule:nonzero;"/>
                <path d="M75.7,165.8L77.4,165.9L78.3,165.9L80,166L80.8,166.1L82.6,166.2L83.4,166.2L85.1,166.3L86,166.4L87.7,166.5L88.5,166.5L90.2,166.6L91.1,166.7L92.8,166.8L93.7,166.8L95.4,166.9L96.2,167L98.8,167.1L97.2,165.3L95.8,166.5L94.6,165.2L93.2,166.4L92,165L90.7,166.2L89.5,164.9L88.1,166.1L86.9,164.7L85.6,165.9L84.4,164.6L83,165.8L81.8,164.4L80.4,165.6L79.2,164.3L77.9,165.5L76.7,164.1L75.3,165.3L74.1,164L72.3,165.6L74.9,165.7L75.7,165.8Z" style="fill-rule:nonzero;"/>
                <path d="M73.3,163.1L74.2,163.1L75.9,163.2L76.7,163.3L78.4,163.4L79.3,163.4L81,163.5L81.8,163.6L83.6,163.7L84.4,163.7L86.1,163.8L87,163.9L88.7,164L89.5,164L91.2,164.1L92.1,164.2L93.8,164.3L94.7,164.3L97.2,164.5L95.6,162.7L94.3,163.9L93,162.5L91.7,163.7L90.5,162.4L89.1,163.6L87.9,162.2L86.6,163.4L85.4,162.1L84,163.3L82.8,161.9L81.4,163.1L80.2,161.8L78.9,163L77.7,161.6L76.3,162.8L75.1,161.5L73.8,162.7L72.6,161.3L70.8,162.9L73.3,163.1Z" style="fill-rule:nonzero;"/>
                <path d="M74.5,158L76.2,158.1L77,158.2L78.7,158.3L79.6,158.3L81.3,158.4L82.1,158.5L83.9,158.6L84.7,158.6L86.4,158.7L87.3,158.8L89,158.8L89.8,158.9L91.5,159L92.4,159L94.1,159.1L94.9,159.2L97.5,159.3L95.9,157.5L94.5,158.7L93.3,157.4L92,158.6L90.8,157.2L89.4,158.4L88.2,157.1L86.9,158.3L85.7,156.9L84.3,158.2L83.1,156.8L81.7,158L80.5,156.7L79.2,157.9L78,156.5L76.6,157.7L75.4,156.4L74.1,157.6L72.9,156.2L71,157.8L73.6,158L74.5,158Z" style="fill-rule:nonzero;"/>
                <path d="M73,152.8L74.8,152.9L75.6,152.9L77.3,153L78.2,153.1L79.9,153.2L80.7,153.2L82.4,153.3L83.3,153.4L85,153.5L85.9,153.5L87.6,153.6L88.4,153.7L90.1,153.8L91,153.8L92.7,153.9L93.5,154L96.1,154.1L94.5,152.3L93.1,153.5L91.9,152.2L90.6,153.4L89.4,152L88,153.2L86.8,151.9L85.5,153.1L84.2,151.7L82.9,152.9L81.7,151.6L80.3,152.8L79.1,151.4L77.8,152.6L76.6,151.3L75.2,152.5L74,151.1L72.6,152.3L71.4,151L69.6,152.6L72.2,152.7L73,152.8Z" style="fill-rule:nonzero;"/>
                <path d="M98,180.8L96.6,182L95.4,180.6L94.1,181.8L92.9,180.5L91.5,181.7L90.3,180.3L89,181.5L87.7,180.2L86.4,181.4L85.2,180L83.8,181.2L82.6,179.9L81.3,181.1L80.1,179.7L78.3,181.4L80.8,181.5L81.7,181.6L83.4,181.7L84.2,181.7L85.9,181.8L86.8,181.8L88.5,181.9L89.4,182L91.1,182.1L91.9,182.1L93.6,182.2L94.5,182.3L96.2,182.4L97,182.4L99.6,182.6L98,180.8Z" style="fill-rule:nonzero;"/>
                <path d="M97.5,160.2L96.1,161.4L94.9,160L93.5,161.3L92.3,159.9L91,161.1L89.8,159.8L88.4,161L87.2,159.6L85.9,160.8L84.7,159.5L83.3,160.7L82.1,159.3L80.7,160.5L79.5,159.2L78.2,160.4L77,159L75.6,160.2L74.4,158.9L72.6,160.5L75.2,160.6L76,160.7L77.7,160.8L78.6,160.8L80.3,160.9L81.1,161L82.8,161.1L83.7,161.1L85.4,161.2L86.3,161.3L88,161.4L88.8,161.4L90.5,161.5L91.4,161.6L93.1,161.7L93.9,161.7L95.7,161.8L96.5,161.9L99.1,162L97.5,160.2Z" style="fill-rule:nonzero;"/>
                <path d="M97.8,155.1L96.4,156.3L95.2,154.9L93.8,156.1L92.6,154.8L91.3,156L90.1,154.6L88.7,155.8L87.5,154.5L86.2,155.7L85,154.3L83.6,155.5L82.4,154.2L81,155.4L79.8,154L78.5,155.2L77.3,153.9L75.9,155.1L74.7,153.7L72.9,155.4L75.5,155.5L76.3,155.6L78,155.6L78.9,155.7L80.6,155.8L81.4,155.8L83.1,155.9L84,156L85.7,156.1L86.6,156.1L88.3,156.2L89.1,156.3L90.8,156.4L91.7,156.4L93.4,156.5L94.2,156.6L95.9,156.7L96.8,156.7L99.4,156.9L97.8,155.1Z" style="fill-rule:nonzero;"/>
                <path d="M96.9,207.7L95.7,206.3L94.3,207.5L93.1,206.2L91.7,207.4L90.5,206L89.2,207.2L88,205.9L86.6,207.1L85.4,205.7L84.1,207L82.9,205.6L81.5,206.8L80.3,205.5L78.5,207.1L81.1,207.2L81.9,207.3L83.6,207.4L84.5,207.4L86.2,207.5L87,207.6L88.7,207.7L89.6,207.7L91.3,207.8L92.1,207.8L93.9,207.9L94.7,208L96.4,208.1L97.3,208.1L99.8,208.3L98.2,206.5L96.9,207.7Z" style="fill-rule:nonzero;"/>
                <path d="M97.2,202.6L96,201.2L94.6,202.4L93.4,201.1L92,202.3L90.8,200.9L89.5,202.1L88.3,200.8L86.9,202L85.7,200.6L84.4,201.8L83.2,200.5L81.8,201.7L80.6,200.3L78.8,201.9L81.3,202.1L82.2,202.1L83.9,202.2L84.8,202.3L86.5,202.4L87.3,202.4L89,202.5L89.9,202.6L91.6,202.7L92.4,202.7L94.1,202.8L95,202.9L96.7,203L97.6,203L100.1,203.2L98.5,201.4L97.2,202.6Z" style="fill-rule:nonzero;"/>
                <path d="M97.5,197.4L96.2,196.1L94.9,197.3L93.7,195.9L92.3,197.2L91.1,195.8L89.8,197L88.6,195.7L87.2,196.9L86,195.5L84.7,196.7L83.4,195.4L82.1,196.6L80.9,195.2L79.1,196.8L81.6,197L82.5,197L84.2,197.1L85.1,197.2L86.8,197.3L87.6,197.3L89.3,197.4L90.2,197.5L91.9,197.6L92.7,197.6L94.4,197.7L95.3,197.8L97,197.9L97.9,197.9L100.4,198L98.8,196.2L97.5,197.4Z" style="fill-rule:nonzero;"/>
                <path d="M97.8,192.3L96.5,191L95.2,192.2L94,190.8L92.6,192L91.4,190.7L90.1,191.9L88.9,190.5L87.5,191.7L86.3,190.4L84.9,191.6L83.7,190.2L82.4,191.4L81.2,190.1L79.4,191.7L81.9,191.8L82.8,191.9L84.5,192L85.3,192L87.1,192.1L87.9,192.2L89.6,192.3L90.5,192.3L92.2,192.4L93,192.5L94.7,192.6L95.6,192.6L97.3,192.7L98.2,192.8L100.7,192.9L99.1,191.1L97.8,192.3Z" style="fill-rule:nonzero;"/>
                <path d="M81.4,186.7L83.1,186.8L83.9,186.8L85.6,186.9L86.5,187L88.2,187.1L89.1,187.1L90.8,187.2L91.6,187.3L93.3,187.4L94.2,187.4L95.9,187.5L96.7,187.6L99.3,187.7L97.7,185.9L96.3,187.1L95.1,185.8L93.8,187L92.6,185.6L91.2,186.8L90,185.5L88.7,186.7L87.4,185.3L86.1,186.5L84.9,185.2L83.5,186.4L82.3,185L81,186.2L79.8,184.9L78,186.5L80.5,186.6L81.4,186.7Z" style="fill-rule:nonzero;"/>
                <path d="M79,184L79.8,184L81.5,184.1L82.4,184.2L84.1,184.3L84.9,184.3L86.6,184.4L87.5,184.5L89.2,184.6L90.1,184.6L91.8,184.7L92.6,184.8L94.3,184.9L95.2,184.9L97.7,185L96.1,183.2L94.8,184.4L93.6,183.1L92.2,184.3L91,182.9L89.7,184.2L88.5,182.8L87.1,184L85.9,182.7L84.5,183.9L83.3,182.5L82,183.7L80.8,182.4L79.4,183.6L78.2,182.2L76.4,183.8L79,184Z" style="fill-rule:nonzero;"/>
                <path d="M80.1,178.9L81.8,179L82.7,179L84.4,179.1L85.2,179.2L86.9,179.3L87.8,179.3L89.5,179.4L90.4,179.5L92.1,179.6L92.9,179.6L94.6,179.7L95.5,179.8L98,179.9L96.4,178.1L95.1,179.3L93.9,178L92.5,179.2L91.3,177.8L90,179L88.7,177.7L87.4,178.9L86.2,177.5L84.8,178.7L83.6,177.4L82.3,178.6L81.1,177.2L79.7,178.4L78.5,177.1L76.7,178.7L79.3,178.8L80.1,178.9Z" style="fill-rule:nonzero;"/>
                <path d="M77.7,176.2L79.4,176.3L80.3,176.3L82,176.4L82.8,176.5L84.5,176.6L85.4,176.6L87.1,176.7L87.9,176.8L89.6,176.9L90.5,176.9L92.2,177L93.1,177.1L95.6,177.2L94,175.4L92.7,176.6L91.5,175.3L90.1,176.5L88.9,175.1L87.5,176.3L86.3,175L85,176.2L83.8,174.8L82.4,176L81.2,174.7L79.9,175.9L78.6,174.5L77.3,175.7L76.1,174.4L74.3,176L76.8,176.1L77.7,176.2Z" style="fill-rule:nonzero;"/>
                <path d="M76.1,173.5L77.8,173.6L78.7,173.7L80.4,173.8L81.3,173.8L83,173.9L83.8,174L85.5,174.1L86.4,174.1L88.1,174.2L88.9,174.3L90.6,174.4L91.5,174.4L93.2,174.5L94.1,174.6L95.8,174.7L96.6,174.7L99.2,174.9L97.6,173L96.2,174.3L95,172.9L93.7,174.1L92.5,172.8L91.1,174L89.9,172.6L88.5,173.8L87.3,172.5L86,173.7L84.8,172.3L83.4,173.5L82.2,172.2L80.9,173.4L79.7,172L78.3,173.2L77.1,171.9L75.7,173.1L74.5,171.7L72.7,173.3L75.3,173.5L76.1,173.5Z" style="fill-rule:nonzero;"/>
                <path d="M80.3,204.6L82.1,204.7L82.9,204.7L84.6,204.8L85.5,204.9L87.2,205L88,205L89.7,205.1L90.6,205.2L92.3,205.3L93.1,205.3L94.9,205.4L95.7,205.5L98.3,205.6L96.7,203.8L95.3,205L94.1,203.7L92.7,204.9L91.5,203.5L90.2,204.7L89,203.4L87.6,204.6L86.4,203.2L85.1,204.4L83.9,203.1L82.5,204.3L81.3,202.9L79.9,204.1L78.7,202.8L76.9,204.4L79.5,204.6L80.3,204.6Z" style="fill-rule:nonzero;"/>
                <path d="M79.8,199.4L80.6,199.5L82.3,199.6L83.2,199.6L84.9,199.7L85.8,199.8L87.5,199.9L88.3,199.9L90,200L90.9,200.1L92.6,200.2L93.4,200.2L95.1,200.3L96,200.4L98.6,200.5L97,198.7L95.6,199.9L94.4,198.6L93,199.8L91.8,198.4L90.5,199.6L89.3,198.3L87.9,199.5L86.7,198.1L85.4,199.3L84.2,198L82.8,199.2L81.6,197.8L80.2,199L79,197.7L77.2,199.3L79.8,199.4Z" style="fill-rule:nonzero;"/>
                <path d="M80.9,194.4L82.6,194.5L83.5,194.5L85.2,194.6L86.1,194.7L87.8,194.7L88.6,194.8L90.3,194.9L91.2,194.9L92.9,195L93.7,195.1L95.4,195.2L96.3,195.2L98.9,195.4L97.3,193.6L95.9,194.8L94.7,193.4L93.3,194.6L92.1,193.3L90.8,194.5L89.6,193.1L88.2,194.3L87,193L85.7,194.2L84.4,192.8L83.1,194.1L81.9,192.7L80.5,193.9L79.3,192.6L77.5,194.2L80.1,194.3L80.9,194.4Z" style="fill-rule:nonzero;"/>
                <path d="M79.5,189.1L81.2,189.2L82.1,189.3L83.8,189.4L84.6,189.4L86.4,189.5L87.2,189.6L88.9,189.7L89.8,189.7L91.5,189.8L92.3,189.9L94,190L94.9,190L97.4,190.2L95.8,188.4L94.5,189.6L93.3,188.2L91.9,189.4L90.7,188.1L89.4,189.3L88.2,187.9L86.8,189.1L85.6,187.8L84.2,189L83,187.6L81.7,188.8L80.5,187.5L79.1,188.7L77.9,187.3L76.1,188.9L78.7,189.1L79.5,189.1Z" style="fill-rule:nonzero;"/>
            </g>
        </g>
    </g>
</svg>
