<?xml version="1.0" encoding="UTF-8" standalone="no"?>
<!DOCTYPE svg PUBLIC "-//W3C//DTD SVG 1.1//EN" "http://www.w3.org/Graphics/SVG/1.1/DTD/svg11.dtd">
<svg width="100%" height="100%" viewBox="0 0 168 250" version="1.1" xmlns="http://www.w3.org/2000/svg" xmlns:xlink="http://www.w3.org/1999/xlink" xml:space="preserve" xmlns:serif="http://www.serif.com/" style="fill-rule:evenodd;clip-rule:evenodd;stroke-linejoin:round;stroke-miterlimit:1.41421;">
    <rect x="-5.7" y="-5.7" width="178.6" height="260.8" style="fill:rgb(248,171,170);"/>
    <circle cx="20.8" cy="39.2" r="2.6" style="fill:rgb(186,48,51);"/>
    <g transform="matrix(1,0,0,1,15.3198,29.7173)">
        <path d="M0.947,0L0.947,-1.318L5.605,-6.494C6.439,-7.425 7.004,-8.164 7.3,-8.711C7.596,-9.258 7.744,-9.818 7.744,-10.391C7.744,-11.1 7.536,-11.698 7.119,-12.183C6.702,-12.668 6.152,-12.91 5.469,-12.91C4.486,-12.91 3.763,-12.66 3.301,-12.158C2.839,-11.657 2.607,-10.947 2.607,-10.029L0.762,-10.029L0.742,-10.088C0.71,-11.312 1.115,-12.34 1.958,-13.174C2.801,-14.007 3.971,-14.424 5.469,-14.424C6.751,-14.424 7.772,-14.051 8.53,-13.306C9.289,-12.56 9.668,-11.611 9.668,-10.459C9.668,-9.684 9.438,-8.91 8.979,-8.135C8.521,-7.36 7.874,-6.523 7.041,-5.625L3.301,-1.553L3.32,-1.504L8.369,-1.504L8.525,-3.135L10.156,-3.135L10.156,0L0.947,0Z" style="fill-rule:nonzero;"/>
    </g>
    <circle cx="146.4" cy="210.3" r="2.6" style="fill:rgb(186,48,51);"/>
    <g transform="matrix(-1,0,0,-1,151.924,219.732)">
        <path d="M0.947,0L0.947,-1.318L5.605,-6.494C6.439,-7.425 7.004,-8.164 7.3,-8.711C7.596,-9.258 7.744,-9.818 7.744,-10.391C7.744,-11.1 7.536,-11.698 7.119,-12.183C6.702,-12.668 6.152,-12.91 5.469,-12.91C4.486,-12.91 3.763,-12.66 3.301,-12.158C2.839,-11.657 2.607,-10.947 2.607,-10.029L0.762,-10.029L0.742,-10.088C0.71,-11.312 1.115,-12.34 1.958,-13.174C2.801,-14.007 3.971,-14.424 5.469,-14.424C6.751,-14.424 7.772,-14.051 8.53,-13.306C9.289,-12.56 9.668,-11.611 9.668,-10.459C9.668,-9.684 9.438,-8.91 8.979,-8.135C8.521,-7.36 7.874,-6.523 7.041,-5.625L3.301,-1.553L3.32,-1.504L8.369,-1.504L8.525,-3.135L10.156,-3.135L10.156,0L0.947,0Z" style="fill-rule:nonzero;"/>
    </g>
    <g>
        <path d="M143.4,169.2L25.5,202L25.5,135L77.7,80.3L143.4,102.2L143.4,169.2Z" style="fill:rgb(240,100,155);fill-rule:nonzero;"/>
        <path d="M143.4,169.2L25.5,202L25.5,135L143.4,102.2L143.4,169.2Z" style="fill:rgb(253,239,219);fill-rule:nonzero;"/>
        <path d="M143.4,169.2L25.5,202L25.5,196.8L143.4,164L143.4,169.2Z" style="fill:rgb(245,208,192);fill-rule:nonzero;"/>
        <path d="M134.5,154.9C128.9,156.5 129.4,158.2 123.8,159.8C118.2,161.4 117.7,159.6 112.1,161.1C106.5,162.7 107,164.4 101.4,166C95.8,167.6 95.3,165.8 89.7,167.3C84.1,168.9 84.6,170.6 79,172.2C73.4,173.8 72.9,172 67.3,173.5C61.7,175.1 62.2,176.8 56.6,178.4C51,180 50.5,178.2 44.9,179.7C39.3,181.3 39.8,183 34.2,184.6C29.7,185.9 28.5,185 25.3,185.4L25.3,202L143.2,169.2L143.2,154.1C140.2,154.6 139,153.6 134.5,154.9Z" style="fill:rgb(229,204,173);fill-rule:nonzero;"/>
        <path d="M137.5,127.7C130.7,129.6 132.8,136.8 126,138.7C119.2,140.6 117.2,133.4 110.5,135.2C103.7,137.1 105.8,144.3 99,146.2C92.2,148.1 90.2,140.9 83.5,142.7C76.7,144.6 78.8,151.8 72,153.7C65.2,155.6 63.2,148.4 56.5,150.2C49.7,152.1 51.8,159.3 45,161.2C38.2,163.1 36.2,155.9 29.5,157.8C27.7,158.3 26.5,159.3 25.6,160.4L25.6,174.5C28.8,174.1 30,175 34.5,173.8C40.1,172.2 39.6,170.5 45.2,168.9C50.8,167.3 51.3,169.1 56.9,167.6C62.5,166 62,164.3 67.6,162.7C73.2,161.1 73.7,162.9 79.3,161.4C84.9,159.8 84.4,158.1 90,156.5C95.6,154.9 96.1,156.7 101.7,155.2C107.3,153.6 106.8,151.9 112.4,150.3C118,148.7 118.5,150.5 124.1,149C129.7,147.4 129.2,145.7 134.8,144.1C139.3,142.8 140.5,143.7 143.7,143.3L143.7,128.6C141.7,127.6 139.9,127 137.5,127.7Z" style="fill:rgb(229,204,173);fill-opacity:0.5;fill-rule:nonzero;"/>
        <path d="M40.5,193L40.5,187.7L86.9,134.2C95.7,124 102.1,115.2 106.2,107.8C110.3,100.4 112.3,93.6 112.3,87.3C112.3,77 109.4,69 103.7,63.2C98,57.4 89.7,54.5 78.7,54.5C67.1,54.5 58.1,57.9 51.8,64.7C45.4,71.5 42.3,80.3 42.3,91.1L37.8,91.1L37.6,90.5C37.3,79 40.9,69.3 48.4,61.2C56,53.2 66,49.1 78.7,49.1C90.4,49.1 99.8,52.4 106.9,59.1C114,65.7 117.5,75.1 117.5,87.2C117.5,95 115,103 109.9,111.2C104.8,119.4 97.6,128.9 88.4,139.7L47.9,187.1L48.1,187.6L120,187.6L120,164.4L125.3,164.4L125.3,193L40.5,193Z" style="fill-rule:nonzero;"/>
        <path d="M84.6,109.3C84,109.4 83.4,109 83.3,108.3L82.9,105.4C82.8,104.8 83.2,104.2 83.9,104.1C84.5,104 85.1,104.4 85.2,105.1L85.6,108C85.7,108.6 85.3,109.2 84.6,109.3Z" style="fill:rgb(127,108,177);fill-rule:nonzero;"/>
        <path d="M72.2,93.7C72.2,93.1 72.7,92.5 73.3,92.5L76.3,92.4C76.9,92.4 77.5,92.9 77.5,93.5C77.5,94.1 77,94.7 76.4,94.7L73.4,94.8C72.8,94.8 72.3,94.3 72.2,93.7Z" style="fill:rgb(240,168,143);fill-rule:nonzero;"/>
        <path d="M118.3,100.3C118,99.7 118.3,99 118.9,98.8L121.6,97.6C122.2,97.3 122.9,97.6 123.1,98.2C123.4,98.8 123.1,99.5 122.5,99.7L119.8,100.9C119.3,101.1 118.6,100.9 118.3,100.3Z" style="fill:rgb(240,168,143);fill-rule:nonzero;"/>
        <path d="M71.3,116.9C71.3,116.3 71.9,115.7 72.5,115.8L75.5,115.9C76.1,115.9 76.7,116.5 76.6,117.1C76.6,117.7 76,118.3 75.4,118.2L72.4,118.1C71.8,118.1 71.3,117.6 71.3,116.9Z" style="fill:rgb(213,223,242);fill-rule:nonzero;"/>
        <path d="M41.4,125.1C41.2,124.5 41.6,123.8 42.3,123.7L45.2,123C45.8,122.8 46.5,123.2 46.6,123.9C46.8,124.5 46.4,125.2 45.7,125.3L42.8,126C42.2,126.1 41.6,125.7 41.4,125.1Z" style="fill:rgb(235,181,187);fill-rule:nonzero;"/>
        <path d="M57.8,122.4C57.4,121.9 57.5,121.2 58,120.8L60.3,119C60.8,118.6 61.5,118.7 61.9,119.2C62.3,119.7 62.2,120.4 61.7,120.8L59.4,122.6C59,123 58.2,122.9 57.8,122.4Z" style="fill:rgb(127,108,177);fill-rule:nonzero;"/>
        <path d="M51.3,114C50.9,113.5 51,112.8 51.5,112.4L53.8,110.6C54.3,110.2 55,110.3 55.4,110.8C55.8,111.3 55.7,112 55.2,112.4L52.9,114.2C52.4,114.5 51.7,114.5 51.3,114Z" style="fill:rgb(219,59,127);fill-rule:nonzero;"/>
        <path d="M67.9,104C67.6,104.6 67,104.9 66.4,104.6L63.7,103.4C63.1,103.1 62.8,102.5 63.1,101.9C63.4,101.3 64,101 64.6,101.3L67.3,102.5C67.9,102.7 68.2,103.4 67.9,104Z" style="fill:rgb(235,181,187);fill-rule:nonzero;"/>
        <path d="M85,96.1C84.4,96.3 83.7,95.9 83.6,95.3L82.8,92.5C82.6,91.9 83,91.2 83.6,91.1C84.2,90.9 84.9,91.3 85,91.9L85.8,94.7C85.9,95.3 85.6,96 85,96.1Z" style="fill:rgb(244,240,212);fill-rule:nonzero;"/>
        <path d="M100.4,103.5C100.3,102.9 100.7,102.2 101.3,102.1L104.2,101.5C104.8,101.4 105.5,101.8 105.6,102.4C105.7,103 105.3,103.7 104.7,103.8L101.8,104.4C101.1,104.5 100.5,104.1 100.4,103.5Z" style="fill:rgb(127,108,177);fill-rule:nonzero;"/>
        <path d="M91,93.5C91,92.9 91.6,92.3 92.2,92.4L95.2,92.5C95.8,92.5 96.4,93.1 96.3,93.7C96.3,94.3 95.7,94.9 95.1,94.8L92.1,94.7C91.4,94.7 90.9,94.1 91,93.5Z" style="fill:rgb(145,198,230);fill-rule:nonzero;"/>
        <g>
            <path d="M110.7,103.2C118.3,95.7 118.3,83.4 110.7,75.8C103.2,68.2 90.9,68.2 83.3,75.8C74,85.1 73,104.8 77.3,109.1C81.6,113.3 102.1,111.7 110.7,103.2Z" style="fill:rgb(209,57,74);fill-rule:nonzero;"/>
            <g transform="matrix(0.7061,0.7082,-0.7082,0.7061,90.5783,-44.9617)">
                <ellipse cx="99.4" cy="86.6" rx="0.4" ry="1.6" style="fill:rgb(222,218,198);"/>
            </g>
            <g transform="matrix(0.3735,0.9276,-0.9276,0.3735,157.869,-27.6783)">
                <ellipse cx="99.4" cy="103" rx="0.4" ry="1.6" style="fill:rgb(222,218,198);"/>
            </g>
            <g transform="matrix(0.8285,0.56,-0.56,0.8285,71.5817,-44.0142)">
                <ellipse cx="107.6" cy="94.8" rx="0.4" ry="1.6" style="fill:rgb(222,218,198);"/>
            </g>
            <g transform="matrix(0.8491,0.5283,-0.5283,0.8491,59.155,-30.5511)">
                <ellipse cx="83" cy="88.2" rx="0.4" ry="1.6" style="fill:rgb(222,218,198);"/>
            </g>
            <g transform="matrix(0.8491,0.5283,-0.5283,0.8491,55.9983,-30.9891)">
                <ellipse cx="82.2" cy="82.5" rx="0.4" ry="1.6" style="fill:rgb(222,218,198);"/>
            </g>
            <g transform="matrix(-0.317,-0.9484,0.9484,-0.317,23.6894,218.18)">
                <ellipse cx="90.4" cy="100.6" rx="0.4" ry="1.6" style="fill:rgb(222,218,198);"/>
            </g>
            <g transform="matrix(-0.5698,-0.8218,0.8218,-0.5698,78.1672,230.582)">
                <ellipse cx="99.4" cy="94.8" rx="0.4" ry="1.6" style="fill:rgb(222,218,198);"/>
            </g>
            <g transform="matrix(-0.5698,-0.8218,0.8218,-0.5698,59.0207,245.15)">
                <ellipse cx="93.7" cy="107.1" rx="0.4" ry="1.6" style="fill:rgb(222,218,198);"/>
            </g>
            <g transform="matrix(-0.7061,-0.7082,0.7082,-0.7061,91.6526,222.762)">
                <ellipse cx="92.1" cy="92.4" rx="0.4" ry="1.6" style="fill:rgb(222,218,198);"/>
            </g>
            <g transform="matrix(-0.8609,-0.5088,0.5088,-0.8609,97.0788,234.197)">
                <ellipse cx="80.6" cy="103.8" rx="0.4" ry="1.6" style="fill:rgb(222,218,198);"/>
            </g>
            <g transform="matrix(-0.2255,-0.9742,0.9742,-0.2255,0.3917,214.541)">
                <ellipse cx="85.5" cy="107.1" rx="0.4" ry="1.6" style="fill:rgb(222,218,198);"/>
            </g>
            <g transform="matrix(-0.9099,-0.4149,0.4149,-0.9099,168.435,208.226)">
                <ellipse cx="106.8" cy="85.8" rx="0.4" ry="1.6" style="fill:rgb(222,218,198);"/>
            </g>
            <g transform="matrix(-0.44,-0.898,0.898,-0.44,68.5157,201.214)">
                <ellipse cx="97" cy="79.2" rx="0.4" ry="1.6" style="fill:rgb(222,218,198);"/>
            </g>
            <g transform="matrix(-0.44,-0.898,0.898,-0.44,68.6673,193.098)">
                <ellipse cx="94.5" cy="75.1" rx="0.4" ry="1.6" style="fill:rgb(222,218,198);"/>
            </g>
            <g transform="matrix(-0.8563,-0.5164,0.5164,-0.8563,121.599,188.809)">
                <ellipse cx="87.1" cy="77.5" rx="0.4" ry="1.6" style="fill:rgb(222,218,198);"/>
            </g>
            <g transform="matrix(-0.6209,-0.7839,0.7839,-0.6209,80.6094,207.293)">
                <ellipse cx="90.4" cy="84.2" rx="0.4" ry="1.6" style="fill:rgb(222,218,198);"/>
            </g>
            <g transform="matrix(-0.842,-0.5395,0.5395,-0.842,103.748,218.364)">
                <ellipse cx="83.9" cy="94" rx="0.4" ry="1.6" style="fill:rgb(222,218,198);"/>
            </g>
            <g transform="matrix(-0.9619,-0.2735,0.2735,-0.9619,126.859,210.567)">
                <ellipse cx="78.1" cy="96.4" rx="0.4" ry="1.6" style="fill:rgb(222,218,198);"/>
            </g>
            <g transform="matrix(-0.7061,-0.7082,0.7082,-0.7061,110.998,247.241)">
                <ellipse cx="106.8" cy="100.6" rx="0.4" ry="1.6" style="fill:rgb(222,218,198);"/>
            </g>
            <path d="M117.7,76.7C116.5,76.6 115.3,76.6 114.2,76.7C115.3,76 116.4,75.2 117.4,74.2C120.4,71.3 122.2,67.5 122.7,63.7C118.8,64.1 115,65.8 112,68.7C111.2,69.5 110.4,70.4 109.8,71.3C109.9,70.3 110,69.4 109.9,68.4C109.7,64.2 108.1,60.4 105.6,57.4C103.3,60.6 102,64.5 102.2,68.7C102.4,72.7 103.9,76.4 106.2,79.3C106.2,79.3 106.5,79.7 106.5,79.6C109.3,82.1 112.8,83.8 116.8,84.3C121,84.7 125,83.7 128.3,81.6C125.6,79 121.9,77.1 117.7,76.7Z" style="fill:rgb(148,169,121);fill-rule:nonzero;"/>
        </g>
        <g>
            <circle cx="75.9" cy="108.5" r="5.4" style="fill:rgb(240,100,155);"/>
            <circle cx="84.9" cy="110.4" r="5.4" style="fill:rgb(240,100,155);"/>
            <circle cx="94.4" cy="110.4" r="5.4" style="fill:rgb(240,100,155);"/>
            <circle cx="103" cy="108.5" r="5.4" style="fill:rgb(240,100,155);"/>
        </g>
        <path d="M31.4,146.6C38.2,144.7 36.1,137.5 42.9,135.6C49.7,133.7 51.7,140.9 58.4,139.1C65.2,137.2 63.1,130 69.9,128.1C76.7,126.2 78.7,133.4 85.4,131.6C92.2,129.7 90.1,122.5 96.9,120.6C103.7,118.7 105.7,125.9 112.4,124.1C119.2,122.2 117.1,115 123.9,113.1C130.7,111.2 132.7,118.4 139.4,116.5C141.2,116 142.4,115 143.3,113.9L143.3,102.2L25.5,135L25.5,145.8C27.2,146.7 29,147.2 31.4,146.6Z" style="fill:rgb(240,100,155);fill-rule:nonzero;"/>
        <g>
            <circle cx="30.7" cy="135.5" r="2.5" style="fill:rgb(240,100,155);"/>
            <circle cx="33.2" cy="133.7" r="1.8" style="fill:rgb(240,100,155);"/>
            <circle cx="36" cy="133.6" r="1.8" style="fill:rgb(240,100,155);"/>
            <circle cx="39.1" cy="132.2" r="2.4" style="fill:rgb(240,100,155);"/>
            <circle cx="42.7" cy="131" r="2.4" style="fill:rgb(240,100,155);"/>
            <circle cx="46.3" cy="130.5" r="2.4" style="fill:rgb(240,100,155);"/>
            <circle cx="50.5" cy="128.5" r="3.2" style="fill:rgb(240,100,155);"/>
            <circle cx="54.7" cy="125.8" r="3.2" style="fill:rgb(240,100,155);"/>
            <circle cx="59.6" cy="126.3" r="3.2" style="fill:rgb(240,100,155);"/>
            <circle cx="64.1" cy="123.8" r="2.6" style="fill:rgb(240,100,155);"/>
            <circle cx="68.3" cy="123.3" r="2.6" style="fill:rgb(240,100,155);"/>
            <circle cx="71.7" cy="122.4" r="2.6" style="fill:rgb(240,100,155);"/>
            <circle cx="75.5" cy="121" r="2.1" style="fill:rgb(240,100,155);"/>
            <circle cx="79.1" cy="120.4" r="2.1" style="fill:rgb(240,100,155);"/>
            <circle cx="82.4" cy="119.3" r="2.1" style="fill:rgb(240,100,155);"/>
            <circle cx="86.4" cy="119.1" r="2.8" style="fill:rgb(240,100,155);"/>
            <circle cx="93" cy="117.2" r="2.8" style="fill:rgb(240,100,155);"/>
            <circle cx="96.7" cy="115.8" r="2.8" style="fill:rgb(240,100,155);"/>
            <circle cx="100.8" cy="114.7" r="2.8" style="fill:rgb(240,100,155);"/>
            <circle cx="104.7" cy="113.3" r="2.8" style="fill:rgb(240,100,155);"/>
            <circle cx="108.6" cy="112.4" r="2.8" style="fill:rgb(240,100,155);"/>
            <circle cx="111.4" cy="110.5" r="3.7" style="fill:rgb(240,100,155);"/>
            <circle cx="116.4" cy="110.7" r="2.8" style="fill:rgb(240,100,155);"/>
            <ellipse cx="120.1" cy="108.8" rx="2" ry="2.1" style="fill:rgb(240,100,155);"/>
            <ellipse cx="122.9" cy="108.3" rx="2.1" ry="2.3" style="fill:rgb(240,100,155);"/>
            <ellipse cx="126" cy="107.4" rx="2.1" ry="2.3" style="fill:rgb(240,100,155);"/>
            <ellipse cx="129.3" cy="106.5" rx="2.1" ry="2.3" style="fill:rgb(240,100,155);"/>
            <ellipse cx="132.4" cy="106" rx="2.1" ry="2.3" style="fill:rgb(240,100,155);"/>
            <ellipse cx="136.2" cy="104.8" rx="2.1" ry="2.3" style="fill:rgb(240,100,155);"/>
            <ellipse cx="139.9" cy="104.9" rx="2.7" ry="2.9" style="fill:rgb(240,100,155);"/>
            <circle cx="89.4" cy="117.6" r="1.7" style="fill:rgb(240,100,155);"/>
        </g>
        <path d="M70.5,111.1C69.9,110.9 69.5,110.3 69.7,109.7L70.4,106.8C70.6,106.2 71.2,105.8 71.8,106C72.4,106.2 72.8,106.8 72.6,107.4L71.9,110.3C71.7,110.9 71.1,111.3 70.5,111.1Z" style="fill:rgb(127,108,177);fill-rule:nonzero;"/>
        <path d="M98.1,113C97.7,112.5 97.8,111.8 98.3,111.4L100.6,109.6C101.1,109.2 101.8,109.3 102.2,109.8C102.6,110.3 102.5,111 102,111.4L99.7,113.2C99.2,113.6 98.5,113.5 98.1,113Z" style="fill:rgb(127,108,177);fill-rule:nonzero;"/>
        <path d="M81.9,109.2C82.2,108.6 82.9,108.4 83.5,108.7L86.1,110.1C86.7,110.4 86.9,111.1 86.6,111.7C86.3,112.3 85.6,112.5 85,112.2L82.4,110.8C81.8,110.5 81.6,109.8 81.9,109.2Z" style="fill:rgb(213,223,242);fill-rule:nonzero;"/>
        <path d="M34.4,183.1C40,181.5 39.5,179.8 45.1,178.2C50.7,176.6 51.2,178.4 56.8,176.9C62.4,175.3 61.9,173.6 67.5,172C73.1,170.4 73.6,172.2 79.2,170.7C84.8,169.1 84.3,167.4 89.9,165.8C95.5,164.2 96,166 101.6,164.5C107.2,162.9 106.7,161.2 112.3,159.6C117.9,158 118.4,159.8 124,158.3C129.6,156.7 129.1,155 134.7,153.4C139.2,152.1 140.4,153 143.6,152.6L143.6,144.8C140.4,145.2 139.2,144.3 134.7,145.5C129.1,147.1 129.6,148.8 124,150.4C118.4,152 117.9,150.2 112.3,151.7C106.7,153.3 107.2,155 101.6,156.6C96,158.2 95.5,156.4 89.9,157.9C84.3,159.5 84.8,161.2 79.2,162.8C73.6,164.4 73.1,162.6 67.5,164.1C61.9,165.7 62.4,167.4 56.8,169C51.2,170.6 50.7,168.8 45.1,170.3C39.5,171.9 40,173.6 34.4,175.2C29.9,176.5 28.7,175.6 25.5,176L25.5,183.8C28.7,183.4 29.9,184.4 34.4,183.1Z" style="fill:rgb(229,204,173);fill-rule:nonzero;"/>
        <path d="M123.8,161.6C118.2,163.2 117.7,161.4 112.1,162.9C106.5,164.5 113.3,177.5 113.3,177.5L125.5,174.1C125.5,174.2 129.4,160.1 123.8,161.6Z" style="fill:rgb(229,204,173);fill-rule:nonzero;"/>
        <ellipse cx="41.5" cy="191" rx="3.7" ry="4.4" style="fill:rgb(229,204,173);"/>
        <path d="M128.5,103.1C128.7,102.5 129.3,102.1 130,102.3L132.8,103.1C133.4,103.3 133.8,103.9 133.6,104.6C133.4,105.2 132.8,105.6 132.1,105.4L129.3,104.6C128.7,104.4 128.3,103.8 128.5,103.1Z" style="fill:rgb(213,223,242);fill-rule:nonzero;"/>
        <circle cx="36" cy="180" r="0.6" style="fill:rgb(87,59,46);"/>
        <circle cx="45.4" cy="173.4" r="0.6" style="fill:rgb(87,59,46);"/>
        <circle cx="76.3" cy="168.8" r="0.6" style="fill:rgb(87,59,46);"/>
        <circle cx="82.9" cy="163.1" r="0.6" style="fill:rgb(87,59,46);"/>
        <circle cx="101.6" cy="162.2" r="0.6" style="fill:rgb(87,59,46);"/>
        <circle cx="92.2" cy="163.1" r="0.6" style="fill:rgb(87,59,46);"/>
        <circle cx="120.3" cy="153.8" r="0.6" style="fill:rgb(87,59,46);"/>
        <circle cx="112.8" cy="154.7" r="0.6" style="fill:rgb(87,59,46);"/>
        <circle cx="107.2" cy="158.5" r="0.6" style="fill:rgb(87,59,46);"/>
        <circle cx="97.8" cy="160.3" r="0.6" style="fill:rgb(87,59,46);"/>
        <circle cx="80" cy="166.7" r="0.6" style="fill:rgb(87,59,46);"/>
        <circle cx="69.8" cy="169.6" r="0.6" style="fill:rgb(87,59,46);"/>
        <circle cx="60.4" cy="169.8" r="0.6" style="fill:rgb(87,59,46);"/>
        <circle cx="55.8" cy="174.5" r="0.6" style="fill:rgb(87,59,46);"/>
        <circle cx="116.6" cy="156.6" r="0.6" style="fill:rgb(87,59,46);"/>
        <circle cx="139" cy="148.2" r="0.6" style="fill:rgb(87,59,46);"/>
        <circle cx="128.7" cy="151.9" r="0.6" style="fill:rgb(87,59,46);"/>
        <circle cx="70.7" cy="166" r="0.6" style="fill:rgb(87,59,46);"/>
        <circle cx="51.9" cy="172.5" r="0.6" style="fill:rgb(87,59,46);"/>
        <circle cx="32.3" cy="178.1" r="0.6" style="fill:rgb(87,59,46);"/>
    </g>
</svg>
