<?xml version="1.0" encoding="UTF-8" standalone="no"?>
<!DOCTYPE svg PUBLIC "-//W3C//DTD SVG 1.1//EN" "http://www.w3.org/Graphics/SVG/1.1/DTD/svg11.dtd">
<svg width="100%" height="100%" viewBox="0 0 168 250" version="1.1" xmlns="http://www.w3.org/2000/svg" xmlns:xlink="http://www.w3.org/1999/xlink" xml:space="preserve" xmlns:serif="http://www.serif.com/" style="fill-rule:evenodd;clip-rule:evenodd;stroke-linejoin:round;stroke-miterlimit:1.41421;">
    <rect x="-5.7" y="-5.7" width="178.6" height="260.8" style="fill:rgb(252,220,205);"/>
    <circle cx="20.8" cy="39.2" r="2.6" style="fill:rgb(186,48,51);"/>
    <g transform="matrix(1,0,0,1,11.8619,28.6079)">
        <path d="M0.758,0L0.758,-1.055L4.484,-5.195C5.151,-5.94 5.603,-6.531 5.84,-6.969C6.077,-7.406 6.195,-7.854 6.195,-8.313C6.195,-8.88 6.029,-9.358 5.695,-9.746C5.362,-10.134 4.922,-10.328 4.375,-10.328C3.589,-10.328 3.01,-10.128 2.641,-9.727C2.271,-9.326 2.086,-8.758 2.086,-8.023L0.609,-8.023L0.594,-8.07C0.568,-9.049 0.892,-9.872 1.566,-10.539C2.241,-11.206 3.177,-11.539 4.375,-11.539C5.401,-11.539 6.217,-11.241 6.824,-10.645C7.431,-10.048 7.734,-9.289 7.734,-8.367C7.734,-7.747 7.551,-7.128 7.184,-6.508C6.816,-5.888 6.299,-5.219 5.633,-4.5L2.641,-1.242L2.656,-1.203L6.695,-1.203L6.82,-2.508L8.125,-2.508L8.125,0L0.758,0Z" style="fill-rule:nonzero;"/>
        <path d="M17.023,-4.336C17.023,-2.883 16.701,-1.77 16.055,-0.996C15.409,-0.223 14.526,0.164 13.406,0.164C12.292,0.164 11.409,-0.224 10.758,-1C10.107,-1.776 9.781,-2.888 9.781,-4.336L9.781,-7.031C9.781,-8.479 10.104,-9.592 10.75,-10.371C11.396,-11.15 12.276,-11.539 13.391,-11.539C14.51,-11.539 15.396,-11.15 16.047,-10.371C16.698,-9.592 17.023,-8.479 17.023,-7.031L17.023,-4.336ZM15.484,-7.359C15.484,-8.344 15.306,-9.085 14.949,-9.582C14.592,-10.079 14.073,-10.328 13.391,-10.328C12.719,-10.328 12.206,-10.079 11.852,-9.582C11.497,-9.085 11.32,-8.344 11.32,-7.359L11.32,-4.023C11.32,-3.039 11.5,-2.296 11.859,-1.793C12.219,-1.29 12.734,-1.039 13.406,-1.039C14.089,-1.039 14.605,-1.289 14.957,-1.789C15.309,-2.289 15.484,-3.034 15.484,-4.023L15.484,-7.359Z" style="fill-rule:nonzero;"/>
    </g>
    <circle cx="146.4" cy="210.3" r="2.6" style="fill:rgb(186,48,51);"/>
    <g transform="matrix(-1,0,0,-1,155.385,220.843)">
        <path d="M0.758,0L0.758,-1.055L4.484,-5.195C5.151,-5.94 5.603,-6.531 5.84,-6.969C6.077,-7.406 6.195,-7.854 6.195,-8.313C6.195,-8.88 6.029,-9.358 5.695,-9.746C5.362,-10.134 4.922,-10.328 4.375,-10.328C3.589,-10.328 3.01,-10.128 2.641,-9.727C2.271,-9.326 2.086,-8.758 2.086,-8.023L0.609,-8.023L0.594,-8.07C0.568,-9.049 0.892,-9.872 1.566,-10.539C2.241,-11.206 3.177,-11.539 4.375,-11.539C5.401,-11.539 6.217,-11.241 6.824,-10.645C7.431,-10.048 7.734,-9.289 7.734,-8.367C7.734,-7.747 7.551,-7.128 7.184,-6.508C6.816,-5.888 6.299,-5.219 5.633,-4.5L2.641,-1.242L2.656,-1.203L6.695,-1.203L6.82,-2.508L8.125,-2.508L8.125,0L0.758,0Z" style="fill-rule:nonzero;"/>
        <path d="M17.023,-4.336C17.023,-2.883 16.701,-1.77 16.055,-0.996C15.409,-0.223 14.526,0.164 13.406,0.164C12.292,0.164 11.409,-0.224 10.758,-1C10.107,-1.776 9.781,-2.888 9.781,-4.336L9.781,-7.031C9.781,-8.479 10.104,-9.592 10.75,-10.371C11.396,-11.15 12.276,-11.539 13.391,-11.539C14.51,-11.539 15.396,-11.15 16.047,-10.371C16.698,-9.592 17.023,-8.479 17.023,-7.031L17.023,-4.336ZM15.484,-7.359C15.484,-8.344 15.306,-9.085 14.949,-9.582C14.592,-10.079 14.073,-10.328 13.391,-10.328C12.719,-10.328 12.206,-10.079 11.852,-9.582C11.497,-9.085 11.32,-8.344 11.32,-7.359L11.32,-4.023C11.32,-3.039 11.5,-2.296 11.859,-1.793C12.219,-1.29 12.734,-1.039 13.406,-1.039C14.089,-1.039 14.605,-1.289 14.957,-1.789C15.309,-2.289 15.484,-3.034 15.484,-4.023L15.484,-7.359Z" style="fill-rule:nonzero;"/>
    </g>
    <path d="M77.2,102.6C78.1,96.4 66,91.9 63,91.4C58.1,90.7 53.6,94 52.8,98.9C52.1,103.8 55.4,108.3 60.3,109.1C63.4,109.6 76.3,108.9 77.2,102.6Z" style="fill:rgb(234,202,174);fill-rule:nonzero;"/>
    <g>
        <path d="M74.3,103.7C68.6,105.6 69,121.6 70.2,125.1C72.1,130.7 78.2,133.7 83.8,131.8C89.4,129.9 92.4,123.8 90.5,118.2C89.4,114.7 80.2,101.7 74.3,103.7Z" style="fill:rgb(243,226,210);fill-rule:nonzero;"/>
        <path d="M127.4,119.2C130.7,114.8 122.2,102.9 119.5,100.8C115.1,97.5 109,98.4 105.7,102.7C102.4,107.1 103.3,113.2 107.6,116.5C110.3,118.6 124,123.7 127.4,119.2Z" style="fill:rgb(243,226,210);fill-rule:nonzero;"/>
        <path d="M48,98.6C40,98.8 37.4,113.9 37.4,117.7C37.5,123.6 42.3,128.4 48.2,128.3C54.1,128.2 58.9,123.4 58.8,117.5C58.9,113.7 56.3,98.3 48,98.6Z" style="fill:rgb(243,226,210);fill-rule:nonzero;"/>
        <path d="M76.7,102.4C75.8,108.6 85.8,112 88.4,112.5C92.5,113.3 96.5,110.6 97.4,106.5C98.3,102.4 95.5,98.4 91.4,97.5C88.8,97.1 77.6,96.5 76.7,102.4Z" style="fill:white;fill-rule:nonzero;"/>
        <path d="M42.8,122.1C44.7,128.3 61.9,128.5 65.8,127.4C72,125.6 75.5,119.1 73.6,112.9C71.8,106.7 65.3,103.2 59.1,105.1C55.2,106.2 40.8,115.7 42.8,122.1Z" style="fill:white;fill-rule:nonzero;"/>
        <path d="M104.7,101.6C98.4,97.1 87.2,108.1 85.1,111.1C81.7,116 83,122.7 87.9,126C92.8,129.3 99.5,128.1 102.8,123.2C105,120.2 111.7,106.6 104.7,101.6Z" style="fill:rgb(234,202,174);fill-rule:nonzero;"/>
        <path d="M106.7,106.1C100.2,109.6 103.6,123.6 105.1,126.9C107.5,132 113.6,134.3 118.8,131.9C124,129.5 126.2,123.4 123.8,118.2C122.2,114.9 113.4,102.4 106.7,106.1Z" style="fill:white;fill-rule:nonzero;"/>
    </g>
    <g>
        <path d="M129.4,117.7C129.4,116.7 129.4,114 129.4,107.5L129.4,106.7C129.4,80.9 108.4,59.9 82.6,59.9C56.8,59.9 35.8,80.9 35.8,106.7L35.8,143.5C35.8,169.4 56.7,190.3 82.6,190.3C108.5,190.3 129.4,169.3 129.4,143.5C129.4,143.2 129.5,118.1 129.4,117.7ZM40.4,117.7C40.4,116.4 40.4,113 40.4,107.6L40.4,106.8C40.4,83.5 59.3,64.6 82.6,64.6C105.9,64.6 124.8,83.5 124.8,106.8L124.8,117.7L40.4,117.7Z" style="fill:rgb(210,165,146);fill-rule:nonzero;"/>
        <clipPath id="_clip1">
            <path d="M129.4,117.7C129.4,116.7 129.4,114 129.4,107.5L129.4,106.7C129.4,80.9 108.4,59.9 82.6,59.9C56.8,59.9 35.8,80.9 35.8,106.7L35.8,143.5C35.8,169.4 56.7,190.3 82.6,190.3C108.5,190.3 129.4,169.3 129.4,143.5C129.4,143.2 129.5,118.1 129.4,117.7ZM40.4,117.7C40.4,116.4 40.4,113 40.4,107.6L40.4,106.8C40.4,83.5 59.3,64.6 82.6,64.6C105.9,64.6 124.8,83.5 124.8,106.8L124.8,117.7L40.4,117.7Z"/>
        </clipPath>
        <g clip-path="url(#_clip1)">
            <path d="M183.4,111.1L182.3,110L168.9,123.4L165.5,120L178.9,106.6L177.8,105.5L164.4,118.9L161,115.5L174.4,102.1L173.3,101L159.9,114.4L156.5,111L169.9,97.6L168.8,96.5L155.4,109.9L152,106.5L165.3,93L164.2,91.9L150.8,105.3L147.4,101.9L160.8,88.5L159.7,87.4L146.3,100.8L142.9,97.4L156.3,84L155.2,82.9L141.8,96.3L138.4,92.9L151.8,79.5L150.7,78.4L137.3,91.8L133.9,88.4L147.3,75L146.2,73.9L132.8,87.3L129.4,83.9L142.8,70.5L141.7,69.4L128.3,82.8L124.9,79.4L138.3,66L137.2,64.9L123.5,78L120.1,74.6L133.5,61.2L132.4,60.1L119,73.5L115.6,70.1L129,56.7L127.9,55.6L114.4,69L111,65.6L124.4,52.2L123.3,51.1L109.9,64.5L106.5,61.1L119.9,47.7L118.8,46.6L105.4,60L102,56.6L115.4,43.2L114.3,42.1L100.9,55.5L97.5,52.1L110.9,38.7L109.8,37.6L96.3,50.8L92.9,47.4L106.3,34L105.2,32.9L91.8,46.3L88.4,42.9L101.8,29.5L100.7,28.4L87.2,41.7L83.8,38.3L97.2,24.9L96.1,23.8L82.7,37.2L69.3,23.8L68.2,24.9L81.6,38.3L78.2,41.7L64.8,28.3L63.7,29.4L77,42.9L73.6,46.3L60.2,32.9L59.1,34L72.5,47.4L69.1,50.8L55.7,37.4L54.6,38.5L68,51.9L64.6,55.3L51.1,41.9L50,43.1L63.4,56.5L60,59.9L46.6,46.5L45.5,47.6L58.9,61L55.5,64.4L42.1,51L41,52.1L54.4,65.5L51,69L37.5,55.5L36.4,56.6L49.8,70L46.4,73.4L33,60.1L31.9,61.2L45.3,74.6L41.9,78L28.5,64.6L27.4,65.7L40.8,79.1L37.4,82.5L23.9,69.1L22.8,70.2L36.2,83.6L32.8,87L19.4,73.7L18.3,74.8L31.7,88.2L28.3,91.6L14.9,78.2L13.8,79.3L27.2,92.7L23.8,96.1L10.3,82.7L9.2,83.8L22.6,97.2L19.2,100.6L5.8,87.3L4.7,88.4L18.1,101.8L14.7,105.2L1.3,91.8L0.1,93L13.5,106.4L10.1,109.8L-3.3,96.4L-4.4,97.5L9,110.9L5.6,114.3L-7.8,100.9L-8.9,102L4.5,115.4L1.1,118.8L-12.3,105.4L-13.4,106.5L-0.1,120L-3.5,123.4L-16.9,110L-18,111.1L-4.6,124.5L-18,137.9L-16.9,139L-3.5,125.6L-0.1,129L-13.5,142.4L-12.4,143.5L1,130.1L4.4,133.5L-8.9,147L-7.8,148.1L5.6,134.7L9,138.1L-4.4,151.5L-3.3,152.6L10.1,139.2L13.5,142.6L0.1,156.1L1.2,157.2L14.6,143.8L18,147.2L4.7,160.6L5.8,161.7L19.2,148.3L22.6,151.7L9.2,165.1L10.3,166.2L23.7,152.8L27.1,156.2L13.7,169.6L14.8,170.7L28.2,157.3L31.6,160.7L18.2,174.1L19.3,175.2L32.7,161.8L36.1,165.2L22.7,178.6L23.8,179.7L37.2,166.3L40.6,169.7L27.2,183.1L28.3,184.2L41.9,171L45.3,174.4L31.9,187.8L33,189L46.4,175.6L49.8,179L36.4,192.4L37.5,193.5L51,180.1L54.4,183.5L41,196.9L42.1,198L55.5,184.6L58.9,188L45.5,201.4L46.6,202.5L60,189.1L63.4,192.5L50,206L51.1,207.1L64.5,193.7L67.9,197.1L54.5,210.5L55.6,211.6L69,198.2L72.4,201.6L59.1,215L60.2,216.1L73.6,202.7L77,206.1L63.6,219.5L64.7,220.6L78.1,207.2L81.5,210.6L68.1,224L69.2,225.1L82.6,211.7L96,225.1L97.1,224L83.7,210.6L87.1,207.2L100.5,220.6L101.6,219.5L88.2,206.1L91.6,202.7L105,216.1L106.1,215L92.7,201.6L96.1,198.2L109.5,211.6L110.6,210.5L97.2,197.1L100.6,193.7L114,207.1L115.1,206L102,192.5L105.4,189.1L118.8,202.5L119.9,201.4L106.5,188L109.9,184.6L123.3,198L124.4,196.9L111,183.5L114.4,180.1L127.8,193.5L128.9,192.4L115.5,179L118.9,175.6L132.3,189L133.4,187.9L120,174.5L123.4,171.1L136.8,184.5L137.9,183.4L124.5,170L127.9,166.6L141.3,180L142.4,178.9L129,165.5L132.4,162.1L145.8,175.5L146.9,174.4L133.5,161L136.9,157.6L150.3,171L151.4,169.9L138,156.5L141.4,153.1L154.8,166.5L155.9,165.4L142.5,152L145.9,148.6L159.3,162L160.4,160.9L147,147.5L150.4,144.1L163.8,157.5L164.9,156.4L151.5,143L154.9,139.6L168.3,153L169.4,151.9L156,138.5L159.4,135.1L172.8,148.5L173.9,147.4L160.5,134L163.9,130.6L177.3,144L178.4,142.9L165.5,129L168.9,125.6L182.3,139L183.4,137.9L170,124.5L183.4,111.1ZM163.2,120L159.8,123.4L156.4,120L159.8,116.6L163.2,120ZM83.8,120L87.2,116.6L90.6,120L87.2,123.4L83.8,120ZM86.1,124.5L82.7,127.9L79.3,124.5L82.7,121.1L86.1,124.5ZM82.7,118.8L79.3,115.4L82.7,112L86.1,115.4L82.7,118.8ZM81.6,120L78.2,123.4L74.8,120L78.2,116.6L81.6,120ZM77,124.5L73.6,127.9L70.2,124.5L73.6,121.1L77,124.5ZM78.2,125.6L81.6,129L78.2,132.4L74.8,129L78.2,125.6ZM82.7,130.2L86.1,133.6L82.7,137L79.3,133.6L82.7,130.2ZM83.8,129L87.2,125.6L90.6,129L87.2,132.4L83.8,129ZM88.4,124.5L91.8,121.1L95.2,124.5L91.8,127.9L88.4,124.5ZM92.9,120L96.3,116.6L99.7,120L96.3,123.4L92.9,120ZM91.8,118.8L88.4,115.4L91.8,112L95.2,115.4L91.8,118.8ZM87.2,114.3L83.8,110.9L87.2,107.5L90.6,110.9L87.2,114.3ZM82.7,109.8L79.3,106.4L82.7,103L86.1,106.4L82.7,109.8ZM81.6,110.9L78.2,114.3L74.8,110.9L78.2,107.5L81.6,110.9ZM77,115.4L73.6,118.8L70.2,115.4L73.6,112L77,115.4ZM72.5,120L69.1,123.4L65.7,120L69.1,116.6L72.5,120ZM68,124.5L64.6,127.9L61.2,124.5L64.6,121.1L68,124.5ZM69.1,125.6L72.5,129L69.1,132.4L65.7,129L69.1,125.6ZM73.6,130.2L77,133.6L73.6,137L70.2,133.6L73.6,130.2ZM78.2,134.7L81.6,138.1L78.2,141.5L74.8,138.1L78.2,134.7ZM82.7,139.3L86.1,142.7L82.7,146.1L79.3,142.7L82.7,139.3ZM83.8,138.1L87.2,134.7L90.6,138.1L87.2,141.5L83.8,138.1ZM88.4,133.6L91.8,130.2L95.2,133.6L91.8,137L88.4,133.6ZM92.9,129L96.3,125.6L99.7,129L96.3,132.4L92.9,129ZM97.4,124.5L100.8,121.1L104.2,124.5L100.8,127.9L97.4,124.5ZM102,120L105.4,116.6L108.8,120L105.4,123.4L102,120ZM100.8,118.8L97.4,115.4L100.8,112L104.2,115.4L100.8,118.8ZM96.3,114.3L92.9,110.9L96.3,107.5L99.7,110.9L96.3,114.3ZM91.8,109.8L88.4,106.4L91.8,103L95.2,106.4L91.8,109.8ZM87.2,105.2L83.8,101.8L87.2,98.4L90.6,101.8L87.2,105.2ZM82.7,100.7L79.3,97.3L82.7,93.9L86.1,97.3L82.7,100.7ZM81.6,101.8L78.2,105.2L74.8,101.8L78.2,98.4L81.6,101.8ZM77,106.4L73.6,109.8L70.2,106.4L73.6,103L77,106.4ZM72.5,110.9L69.1,114.3L65.7,110.9L69.1,107.5L72.5,110.9ZM68,115.4L64.6,118.8L61.2,115.4L64.6,112L68,115.4ZM63.4,120L60,123.4L56.6,120L60,116.6L63.4,120ZM58.9,124.5L55.5,127.9L52.1,124.5L55.5,121.1L58.9,124.5ZM60,125.6L63.4,129L60,132.4L56.6,129L60,125.6ZM64.6,130.2L68,133.6L64.6,137L61.2,133.6L64.6,130.2ZM69.1,134.7L72.5,138.1L69.1,141.5L65.7,138.1L69.1,134.7ZM73.6,139.3L77,142.7L73.6,146.1L70.2,142.7L73.6,139.3ZM78.2,143.8L81.6,147.2L78.2,150.6L74.8,147.2L78.2,143.8ZM82.7,148.3L86.1,151.7L82.7,155.1L79.3,151.7L82.7,148.3ZM83.8,147.2L87.2,143.8L90.6,147.2L87.2,150.6L83.8,147.2ZM88.4,142.7L91.8,139.3L95.2,142.7L91.8,146.1L88.4,142.7ZM92.9,138.1L96.3,134.7L99.7,138.1L96.3,141.5L92.9,138.1ZM97.4,133.6L100.8,130.2L104.2,133.6L100.8,137L97.4,133.6ZM102,129L105.4,125.6L108.8,129L105.4,132.4L102,129ZM106.5,124.5L109.9,121.1L113.3,124.5L109.9,127.9L106.5,124.5ZM111,120L114.4,116.6L117.8,120L114.4,123.4L111,120ZM109.9,118.8L106.5,115.4L109.9,112L113.3,115.4L109.9,118.8ZM105.4,114.3L102,110.9L105.4,107.5L108.8,110.9L105.4,114.3ZM100.8,109.8L97.4,106.4L100.8,103L104.2,106.4L100.8,109.8ZM96.3,105.2L92.9,101.8L96.3,98.4L99.7,101.8L96.3,105.2ZM91.8,100.7L88.4,97.3L91.8,93.9L95.2,97.3L91.8,100.7ZM87.2,96.2L83.8,92.8L87.2,89.4L90.6,92.8L87.2,96.2ZM82.7,91.6L79.3,88.2L82.7,84.8L86.1,88.2L82.7,91.6ZM81.6,92.8L78.2,96.2L74.8,92.8L78.2,89.4L81.6,92.8ZM77,97.3L73.6,100.7L70.2,97.3L73.6,93.9L77,97.3ZM72.5,101.8L69.1,105.2L65.7,101.8L69.1,98.4L72.5,101.8ZM68,106.4L64.6,109.8L61.2,106.4L64.6,103L68,106.4ZM63.4,110.9L60,114.3L56.6,110.9L60,107.5L63.4,110.9ZM58.9,115.4L55.5,118.8L52.1,115.4L55.5,112L58.9,115.4ZM54.4,120L51,123.4L47.6,120L51,116.6L54.4,120ZM49.8,124.5L46.4,127.9L43,124.5L46.4,121.1L49.8,124.5ZM51,125.6L54.4,129L51,132.4L47.6,129L51,125.6ZM55.5,130.2L58.9,133.6L55.5,137L52.1,133.6L55.5,130.2ZM60,134.7L63.4,138.1L60,141.5L56.6,138.1L60,134.7ZM64.6,139.3L68,142.7L64.6,146.1L61.2,142.7L64.6,139.3ZM69.1,143.8L72.5,147.2L69.1,150.6L65.7,147.2L69.1,143.8ZM73.6,148.3L77,151.7L73.6,155.1L70.2,151.7L73.6,148.3ZM78.2,152.9L81.6,156.3L78.2,159.7L74.8,156.3L78.2,152.9ZM82.7,157.4L86.1,160.8L82.7,164.2L79.3,160.8L82.7,157.4ZM83.8,156.3L87.2,152.9L90.6,156.3L87.2,159.7L83.8,156.3ZM88.4,151.7L91.8,148.3L95.2,151.7L91.8,155.1L88.4,151.7ZM92.9,147.2L96.3,143.8L99.7,147.2L96.3,150.6L92.9,147.2ZM97.4,142.7L100.8,139.3L104.2,142.7L100.8,146.1L97.4,142.7ZM102,138.1L105.4,134.7L108.8,138.1L105.4,141.5L102,138.1ZM106.5,133.6L109.9,130.2L113.3,133.6L109.9,137L106.5,133.6ZM111,129L114.4,125.6L117.8,129L114.4,132.4L111,129ZM115.6,124.5L119,121.1L122.4,124.5L119,127.9L115.6,124.5ZM120.1,120L123.5,116.6L126.9,120L123.5,123.4L120.1,120ZM119,118.8L115.6,115.4L119,112L122.4,115.4L119,118.8ZM114.4,114.3L111,110.9L114.4,107.5L117.8,110.9L114.4,114.3ZM109.9,109.8L106.5,106.4L109.9,103L113.3,106.4L109.9,109.8ZM105.4,105.2L102,101.8L105.4,98.4L108.8,101.8L105.4,105.2ZM100.8,100.7L97.4,97.3L100.8,93.9L104.2,97.3L100.8,100.7ZM96.3,96.2L92.9,92.8L96.3,89.4L99.7,92.8L96.3,96.2ZM91.8,91.6L88.4,88.2L91.8,84.8L95.2,88.2L91.8,91.6ZM87.2,87.1L83.8,83.7L87.2,80.3L90.6,83.7L87.2,87.1ZM82.7,82.6L79.3,79.2L82.7,75.8L86.1,79.2L82.7,82.6ZM81.6,83.7L78.2,87.1L74.8,83.7L78.2,80.3L81.6,83.7ZM77,88.2L73.6,91.6L70.2,88.2L73.6,84.8L77,88.2ZM72.5,92.8L69.1,96.2L65.7,92.8L69.1,89.4L72.5,92.8ZM68,97.3L64.6,100.7L61.2,97.3L64.6,93.9L68,97.3ZM63.4,101.8L60,105.2L56.6,101.8L60,98.4L63.4,101.8ZM58.9,106.4L55.5,109.8L52.1,106.4L55.5,103L58.9,106.4ZM54.4,110.9L51,114.3L47.6,110.9L51,107.5L54.4,110.9ZM49.8,115.4L46.4,118.8L43,115.4L46.4,112L49.8,115.4ZM45.3,120L41.9,123.4L38.5,120L41.9,116.6L45.3,120ZM40.8,124.5L37.4,127.9L34,124.5L37.4,121.1L40.8,124.5ZM41.9,125.6L45.3,129L41.9,132.4L38.5,129L41.9,125.6ZM46.4,130.2L49.8,133.6L46.4,137L43,133.6L46.4,130.2ZM51,134.7L54.4,138.1L51,141.5L47.6,138.1L51,134.7ZM55.5,139.3L58.9,142.7L55.5,146.1L52.1,142.7L55.5,139.3ZM60,143.8L63.4,147.2L60,150.6L56.6,147.2L60,143.8ZM64.6,148.3L68,151.7L64.6,155.1L61.2,151.7L64.6,148.3ZM69.1,152.9L72.5,156.3L69.1,159.7L65.7,156.3L69.1,152.9ZM73.6,157.4L77,160.8L73.6,164.2L70.2,160.8L73.6,157.4ZM78.2,161.9L81.6,165.3L78.2,168.7L74.8,165.3L78.2,161.9ZM82.7,166.5L86.1,169.9L82.7,173.3L79.3,169.9L82.7,166.5ZM83.8,165.3L87.2,161.9L90.6,165.3L87.2,168.7L83.8,165.3ZM88.4,160.8L91.8,157.4L95.2,160.8L91.8,164.2L88.4,160.8ZM92.9,156.3L96.3,152.9L99.7,156.3L96.3,159.7L92.9,156.3ZM97.4,151.7L100.8,148.3L104.2,151.7L100.8,155.1L97.4,151.7ZM102,147.2L105.4,143.8L108.8,147.2L105.4,150.6L102,147.2ZM106.5,142.7L109.9,139.3L113.3,142.7L109.9,146.1L106.5,142.7ZM111,138.1L114.4,134.7L117.8,138.1L114.4,141.5L111,138.1ZM115.6,133.6L119,130.2L122.4,133.6L119,137L115.6,133.6ZM120.1,129L123.5,125.6L126.9,129L123.5,132.4L120.1,129ZM124.7,124.5L128.1,121.1L131.5,124.5L128.1,127.9L124.7,124.5ZM129.2,120L132.6,116.6L136,120L132.6,123.4L129.2,120ZM128.1,118.8L124.7,115.4L128.1,112L131.5,115.4L128.1,118.8ZM123.5,114.3L120.1,110.9L123.5,107.5L126.9,110.9L123.5,114.3ZM119,109.8L115.6,106.4L119,103L122.4,106.4L119,109.8ZM114.4,105.2L111,101.8L114.4,98.4L117.8,101.8L114.4,105.2ZM109.9,100.7L106.5,97.3L109.9,93.9L113.3,97.3L109.9,100.7ZM105.4,96.2L102,92.8L105.4,89.4L108.8,92.8L105.4,96.2ZM100.8,91.6L97.4,88.2L100.8,84.8L104.2,88.2L100.8,91.6ZM96.3,87.1L92.9,83.7L96.3,80.3L99.7,83.7L96.3,87.1ZM91.8,82.6L88.4,79.2L91.8,75.8L95.2,79.2L91.8,82.6ZM87.2,78L83.8,74.6L87.2,71.2L90.6,74.6L87.2,78ZM82.7,73.5L79.3,70.1L82.7,66.7L86.1,70.1L82.7,73.5ZM81.6,74.6L78.2,78L74.8,74.6L78.2,71.2L81.6,74.6ZM77,79.2L73.6,82.6L70.2,79.2L73.6,75.8L77,79.2ZM72.5,83.7L69.1,87.1L65.7,83.7L69.1,80.3L72.5,83.7ZM68,88.2L64.6,91.6L61.2,88.2L64.6,84.8L68,88.2ZM63.4,92.8L60,96.2L56.6,92.8L60,89.4L63.4,92.8ZM58.9,97.3L55.5,100.7L52.1,97.3L55.5,93.9L58.9,97.3ZM54.4,101.8L51,105.2L47.6,101.8L51,98.4L54.4,101.8ZM49.8,106.4L46.4,109.8L43,106.4L46.4,103L49.8,106.4ZM45.3,110.9L41.9,114.3L38.5,110.9L41.9,107.5L45.3,110.9ZM40.8,115.4L37.4,118.8L34,115.4L37.4,112L40.8,115.4ZM36.2,120L32.8,123.4L29.4,120L32.8,116.6L36.2,120ZM31.7,124.5L28.3,127.9L24.9,124.5L28.3,121.1L31.7,124.5ZM32.8,125.6L36.2,129L32.8,132.4L29.4,129L32.8,125.6ZM37.3,130.2L40.7,133.6L37.3,137L33.9,133.6L37.3,130.2ZM41.9,134.7L45.3,138.1L41.9,141.5L38.5,138.1L41.9,134.7ZM46.4,139.3L49.8,142.7L46.4,146.1L43,142.7L46.4,139.3ZM51,143.8L54.4,147.2L51,150.6L47.6,147.2L51,143.8ZM55.5,148.3L58.9,151.7L55.5,155.1L52.1,151.7L55.5,148.3ZM60,152.9L63.4,156.3L60,159.7L56.6,156.3L60,152.9ZM64.6,157.4L68,160.8L64.6,164.2L61.2,160.8L64.6,157.4ZM69.1,161.9L72.5,165.3L69.1,168.7L65.7,165.3L69.1,161.9ZM73.6,166.5L77,169.9L73.6,173.3L70.2,169.9L73.6,166.5ZM78.2,171L81.6,174.4L78.2,177.8L74.8,174.4L78.2,171ZM82.7,175.5L86.1,178.9L82.7,182.3L79.3,178.9L82.7,175.5ZM83.8,174.4L87.2,171L90.6,174.4L87.2,177.8L83.8,174.4ZM88.4,169.9L91.8,166.5L95.2,169.9L91.8,173.3L88.4,169.9ZM92.9,165.3L96.3,161.9L99.7,165.3L96.3,168.7L92.9,165.3ZM97.4,160.8L100.8,157.4L104.2,160.8L100.8,164.2L97.4,160.8ZM102,156.3L105.4,152.9L108.8,156.3L105.4,159.7L102,156.3ZM106.5,151.7L109.9,148.3L113.3,151.7L109.9,155.1L106.5,151.7ZM111,147.2L114.4,143.8L117.8,147.2L114.4,150.6L111,147.2ZM115.6,142.7L119,139.3L122.4,142.7L119,146.1L115.6,142.7ZM120.1,138.1L123.5,134.7L126.9,138.1L123.5,141.5L120.1,138.1ZM124.7,133.6L128.1,130.2L131.5,133.6L128.1,137L124.7,133.6ZM129.2,129L132.6,125.6L136,129L132.6,132.4L129.2,129ZM133.7,124.5L137.1,121.1L140.5,124.5L137.1,127.9L133.7,124.5ZM138.3,120L141.7,116.6L145.1,120L141.7,123.4L138.3,120ZM137.1,118.8L133.7,115.4L137.1,112L140.5,115.4L137.1,118.8ZM132.6,114.3L129.2,110.9L132.6,107.5L136,110.9L132.6,114.3ZM128.1,109.8L124.7,106.4L128.1,103L131.5,106.4L128.1,109.8ZM123.5,105.2L120.1,101.8L123.5,98.4L126.9,101.8L123.5,105.2ZM119,100.7L115.6,97.3L119,93.9L122.4,97.3L119,100.7ZM114.4,96.2L111,92.8L114.4,89.4L117.8,92.8L114.4,96.2ZM109.9,91.6L106.5,88.2L109.9,84.8L113.3,88.2L109.9,91.6ZM105.4,87.1L102,83.7L105.4,80.3L108.8,83.7L105.4,87.1ZM100.8,82.6L97.4,79.2L100.8,75.8L104.2,79.2L100.8,82.6ZM96.3,78L92.9,74.6L96.3,71.2L99.7,74.6L96.3,78ZM91.8,73.5L88.4,70.1L91.8,66.7L95.2,70.1L91.8,73.5ZM87.2,69L83.8,65.6L87.2,62.2L90.6,65.6L87.2,69ZM82.7,64.4L79.3,61L82.7,57.6L86.1,61L82.7,64.4ZM81.6,65.6L78.2,69L74.8,65.6L78.2,62.2L81.6,65.6ZM77,70.1L73.6,73.5L70.2,70.1L73.6,66.7L77,70.1ZM72.5,74.6L69.1,78L65.7,74.6L69.1,71.2L72.5,74.6ZM68,79.2L64.6,82.6L61.2,79.2L64.6,75.8L68,79.2ZM63.4,83.7L60,87.1L56.6,83.7L60,80.3L63.4,83.7ZM58.9,88.2L55.5,91.6L52.1,88.2L55.5,84.8L58.9,88.2ZM54.4,92.8L51,96.2L47.6,92.8L51,89.4L54.4,92.8ZM49.8,97.3L46.4,100.7L43,97.3L46.4,93.9L49.8,97.3ZM45.3,101.8L41.9,105.2L38.5,101.8L41.9,98.4L45.3,101.8ZM40.8,106.4L37.4,109.8L34,106.4L37.4,103L40.8,106.4ZM36.2,110.9L32.8,114.3L29.4,110.9L32.8,107.5L36.2,110.9ZM31.7,115.4L28.3,118.8L24.9,115.4L28.3,112L31.7,115.4ZM27.1,120L23.7,123.4L20.3,120L23.7,116.6L27.1,120ZM22.6,124.5L19.2,127.9L15.8,124.5L19.2,121.1L22.6,124.5ZM23.7,125.6L27.1,129L23.7,132.4L20.3,129L23.7,125.6ZM28.3,130.2L31.7,133.6L28.3,137L24.9,133.6L28.3,130.2ZM32.8,134.7L36.2,138.1L32.8,141.5L29.4,138.1L32.8,134.7ZM37.3,139.3L40.7,142.7L37.3,146.1L33.9,142.7L37.3,139.3ZM41.9,143.8L45.3,147.2L41.9,150.6L38.5,147.2L41.9,143.8ZM46.4,148.3L49.8,151.7L46.4,155.1L43,151.7L46.4,148.3ZM51,152.9L54.4,156.3L51,159.7L47.6,156.3L51,152.9ZM55.5,157.4L58.9,160.8L55.5,164.2L52.1,160.8L55.5,157.4ZM60,161.9L63.4,165.3L60,168.7L56.6,165.3L60,161.9ZM64.6,166.5L68,169.9L64.6,173.3L61.2,169.9L64.6,166.5ZM69.1,171L72.5,174.4L69.1,177.8L65.7,174.4L69.1,171ZM73.6,175.5L77,178.9L73.6,182.3L70.2,178.9L73.6,175.5ZM78.2,180.1L81.6,183.5L78.2,186.9L74.8,183.5L78.2,180.1ZM82.7,184.6L86.1,188L82.7,191.4L79.3,188L82.7,184.6ZM83.8,183.5L87.2,180.1L90.6,183.5L87.2,186.9L83.8,183.5ZM88.4,178.9L91.8,175.5L95.2,178.9L91.8,182.3L88.4,178.9ZM92.9,174.4L96.3,171L99.7,174.4L96.3,177.8L92.9,174.4ZM97.4,169.9L100.8,166.5L104.2,169.9L100.8,173.3L97.4,169.9ZM102,165.3L105.4,161.9L108.8,165.3L105.4,168.7L102,165.3ZM106.5,160.8L109.9,157.4L113.3,160.8L109.9,164.2L106.5,160.8ZM111,156.3L114.4,152.9L117.8,156.3L114.4,159.7L111,156.3ZM115.6,151.7L119,148.3L122.4,151.7L119,155.1L115.6,151.7ZM120.1,147.2L123.5,143.8L126.9,147.2L123.5,150.6L120.1,147.2ZM124.7,142.7L128.1,139.3L131.5,142.7L128.1,146.1L124.7,142.7ZM129.2,138.1L132.6,134.7L136,138.1L132.6,141.5L129.2,138.1ZM133.7,133.6L137.1,130.2L140.5,133.6L137.1,137L133.7,133.6ZM138.3,129L141.7,125.6L145.1,129L141.7,132.4L138.3,129ZM142.8,124.5L146.2,121.1L149.6,124.5L146.2,127.9L142.8,124.5ZM147.3,120L150.7,116.6L154.1,120L150.7,123.4L147.3,120ZM146.2,118.8L142.8,115.4L146.2,112L149.6,115.4L146.2,118.8ZM141.7,114.3L138.3,110.9L141.7,107.5L145.1,110.9L141.7,114.3ZM137.1,109.8L133.7,106.4L137.1,103L140.5,106.4L137.1,109.8ZM132.6,105.2L129.2,101.8L132.6,98.4L136,101.8L132.6,105.2ZM128.1,100.7L124.7,97.3L128.1,93.9L131.5,97.3L128.1,100.7ZM123.5,96.2L120.1,92.8L123.5,89.4L126.9,92.8L123.5,96.2ZM119,91.6L115.6,88.2L119,84.8L122.4,88.2L119,91.6ZM114.4,87.1L111,83.7L114.4,80.3L117.8,83.7L114.4,87.1ZM109.9,82.6L106.5,79.2L109.9,75.8L113.3,79.2L109.9,82.6ZM105.4,78L102,74.6L105.4,71.2L108.8,74.6L105.4,78ZM100.8,73.5L97.4,70.1L100.8,66.7L104.2,70.1L100.8,73.5ZM96.3,69L92.9,65.6L96.3,62.2L99.7,65.6L96.3,69ZM91.8,64.4L88.4,61L91.8,57.6L95.2,61L91.8,64.4ZM87.2,59.9L83.8,56.5L87.2,53.1L90.6,56.5L87.2,59.9ZM82.7,55.3L79.3,51.9L82.7,48.5L86.1,51.9L82.7,55.3ZM81.6,56.5L78.2,59.9L74.8,56.5L78.2,53.1L81.6,56.5ZM77,61L73.6,64.4L70.2,61L73.6,57.6L77,61ZM72.5,65.6L69.1,69L65.7,65.6L69.1,62.2L72.5,65.6ZM68,70.1L64.6,73.5L61.2,70.1L64.6,66.7L68,70.1ZM63.4,74.6L60,78L56.6,74.6L60,71.2L63.4,74.6ZM58.9,79.2L55.5,82.6L52.1,79.2L55.5,75.8L58.9,79.2ZM54.4,83.7L51,87.1L47.6,83.7L51,80.3L54.4,83.7ZM49.8,88.2L46.4,91.6L43,88.2L46.4,84.8L49.8,88.2ZM45.3,92.8L41.9,96.2L38.5,92.8L41.9,89.4L45.3,92.8ZM40.8,97.3L37.4,100.7L34,97.3L37.4,93.9L40.8,97.3ZM36.2,101.8L32.8,105.2L29.4,101.8L32.8,98.4L36.2,101.8ZM31.7,106.4L28.3,109.8L24.9,106.4L28.3,103L31.7,106.4ZM27.1,110.9L23.7,114.3L20.3,110.9L23.7,107.5L27.1,110.9ZM22.6,115.4L19.2,118.8L15.8,115.4L19.2,112L22.6,115.4ZM18.1,120L14.7,123.4L11.3,120L14.7,116.6L18.1,120ZM13.5,124.5L10.1,127.9L6.7,124.5L10.1,121.1L13.5,124.5ZM14.7,125.6L18.1,129L14.7,132.4L11.3,129L14.7,125.6ZM19.2,130.2L22.6,133.6L19.2,137L15.8,133.6L19.2,130.2ZM23.7,134.7L27.1,138.1L23.7,141.5L20.3,138.1L23.7,134.7ZM28.3,139.3L31.7,142.7L28.3,146.1L24.9,142.7L28.3,139.3ZM32.8,143.8L36.2,147.2L32.8,150.6L29.4,147.2L32.8,143.8ZM37.3,148.3L40.7,151.7L37.3,155.1L33.9,151.7L37.3,148.3ZM41.9,152.9L45.3,156.3L41.9,159.7L38.5,156.3L41.9,152.9ZM46.4,157.4L49.8,160.8L46.4,164.2L43,160.8L46.4,157.4ZM51,161.9L54.4,165.3L51,168.7L47.6,165.3L51,161.9ZM55.5,166.5L58.9,169.9L55.5,173.3L52.1,169.9L55.5,166.5ZM60,171L63.4,174.4L60,177.8L56.6,174.4L60,171ZM64.6,175.5L68,178.9L64.6,182.3L61.2,178.9L64.6,175.5ZM69.1,180.1L72.5,183.5L69.1,186.9L65.7,183.5L69.1,180.1ZM73.6,184.6L77,188L73.6,191.4L70.2,188L73.6,184.6ZM78.2,189.1L81.6,192.5L78.2,195.9L74.8,192.5L78.2,189.1ZM82.7,193.7L86.1,197.1L82.7,200.5L79.3,197.1L82.7,193.7ZM83.8,192.5L87.2,189.1L90.6,192.5L87.2,195.9L83.8,192.5ZM88.4,188L91.8,184.6L95.2,188L91.8,191.4L88.4,188ZM92.9,183.5L96.3,180.1L99.7,183.5L96.3,186.9L92.9,183.5ZM97.4,178.9L100.8,175.5L104.2,178.9L100.8,182.3L97.4,178.9ZM102,174.4L105.4,171L108.8,174.4L105.4,177.8L102,174.4ZM106.5,169.9L109.9,166.5L113.3,169.9L109.9,173.3L106.5,169.9ZM111,165.3L114.4,161.9L117.8,165.3L114.4,168.7L111,165.3ZM115.6,160.8L119,157.4L122.4,160.8L119,164.2L115.6,160.8ZM120.1,156.3L123.5,152.9L126.9,156.3L123.5,159.7L120.1,156.3ZM124.7,151.7L128.1,148.3L131.5,151.7L128.1,155.1L124.7,151.7ZM129.2,147.2L132.6,143.8L136,147.2L132.6,150.6L129.2,147.2ZM133.7,142.7L137.1,139.3L140.5,142.7L137.1,146.1L133.7,142.7ZM138.3,138.1L141.7,134.7L145.1,138.1L141.7,141.5L138.3,138.1ZM142.8,133.6L146.2,130.2L149.6,133.6L146.2,137L142.8,133.6ZM147.3,129L150.7,125.6L154.1,129L150.7,132.4L147.3,129ZM151.9,124.5L155.3,121.1L158.7,124.5L155.3,127.9L151.9,124.5ZM158.7,115.4L155.3,118.8L151.9,115.4L155.3,112L158.7,115.4ZM154.1,110.9L150.7,114.3L147.3,110.9L150.7,107.5L154.1,110.9ZM149.6,106.4L146.2,109.8L142.8,106.4L146.2,103L149.6,106.4ZM145.1,101.8L141.7,105.2L138.3,101.8L141.7,98.4L145.1,101.8ZM140.5,97.3L137.1,100.7L133.7,97.3L137.1,93.9L140.5,97.3ZM136,92.8L132.6,96.2L129.2,92.8L132.6,89.4L136,92.8ZM131.5,88.2L128.1,91.6L124.7,88.2L128.1,84.8L131.5,88.2ZM126.9,83.7L123.5,87.1L120.1,83.7L123.5,80.3L126.9,83.7ZM122.4,79.2L119,82.6L115.6,79.2L119,75.8L122.4,79.2ZM117.9,74.6L114.5,78L111.1,74.6L114.5,71.2L117.9,74.6ZM113.3,70.1L109.9,73.5L106.5,70.1L109.9,66.7L113.3,70.1ZM108.8,65.6L105.4,69L102,65.6L105.4,62.2L108.8,65.6ZM104.2,61L100.8,64.4L97.4,61L100.8,57.6L104.2,61ZM99.7,56.5L96.3,59.9L92.9,56.5L96.3,53.1L99.7,56.5ZM95.2,51.9L91.8,55.3L88.4,51.9L91.8,48.5L95.2,51.9ZM90.6,47.4L87.2,50.8L83.8,47.4L87.2,44L90.6,47.4ZM82.7,39.5L86.1,42.9L82.7,46.3L79.3,42.9L82.7,39.5ZM78.2,44L81.6,47.4L78.2,50.8L74.8,47.4L78.2,44ZM73.6,48.5L77,51.9L73.6,55.3L70.2,51.9L73.6,48.5ZM69.1,53.1L72.5,56.5L69.1,59.9L65.7,56.5L69.1,53.1ZM64.6,57.6L68,61L64.6,64.4L61.2,61L64.6,57.6ZM60,62.2L63.4,65.6L60,69L56.6,65.6L60,62.2ZM55.5,66.7L58.9,70.1L55.5,73.5L52.1,70.1L55.5,66.7ZM51,71.2L54.4,74.6L51,78L47.6,74.6L51,71.2ZM46.4,75.8L49.8,79.2L46.4,82.6L43,79.2L46.4,75.8ZM41.9,80.3L45.3,83.7L41.9,87.1L38.5,83.7L41.9,80.3ZM37.3,84.8L40.7,88.2L37.3,91.6L33.9,88.2L37.3,84.8ZM32.8,89.4L36.2,92.8L32.8,96.2L29.4,92.8L32.8,89.4ZM28.3,93.9L31.7,97.3L28.3,100.7L24.9,97.3L28.3,93.9ZM23.7,98.4L27.1,101.8L23.7,105.2L20.3,101.8L23.7,98.4ZM19.2,103L22.6,106.4L19.2,109.8L15.8,106.4L19.2,103ZM14.7,107.5L18.1,110.9L14.7,114.3L11.3,110.9L14.7,107.5ZM10.1,112L13.5,115.4L10.1,118.8L6.7,115.4L10.1,112ZM5.6,116.6L9,120L5.6,123.4L2.2,120L5.6,116.6ZM-2.3,124.5L1.1,121.1L4.5,124.5L1.1,127.9L-2.3,124.5ZM2.2,129L5.6,125.6L9,129L5.6,132.4L2.2,129ZM6.7,133.6L10.1,130.2L13.5,133.6L10.1,137L6.7,133.6ZM11.3,138.1L14.7,134.7L18.1,138.1L14.7,141.5L11.3,138.1ZM15.8,142.7L19.2,139.3L22.6,142.7L19.2,146.1L15.8,142.7ZM20.3,147.2L23.7,143.8L27.1,147.2L23.7,150.6L20.3,147.2ZM24.9,151.7L28.3,148.3L31.7,151.7L28.3,155.1L24.9,151.7ZM29.4,156.3L32.8,152.9L36.2,156.3L32.8,159.7L29.4,156.3ZM33.9,160.8L37.3,157.4L40.7,160.8L37.3,164.2L33.9,160.8ZM38.5,165.3L41.9,161.9L45.3,165.3L41.9,168.7L38.5,165.3ZM43,169.9L46.4,166.5L49.8,169.9L46.4,173.3L43,169.9ZM47.6,174.4L51,171L54.4,174.4L51,177.8L47.6,174.4ZM52.1,178.9L55.5,175.5L58.9,178.9L55.5,182.3L52.1,178.9ZM56.6,183.5L60,180.1L63.4,183.5L60,186.9L56.6,183.5ZM61.2,188L64.6,184.6L68,188L64.6,191.4L61.2,188ZM65.7,192.5L69.1,189.1L72.5,192.5L69.1,195.9L65.7,192.5ZM70.2,197.1L73.6,193.7L77,197.1L73.6,200.5L70.2,197.1ZM74.8,201.6L78.2,198.2L81.6,201.6L78.2,205L74.8,201.6ZM82.7,209.5L79.3,206.1L82.7,202.7L86.1,206.1L82.7,209.5ZM87.2,205L83.8,201.6L87.2,198.2L90.6,201.6L87.2,205ZM91.8,200.5L88.4,197.1L91.8,193.7L95.2,197.1L91.8,200.5ZM96.3,195.9L92.9,192.5L96.3,189.1L99.7,192.5L96.3,195.9ZM100.8,191.4L97.4,188L100.8,184.6L104.2,188L100.8,191.4ZM105.4,186.9L102,183.5L105.4,180.1L108.8,183.5L105.4,186.9ZM109.9,182.3L106.5,178.9L109.9,175.5L113.3,178.9L109.9,182.3ZM114.4,177.8L111,174.4L114.4,171L117.8,174.4L114.4,177.8ZM119,173.3L115.6,169.9L119,166.5L122.4,169.9L119,173.3ZM123.5,168.7L120.1,165.3L123.5,161.9L126.9,165.3L123.5,168.7ZM128.1,164.2L124.7,160.8L128.1,157.4L131.5,160.8L128.1,164.2ZM132.6,159.7L129.2,156.3L132.6,152.9L136,156.3L132.6,159.7ZM137.1,155.1L133.7,151.7L137.1,148.3L140.5,151.7L137.1,155.1ZM141.7,150.6L138.3,147.2L141.7,143.8L145.1,147.2L141.7,150.6ZM146.2,146.1L142.8,142.7L146.2,139.3L149.6,142.7L146.2,146.1ZM150.7,141.5L147.3,138.1L150.7,134.7L154.1,138.1L150.7,141.5ZM155.3,137L151.9,133.6L155.3,130.2L158.7,133.6L155.3,137ZM159.8,132.4L156.4,129L159.8,125.6L163.2,129L159.8,132.4ZM164.3,127.9L160.9,124.5L164.3,121.1L167.7,124.5L164.3,127.9Z" style="fill:rgb(178,100,75);fill-opacity:0.2;fill-rule:nonzero;"/>
        </g>
    </g>
    <g transform="matrix(1,0,0,1,20.3374,169.264)">
        <path d="M5.952,0L5.952,-3.032L32.737,-33.916C37.828,-39.793 41.543,-44.866 43.883,-49.133C46.223,-53.401 47.393,-57.35 47.393,-60.981C47.393,-66.934 45.745,-71.576 42.451,-74.907C39.157,-78.239 34.347,-79.905 28.02,-79.905C21.319,-79.905 16.134,-77.939 12.466,-74.009C8.797,-70.078 6.963,-64.987 6.963,-58.735L4.38,-58.735L4.268,-59.072C4.08,-65.698 6.167,-71.332 10.529,-75.974C14.89,-80.616 20.72,-82.937 28.02,-82.937C34.796,-82.937 40.233,-81.018 44.332,-77.181C48.431,-73.344 50.481,-67.944 50.481,-60.981C50.481,-56.452 49.012,-51.829 46.073,-47.112C43.134,-42.395 38.988,-36.911 33.635,-30.659L10.22,-3.313L10.332,-3.032L51.829,-3.032L51.829,-16.453L54.861,-16.453L54.861,0L5.952,0Z" style="fill-rule:nonzero;"/>
        <path d="M118.594,-32.231C118.594,-21.563 116.432,-13.327 112.108,-7.524C107.784,-1.722 101.673,1.179 93.774,1.179C85.876,1.179 79.736,-1.731 75.356,-7.552C70.977,-13.374 68.787,-21.6 68.787,-32.231L68.787,-49.526C68.787,-60.158 70.958,-68.384 75.3,-74.205C79.643,-80.026 85.763,-82.937 93.662,-82.937C101.561,-82.937 107.691,-80.026 112.052,-74.205C116.413,-68.384 118.594,-60.158 118.594,-49.526L118.594,-32.231ZM115.562,-49.526C115.562,-59.035 113.69,-66.475 109.946,-71.847C106.203,-77.219 100.775,-79.905 93.662,-79.905C86.549,-79.905 81.131,-77.219 77.406,-71.847C73.681,-66.475 71.819,-59.035 71.819,-49.526L71.819,-32.344C71.819,-22.91 73.7,-15.47 77.462,-10.023C81.224,-4.576 86.662,-1.853 93.774,-1.853C100.85,-1.853 106.25,-4.567 109.974,-9.995C113.699,-15.423 115.562,-22.873 115.562,-32.344L115.562,-49.526Z" style="fill-rule:nonzero;"/>
    </g>
    <g>
        <path d="M45.7,182.3C47.7,174.5 32.6,166.6 28.7,165.6C22.4,163.9 16,167.7 14.3,173.9C12.6,180.1 16.4,186.6 22.6,188.3C26.5,189.4 43.3,191.3 45.7,182.3Z" style="fill:rgb(234,202,174);fill-rule:nonzero;"/>
        <path d="M44.4,158.2C36.4,160.7 38.2,179.1 39.6,183.2C41.8,189.8 49,193.3 55.5,191C62,188.7 65.6,181.6 63.3,175.1C62,171 53.5,155.4 44.4,158.2Z" style="fill:rgb(243,226,210);fill-rule:nonzero;"/>
        <path d="M87.7,176.5C87.7,184.1 106.9,190.1 111.7,190.1C119.2,190.1 125.3,184 125.3,176.5C125.3,169 119.2,162.9 111.7,162.9C107,162.9 87.7,168.6 87.7,176.5Z" style="fill:rgb(243,226,210);fill-rule:nonzero;"/>
        <path d="M129.9,158.9C122.4,161.6 126.2,179.4 128,183.2C130.8,189.2 138,191.8 144,189C150,186.2 152.6,179 149.8,173C148,169.2 137.7,156 129.9,158.9Z" style="fill:white;fill-rule:nonzero;"/>
        <path d="M144.5,184.4C145.7,176.1 129.5,170 125.4,169.3C118.8,168.3 112.7,172.8 111.7,179.4C110.7,186 115.2,192.1 121.8,193.1C125.9,193.7 143.3,192.9 144.5,184.4Z" style="fill:rgb(234,202,174);fill-rule:nonzero;"/>
        <path d="M70.2,187.2C72.4,196.1 92.5,194.7 97.1,193.4C104.3,191.3 108.4,183.7 106.3,176.5C104.2,169.3 96.6,165.2 89.4,167.3C84.8,168.7 67.8,177.1 70.2,187.2Z" style="fill:white;fill-rule:nonzero;"/>
        <path d="M51.5,198.3C53.8,206.4 71.4,204.5 75.4,203.2C81.7,201.2 85.2,194.4 83.1,188.1C81.1,181.8 74.3,178.3 68,180.4C64,181.7 49.1,189.7 51.5,198.3Z" style="fill:rgb(234,202,174);fill-rule:nonzero;"/>
    </g>
</svg>
