<?xml version="1.0" encoding="UTF-8" standalone="no"?>
<!DOCTYPE svg PUBLIC "-//W3C//DTD SVG 1.1//EN" "http://www.w3.org/Graphics/SVG/1.1/DTD/svg11.dtd">
<svg width="100%" height="100%" viewBox="0 0 168 250" version="1.1" xmlns="http://www.w3.org/2000/svg" xmlns:xlink="http://www.w3.org/1999/xlink" xml:space="preserve" xmlns:serif="http://www.serif.com/" style="fill-rule:evenodd;clip-rule:evenodd;stroke-linejoin:round;stroke-miterlimit:1.41421;">
    <rect x="-5.7" y="-5.7" width="178.6" height="260.8" style="fill:rgb(212,231,177);"/>
    <g>
        <path d="M57.5,230.7C57.5,230.9 57.1,231.1 56.6,231.1L31.5,231.1C31,231.1 30.6,230.9 30.6,230.7C30.6,230.5 31,230.3 31.5,230.3L56.7,230.3C57.1,230.3 57.5,230.5 57.5,230.7Z" style="fill:rgb(94,128,111);fill-opacity:0.2;fill-rule:nonzero;"/>
        <path d="M32,210.1C28.5,208.8 27.6,215 27.5,215.4C27.4,215.8 27.4,216 27.4,216L28,215.8L27.9,216.4L28.5,216.2L28.4,216.8L29,216.6L28.9,217.2L29.4,217L29.3,217.5L29.9,217.3L29.8,217.9L30.4,217.7L30.7,218.3C30.7,218.3 31.3,214.5 31.5,213.9C32.3,211.8 32.8,212 33.2,211.9C33.3,211.2 32.8,210.4 32,210.1Z" style="fill:rgb(186,48,51);fill-rule:nonzero;"/>
        <path d="M66.3,206.5L64.5,204.9L61.4,202.1L69.4,191.7L60,200.9L59.2,200.2L57.5,198.7C57,199.2 56.7,199.9 56.7,200.6L56.7,200.7C56.7,201.4 57,201.9 57.4,202.3L53.2,206.4C51.6,208 49.7,208.1 49.7,208.1L54.6,214.4C54.9,214.9 55.3,215.6 55.3,214.7C55.3,213.5 55.7,212.8 55.9,212.6L57.7,210.1C58.8,209 60.5,208.9 61.7,209.8L62,210.1L62.6,210.6C63.7,211.5 65.4,211.4 66.4,210.3C67.4,209.2 67.3,207.5 66.3,206.5ZM60.3,205.2C60,205.2 59.8,205 59.8,204.8C59.8,204.5 60,204.3 60.2,204.3C60.5,204.3 60.7,204.5 60.7,204.7C60.7,205 60.5,205.2 60.3,205.2Z" style="fill:rgb(226,181,165);fill-rule:nonzero;"/>
        <path d="M61.3,202.1L69.3,191.7L59.9,200.9L61.3,202.1Z" style="fill:rgb(186,48,51);fill-rule:nonzero;"/>
        <path d="M55.3,213.3C55.1,210.4 52.6,208.1 49.7,208.1L38.2,208.1C35.2,208.1 32.8,210.4 32.5,213.3L32.5,230.7L34.1,230.7L34.1,219.3C34.1,218.5 34.8,218.5 34.8,218.5L35.9,218.5C35.9,218.5 36.6,218.5 36.6,219.3L36.6,230.7L38,230.7L38,219.2C38,219.2 38,218.4 38.6,218.6C39.7,219.1 41.7,219.4 43.9,219.4C46,219.4 47.9,219.1 49.1,218.7L49.2,218.7C49.8,218.5 49.8,219.3 49.8,219.3L49.8,230.8L51.4,230.8L51.4,219.4C51.4,218.6 52.1,218.6 52.1,218.6L53.2,218.6C53.2,218.6 53.9,218.6 53.9,219.4L53.9,230.8L55.5,230.8L55.3,213.3Z" style="fill:rgb(226,181,165);fill-rule:nonzero;"/>
        <path d="M34.1,229.8L32.5,229.8L32.5,230.7L34.5,230.7L34.1,229.8Z" style="fill:rgb(186,48,51);fill-rule:nonzero;"/>
        <path d="M38,229.8L36.5,229.8L36.5,230.7L38.5,230.7L38,229.8Z" style="fill:rgb(186,48,51);fill-rule:nonzero;"/>
        <path d="M51.3,229.8L49.8,229.8L49.8,230.7L51.8,230.7L51.3,229.8Z" style="fill:rgb(186,48,51);fill-rule:nonzero;"/>
        <path d="M55.3,229.8L53.8,229.8L53.8,230.7L55.7,230.7L55.3,229.8Z" style="fill:rgb(186,48,51);fill-rule:nonzero;"/>
        <circle cx="60" cy="204.9" r="1.3" style="fill:white;"/>
        <path d="M60.4,204.9C60.2,204.9 60,204.7 60,204.5C60,204.3 60.1,204.2 60.2,204.1C60.1,204.1 60,204.1 59.9,204.1C59.5,204.1 59.1,204.5 59.1,204.9C59.1,205.3 59.5,205.7 59.9,205.7C60.3,205.7 60.7,205.3 60.7,204.9C60.7,204.8 60.7,204.8 60.7,204.7C60.7,204.8 60.6,204.9 60.4,204.9Z" style="fill:rgb(1,1,1);fill-rule:nonzero;"/>
    </g>
    <circle cx="23.8" cy="39.2" r="2.6" style="fill:rgb(186,48,51);"/>
    <g transform="matrix(1,0,0,1,11.4203,28.6079)">
        <path d="M0.945,-0.984L2.703,-1.203L2.703,-9.727L0.914,-9.695L0.914,-10.656L4.242,-11.375L4.242,-1.203L5.992,-0.984L5.992,0L0.945,0L0.945,-0.984Z" style="fill-rule:nonzero;"/>
        <path d="M14.781,-4.336C14.781,-2.883 14.458,-1.77 13.813,-0.996C13.167,-0.223 12.284,0.164 11.164,0.164C10.049,0.164 9.167,-0.224 8.516,-1C7.865,-1.776 7.539,-2.888 7.539,-4.336L7.539,-7.031C7.539,-8.479 7.862,-9.592 8.508,-10.371C9.154,-11.15 10.034,-11.539 11.148,-11.539C12.268,-11.539 13.154,-11.15 13.805,-10.371C14.456,-9.592 14.781,-8.479 14.781,-7.031L14.781,-4.336ZM13.242,-7.359C13.242,-8.344 13.064,-9.085 12.707,-9.582C12.35,-10.079 11.831,-10.328 11.148,-10.328C10.477,-10.328 9.964,-10.079 9.609,-9.582C9.255,-9.085 9.078,-8.344 9.078,-7.359L9.078,-4.023C9.078,-3.039 9.258,-2.296 9.617,-1.793C9.977,-1.29 10.492,-1.039 11.164,-1.039C11.846,-1.039 12.363,-1.289 12.715,-1.789C13.066,-2.289 13.242,-3.034 13.242,-4.023L13.242,-7.359Z" style="fill-rule:nonzero;"/>
        <path d="M23.906,-4.336C23.906,-2.883 23.583,-1.77 22.938,-0.996C22.292,-0.223 21.409,0.164 20.289,0.164C19.174,0.164 18.292,-0.224 17.641,-1C16.99,-1.776 16.664,-2.888 16.664,-4.336L16.664,-7.031C16.664,-8.479 16.987,-9.592 17.633,-10.371C18.279,-11.15 19.159,-11.539 20.273,-11.539C21.393,-11.539 22.279,-11.15 22.93,-10.371C23.581,-9.592 23.906,-8.479 23.906,-7.031L23.906,-4.336ZM22.367,-7.359C22.367,-8.344 22.189,-9.085 21.832,-9.582C21.475,-10.079 20.956,-10.328 20.273,-10.328C19.602,-10.328 19.089,-10.079 18.734,-9.582C18.38,-9.085 18.203,-8.344 18.203,-7.359L18.203,-4.023C18.203,-3.039 18.383,-2.296 18.742,-1.793C19.102,-1.29 19.617,-1.039 20.289,-1.039C20.971,-1.039 21.488,-1.289 21.84,-1.789C22.191,-2.289 22.367,-3.034 22.367,-4.023L22.367,-7.359Z" style="fill-rule:nonzero;"/>
    </g>
    <circle cx="143.4" cy="210.3" r="2.6" style="fill:rgb(186,48,51);"/>
    <g transform="matrix(-1,0,0,-1,155.821,220.843)">
        <path d="M0.945,-0.984L2.703,-1.203L2.703,-9.727L0.914,-9.695L0.914,-10.656L4.242,-11.375L4.242,-1.203L5.992,-0.984L5.992,0L0.945,0L0.945,-0.984Z" style="fill-rule:nonzero;"/>
        <path d="M14.781,-4.336C14.781,-2.883 14.458,-1.77 13.813,-0.996C13.167,-0.223 12.284,0.164 11.164,0.164C10.049,0.164 9.167,-0.224 8.516,-1C7.865,-1.776 7.539,-2.888 7.539,-4.336L7.539,-7.031C7.539,-8.479 7.862,-9.592 8.508,-10.371C9.154,-11.15 10.034,-11.539 11.148,-11.539C12.268,-11.539 13.154,-11.15 13.805,-10.371C14.456,-9.592 14.781,-8.479 14.781,-7.031L14.781,-4.336ZM13.242,-7.359C13.242,-8.344 13.064,-9.085 12.707,-9.582C12.35,-10.079 11.831,-10.328 11.148,-10.328C10.477,-10.328 9.964,-10.079 9.609,-9.582C9.255,-9.085 9.078,-8.344 9.078,-7.359L9.078,-4.023C9.078,-3.039 9.258,-2.296 9.617,-1.793C9.977,-1.29 10.492,-1.039 11.164,-1.039C11.846,-1.039 12.363,-1.289 12.715,-1.789C13.066,-2.289 13.242,-3.034 13.242,-4.023L13.242,-7.359Z" style="fill-rule:nonzero;"/>
        <path d="M23.906,-4.336C23.906,-2.883 23.583,-1.77 22.938,-0.996C22.292,-0.223 21.409,0.164 20.289,0.164C19.174,0.164 18.292,-0.224 17.641,-1C16.99,-1.776 16.664,-2.888 16.664,-4.336L16.664,-7.031C16.664,-8.479 16.987,-9.592 17.633,-10.371C18.279,-11.15 19.159,-11.539 20.273,-11.539C21.393,-11.539 22.279,-11.15 22.93,-10.371C23.581,-9.592 23.906,-8.479 23.906,-7.031L23.906,-4.336ZM22.367,-7.359C22.367,-8.344 22.189,-9.085 21.832,-9.582C21.475,-10.079 20.956,-10.328 20.273,-10.328C19.602,-10.328 19.089,-10.079 18.734,-9.582C18.38,-9.085 18.203,-8.344 18.203,-7.359L18.203,-4.023C18.203,-3.039 18.383,-2.296 18.742,-1.793C19.102,-1.29 19.617,-1.039 20.289,-1.039C20.971,-1.039 21.488,-1.289 21.84,-1.789C22.191,-2.289 22.367,-3.034 22.367,-4.023L22.367,-7.359Z" style="fill-rule:nonzero;"/>
    </g>
    <path d="M138.4,214.9C138.4,215.2 137.8,215.4 137.1,215.4L78.4,215.4C77.7,215.4 77.1,215.2 77.1,214.9C77.1,214.6 77.7,214.4 78.4,214.4L137.2,214.4C137.9,214.4 138.4,214.6 138.4,214.9Z" style="fill:rgb(94,128,111);fill-opacity:0.2;fill-rule:nonzero;"/>
    <path d="M56.6,123.8C52.6,123.8 48.5,123.1 44.6,121.5L49.5,118.7L47.5,114.3C58.9,118.8 71.8,114.4 78.2,103.9C84.6,93.4 82.4,79.9 73.2,71.9L78.3,66C90.4,76.5 93.2,94.1 84.9,107.9C78.6,118 67.8,123.8 56.6,123.8Z" style="fill:rgb(94,128,111);fill-rule:nonzero;"/>
    <path d="M95.1,214.9L86.9,214.9L87.7,211.2L91.5,210.3L96.9,163.5L119.4,173.5L95.1,214.9Z" style="fill:rgb(94,128,111);fill-rule:nonzero;"/>
    <path d="M113,94.3C94.6,75.6 61.1,30.6 61.1,30.6L37.9,42.5L29.1,47L28.6,47.3C23.4,50.3 21.3,56.8 23.7,62.3L45.4,51.8C47.1,51 49.1,51.7 50,53.4C50.8,55.1 50.1,57.1 48.4,58L28.4,67.6C31.6,69.5 35.7,69.9 39.3,68.2L42.5,66.6L44.1,65.8C50.1,63.2 58.8,65.2 60.4,71.1C62,77.1 65.5,112.3 65.5,112.3C65.8,113.2 121.5,103 113,94.3ZM57.4,47C57.1,48 55.9,48.6 54.9,48.2C53.9,47.9 53.3,46.8 53.6,45.7C53.9,44.7 55.1,44.1 56.1,44.4C57.1,44.8 57.7,46 57.4,47Z" style="fill:rgb(122,162,141);fill-rule:nonzero;"/>
    <g transform="matrix(0.8564,-0.5163,0.5163,0.8564,-55.2217,75.3256)">
        <ellipse cx="107.8" cy="136.9" rx="30.5" ry="67.3" style="fill:rgb(122,162,141);"/>
    </g>
    <path d="M147.5,151C135.4,116.4 105,137.8 105,137.8L113.4,187.8C113.4,187.8 140.1,203.4 154.8,209.5C159.8,211.6 166.1,213.3 172.9,214.2L172.9,195C164.3,186.7 155.1,172.9 147.5,151Z" style="fill:rgb(122,162,141);fill-rule:nonzero;"/>
    <path d="M130.5,214.9L121.2,214.9L122.1,210.7L125.8,210C125.8,210 116.4,182.1 114.6,176.8C112.8,171.5 114.6,162 126.8,162C139,162 140.2,173.3 139.4,176.8C138.6,180.2 130.5,214.9 130.5,214.9Z" style="fill:rgb(82,142,115);fill-rule:nonzero;"/>
    <g>
        <path d="M25.7,66.5L23.7,62.3L26.9,60.8L25.7,66.5Z" style="fill:white;fill-rule:nonzero;"/>
        <path d="M28.3,65.2L26.2,61.1L29.5,59.5L28.3,65.2Z" style="fill:white;fill-rule:nonzero;"/>
        <path d="M30.8,64L28.8,59.9L32,58.3L30.8,64Z" style="fill:white;fill-rule:nonzero;"/>
        <path d="M33.3,62.8L31.3,58.6L34.6,57.1L33.3,62.8Z" style="fill:white;fill-rule:nonzero;"/>
        <path d="M35.9,61.6L33.9,57.4L37.1,55.8L35.9,61.6Z" style="fill:white;fill-rule:nonzero;"/>
        <path d="M38.4,60.3L36.4,56.2L39.7,54.6L38.4,60.3Z" style="fill:white;fill-rule:nonzero;"/>
        <path d="M41,59.1L39,55L42.2,53.4L41,59.1Z" style="fill:white;fill-rule:nonzero;"/>
        <path d="M43.5,57.9L41.5,53.7L44.7,52.2L43.5,57.9Z" style="fill:white;fill-rule:nonzero;"/>
    </g>
    <g>
        <circle cx="56.9" cy="44.1" r="5" style="fill:white;"/>
        <path d="M56.5,42.4C56.7,43.2 56.2,44.1 55.3,44.3C54.7,44.4 54.1,44.2 53.7,43.8C53.7,44.1 53.7,44.5 53.8,44.8C54.2,46.5 55.9,47.5 57.6,47.1C59.3,46.7 60.3,45 59.9,43.3C59.5,41.6 57.8,40.6 56.1,41C55.9,41.1 55.6,41.2 55.4,41.3C56,41.5 56.4,41.9 56.5,42.4Z" style="fill:rgb(1,1,1);fill-rule:nonzero;"/>
        <path d="M55.8,39.2C53.1,39.9 51.5,42.6 52.1,45.3C52.3,46 52.6,46.6 53,47.1L60.7,40.7C59.5,39.4 57.6,38.8 55.8,39.2Z" style="fill:rgb(82,142,115);fill-rule:nonzero;"/>
    </g>
    <g transform="matrix(1,0,0,1,22.1987,149.225)">
        <path d="M4.251,-2.126L15.784,-2.126L15.784,-55.342L2.48,-52.351L2.48,-54.319L17.909,-57.625L17.909,-2.126L29.442,-2.126L29.442,0L4.251,0L4.251,-2.126Z" style="fill-rule:nonzero;"/>
        <path d="M71.992,-22.593C71.992,-15.115 70.476,-9.342 67.446,-5.274C64.415,-1.207 60.131,0.827 54.594,0.827C49.057,0.827 44.754,-1.214 41.684,-5.294C38.613,-9.375 37.078,-15.141 37.078,-22.593L37.078,-34.717C37.078,-42.169 38.6,-47.936 41.644,-52.016C44.688,-56.096 48.979,-58.137 54.515,-58.137C60.052,-58.137 64.349,-56.096 67.406,-52.016C70.463,-47.936 71.992,-42.169 71.992,-34.717L71.992,-22.593ZM69.866,-34.717C69.866,-41.382 68.554,-46.597 65.93,-50.363C63.306,-54.128 59.501,-56.011 54.515,-56.011C49.53,-56.011 45.731,-54.128 43.12,-50.363C40.509,-46.597 39.204,-41.382 39.204,-34.717L39.204,-22.672C39.204,-16.059 40.522,-10.844 43.16,-7.026C45.797,-3.208 49.608,-1.299 54.594,-1.299C59.554,-1.299 63.339,-3.201 65.95,-7.006C68.561,-10.811 69.866,-16.033 69.866,-22.672L69.866,-34.717Z" style="fill-rule:nonzero;"/>
        <path d="M117.257,-22.593C117.257,-15.115 115.742,-9.342 112.711,-5.274C109.68,-1.207 105.397,0.827 99.86,0.827C94.323,0.827 90.019,-1.214 86.949,-5.294C83.879,-9.375 82.344,-15.141 82.344,-22.593L82.344,-34.717C82.344,-42.169 83.866,-47.936 86.91,-52.016C89.954,-56.096 94.244,-58.137 99.781,-58.137C105.318,-58.137 109.615,-56.096 112.672,-52.016C115.729,-47.936 117.257,-42.169 117.257,-34.717L117.257,-22.593ZM115.132,-34.717C115.132,-41.382 113.82,-46.597 111.196,-50.363C108.572,-54.128 104.767,-56.011 99.781,-56.011C94.795,-56.011 90.997,-54.128 88.386,-50.363C85.775,-46.597 84.469,-41.382 84.469,-34.717L84.469,-22.672C84.469,-16.059 85.788,-10.844 88.425,-7.026C91.062,-3.208 94.874,-1.299 99.86,-1.299C104.819,-1.299 108.604,-3.201 111.215,-7.006C113.826,-10.811 115.132,-16.033 115.132,-22.672L115.132,-34.717Z" style="fill-rule:nonzero;"/>
    </g>
    <path d="M58.9,136.4C55.4,136.4 51.9,135.8 48.4,134.7L54.1,132L50.9,127.3C62.5,131.2 75.2,126.2 81,115.4C85.1,107.8 91.7,111.6 87.8,119.1C82.1,130.1 70.7,136.4 58.9,136.4Z" style="fill:rgb(82,142,115);fill-rule:nonzero;"/>
</svg>
