<?xml version="1.0" encoding="UTF-8" standalone="no"?>
<!DOCTYPE svg PUBLIC "-//W3C//DTD SVG 1.1//EN" "http://www.w3.org/Graphics/SVG/1.1/DTD/svg11.dtd">
<svg width="100%" height="100%" viewBox="0 0 168 250" version="1.1" xmlns="http://www.w3.org/2000/svg" xmlns:xlink="http://www.w3.org/1999/xlink" xml:space="preserve" xmlns:serif="http://www.serif.com/" style="fill-rule:evenodd;clip-rule:evenodd;stroke-miterlimit:10;">
    <rect x="-5.7" y="-5.7" width="178.6" height="260.8" style="fill:rgb(177,217,163);"/>
    <circle cx="146.4" cy="210.3" r="2.6" style="fill:rgb(186,48,51);"/>
    <g transform="matrix(-1,0,0,-1,150.513,219.732)">
        <path d="M1.182,-1.23L3.379,-1.504L3.379,-12.158L1.143,-12.119L1.143,-13.32L5.303,-14.219L5.303,-1.504L7.49,-1.23L7.49,0L1.182,0L1.182,-1.23Z" style="fill-rule:nonzero;"/>
    </g>
    <path d="M72.2,154.9C72.2,154.9 9.4,76.9 92.5,3.7" style="fill:none;stroke:rgb(89,162,96);stroke-width:3px;"/>
    <g>
        <path d="M23.5,44.7C27.5,37.8 30,29.8 30.4,21.2C30.8,12.6 29.2,4.5 25.9,-2.8C21.9,4.1 19.4,12.1 19,20.7C18.6,29.3 20.3,37.4 23.5,44.7Z" style="fill:rgb(109,189,123);fill-rule:nonzero;"/>
        <path d="M23.9,37.5L25.7,-7.2L26.5,-7.1L23.9,37.5Z" style="fill:rgb(114,161,121);fill-rule:nonzero;"/>
    </g>
    <g>
        <circle cx="164.1" cy="40" r="8.3" style="fill:rgb(227,113,73);"/>
        <g>
            <g opacity="0.5">
                <circle cx="161.9" cy="41.1" r="0.3" style="fill:rgb(190,83,56);"/>
                <circle cx="166.7" cy="34.9" r="0.3" style="fill:rgb(190,83,56);"/>
                <circle cx="165.2" cy="46.8" r="0.3" style="fill:rgb(190,83,56);"/>
                <circle cx="161.1" cy="45.6" r="0.3" style="fill:rgb(190,83,56);"/>
                <circle cx="164.3" cy="44.1" r="0.1" style="fill:rgb(190,83,56);"/>
                <circle cx="162.4" cy="35.5" r="0.1" style="fill:rgb(190,83,56);"/>
                <circle cx="158.4" cy="41.9" r="0.2" style="fill:rgb(190,83,56);"/>
                <circle cx="158.6" cy="37.2" r="0.1" style="fill:rgb(190,83,56);"/>
                <circle cx="167.3" cy="46" r="0.1" style="fill:rgb(190,83,56);"/>
            </g>
        </g>
    </g>
    <g>
        <circle cx="104.1" cy="24.2" r="5.6" style="fill:rgb(227,113,73);"/>
        <g>
            <g opacity="0.5">
                <circle cx="102.6" cy="24.9" r="0.2" style="fill:rgb(190,83,56);"/>
                <circle cx="105.8" cy="20.7" r="0.2" style="fill:rgb(190,83,56);"/>
                <circle cx="104.8" cy="28.7" r="0.2" style="fill:rgb(190,83,56);"/>
                <circle cx="102.1" cy="27.9" r="0.2" style="fill:rgb(190,83,56);"/>
                <circle cx="104.2" cy="26.9" r="0.1" style="fill:rgb(190,83,56);"/>
                <circle cx="106.4" cy="23.1" r="0.1" style="fill:rgb(190,83,56);"/>
                <circle cx="102.9" cy="21.2" r="0.1" style="fill:rgb(190,83,56);"/>
                <circle cx="100.3" cy="25.5" r="0.1" style="fill:rgb(190,83,56);"/>
                <path d="M100.4,22.3Z" style="fill:rgb(190,83,56);"/>
                <circle cx="106.4" cy="25.5" r="0.1" style="fill:rgb(190,83,56);"/>
                <circle cx="107.5" cy="21.3" r="0.1" style="fill:rgb(190,83,56);"/>
                <circle cx="108.5" cy="25.1" r="0.1" style="fill:rgb(190,83,56);"/>
                <circle cx="106.2" cy="28.2" r="0.1" style="fill:rgb(190,83,56);"/>
            </g>
        </g>
    </g>
    <g>
        <circle cx="77.3" cy="3.3" r="7.6" style="fill:rgb(227,113,73);"/>
        <g>
            <g opacity="0.5">
                <circle cx="75.3" cy="4.3" r="0.3" style="fill:rgb(190,83,56);"/>
                <circle cx="78.4" cy="9.5" r="0.3" style="fill:rgb(190,83,56);"/>
                <circle cx="74.6" cy="8.4" r="0.3" style="fill:rgb(190,83,56);"/>
                <circle cx="77.5" cy="7" r="0.1" style="fill:rgb(190,83,56);"/>
                <circle cx="80.5" cy="1.9" r="0.1" style="fill:rgb(190,83,56);"/>
                <circle cx="72.2" cy="5.1" r="0.2" style="fill:rgb(190,83,56);"/>
                <circle cx="72.4" cy="0.7" r="0.1" style="fill:rgb(190,83,56);"/>
                <circle cx="80.6" cy="5.1" r="0.1" style="fill:rgb(190,83,56);"/>
                <circle cx="83.4" cy="4.6" r="0.1" style="fill:rgb(190,83,56);"/>
                <circle cx="80.3" cy="8.8" r="0.1" style="fill:rgb(190,83,56);"/>
            </g>
        </g>
    </g>
    <g>
        <path d="M127,24C131.5,31 138.9,34.9 146.6,35.2C149.5,28.1 149,19.7 144.5,12.7C140,5.7 132.6,1.8 124.9,1.5C122,8.6 122.5,17 127,24Z" style="fill:rgb(109,189,123);fill-rule:nonzero;"/>
        <path d="M139.5,24.2L120.2,-4.8L121,-5.4L139.5,24.2Z" style="fill:rgb(114,161,121);fill-rule:nonzero;"/>
    </g>
    <g>
        <path d="M71.2,40.1C72.6,45.9 76.7,50.3 81.8,52.3C85.5,48.2 87.1,42.4 85.7,36.6C84.3,30.8 80.2,26.4 75.1,24.4C71.5,28.6 69.8,34.4 71.2,40.1Z" style="fill:rgb(109,189,123);fill-rule:nonzero;"/>
        <path d="M79.6,43.3L73.4,19L74.1,18.9L79.6,43.3Z" style="fill:rgb(114,161,121);fill-rule:nonzero;"/>
    </g>
    <g>
        <path d="M81.5,17.2C78.6,25 79.9,33.3 84.3,39.6C91.7,37.7 98.2,32.2 101,24.5C103.8,16.8 102.6,8.4 98.2,2C90.8,4 84.4,9.4 81.5,17.2Z" style="fill:rgb(38,147,108);fill-rule:nonzero;"/>
        <path d="M88.8,27.4L100.4,-5.6L101.4,-5.2L88.8,27.4Z" style="fill:rgb(75,85,81);fill-rule:nonzero;"/>
    </g>
    <g>
        <path d="M106.5,11.9C109.3,18.4 115.1,22.7 121.5,24C124.9,18.4 125.7,11.2 122.8,4.7C120,-1.8 114.2,-6.1 107.8,-7.4C104.4,-1.7 103.7,5.4 106.5,11.9Z" style="fill:rgb(38,147,108);fill-rule:nonzero;"/>
        <path d="M117.1,13.8L104.7,-13.4L105.4,-13.7L117.1,13.8Z" style="fill:rgb(75,85,81);fill-rule:nonzero;"/>
    </g>
    <g>
        <path d="M106.9,34.4C105.8,38 106.5,41.7 108.6,44.5C111.9,43.5 114.7,40.9 115.9,37.3C117,33.7 116.3,30 114.2,27.2C110.8,28.2 108,30.8 106.9,34.4Z" style="fill:rgb(38,147,108);fill-rule:nonzero;"/>
        <path d="M110.4,38.8L115,23.7L115.4,23.8L110.4,38.8Z" style="fill:rgb(75,85,81);fill-rule:nonzero;"/>
    </g>
    <g>
        <path d="M137.2,4C134.1,13.8 136.2,23.9 142,31.5C151.1,28.7 158.7,21.6 161.8,11.8C164.9,2 162.8,-8.1 157,-15.7C147.9,-12.9 140.3,-5.8 137.2,4Z" style="fill:rgb(38,147,108);fill-rule:nonzero;"/>
        <path d="M146.8,16.1L159.3,-25.3L160.4,-24.9L146.8,16.1Z" style="fill:rgb(75,85,81);fill-rule:nonzero;"/>
    </g>
    <g>
        <path d="M73,20.8C75.6,26.9 80.9,31 86.9,32.2C90.1,27 90.9,20.3 88.3,14.3C85.7,8.2 80.4,4.2 74.4,2.9C71.2,8.1 70.4,14.8 73,20.8Z" style="fill:rgb(38,147,108);fill-rule:nonzero;"/>
        <path d="M82.8,22.7L71.5,-2.7L72.2,-3L82.8,22.7Z" style="fill:rgb(75,85,81);fill-rule:nonzero;"/>
    </g>
    <g>
        <path d="M34.1,15.9C34.6,22.3 38.3,27.7 43.5,30.7C48.1,26.9 50.8,20.9 50.2,14.5C49.7,8.1 46,2.8 40.8,-0.3C36.2,3.6 33.5,9.5 34.1,15.9Z" style="fill:rgb(38,147,108);fill-rule:nonzero;"/>
        <path d="M42.6,20.7L39.8,-6.3L40.6,-6.4L42.6,20.7Z" style="fill:rgb(75,85,81);fill-rule:nonzero;"/>
    </g>
    <g>
        <path d="M9.1,7.9C6.6,12.2 6.6,17.3 8.6,21.5C13.2,21.1 17.6,18.5 20.1,14.1C22.6,9.7 22.6,4.7 20.6,0.5C15.9,1 11.6,3.6 9.1,7.9Z" style="fill:rgb(38,147,108);fill-rule:nonzero;"/>
        <path d="M12.5,14.7L22.6,-3.8L23.1,-3.5L12.5,14.7Z" style="fill:rgb(75,85,81);fill-rule:nonzero;"/>
    </g>
    <g>
        <path d="M8.4,45C12.5,49.7 18.5,51.7 24.2,51.1C25.5,45.5 24.2,39.3 20.1,34.7C16,30.1 10,28 4.3,28.6C3,34.2 4.3,40.3 8.4,45Z" style="fill:rgb(38,147,108);fill-rule:nonzero;"/>
        <path d="M17.8,43.8L0.1,24.4L0.6,23.9L17.8,43.8Z" style="fill:rgb(75,85,81);fill-rule:nonzero;"/>
    </g>
    <g>
        <path d="M27.3,42.4C36.7,38.3 45.4,32 52.4,23.6C59.4,15.2 64,5.4 66.2,-4.6C56.8,-0.6 48.1,5.7 41.1,14.2C34.1,22.7 29.5,32.3 27.3,42.4Z" style="fill:rgb(109,189,123);fill-rule:nonzero;"/>
        <path d="M33.3,35.3L69.3,-9.3L70.1,-8.7L33.3,35.3Z" style="fill:rgb(114,161,121);fill-rule:nonzero;"/>
    </g>
    <g>
        <path d="M117.1,33.3C117.4,25.6 116,17.7 112.6,10.2C109.1,2.8 104.1,-3.5 98,-8.2C97.7,-0.5 99.1,7.4 102.5,14.9C105.9,22.4 111,28.5 117.1,33.3Z" style="fill:rgb(109,189,123);fill-rule:nonzero;"/>
        <path d="M114.2,27L95.9,-11.9L96.6,-12.2L114.2,27Z" style="fill:rgb(114,161,121);fill-rule:nonzero;"/>
    </g>
    <g>
        <path d="M153.9,46.4C159.7,39.9 164.2,32 166.5,22.9C168.8,13.8 168.9,4.8 167.1,-3.8C161.3,2.7 156.8,10.6 154.5,19.7C152.2,28.8 152,37.9 153.9,46.4Z" style="fill:rgb(109,189,123);fill-rule:nonzero;"/>
        <path d="M155.9,38.8L167.8,-8.4L168.7,-8.2L155.9,38.8Z" style="fill:rgb(114,161,121);fill-rule:nonzero;"/>
    </g>
    <g>
        <path d="M100,60.4C108.6,54 115.8,45.6 120.9,35.3C125.9,25.1 128.2,14.2 128,3.5C119.4,9.9 112.2,18.3 107.1,28.6C102.1,38.8 99.8,49.7 100,60.4Z" style="fill:rgb(89,162,96);fill-rule:nonzero;"/>
        <path d="M104.3,51.8L130,-2L131,-1.5L104.3,51.8Z" style="fill:rgb(84,112,86);fill-rule:nonzero;"/>
    </g>
    <g>
        <path d="M95,48.5C98.2,39.1 99.4,28.9 97.9,18.4C96.4,7.9 92.5,-1.6 86.8,-9.7C83.6,-0.3 82.4,9.9 83.9,20.4C85.4,30.9 89.3,40.4 95,48.5Z" style="fill:rgb(89,162,96);fill-rule:nonzero;"/>
        <path d="M93.8,39.6L85.4,-14.9L86.4,-15.1L93.8,39.6Z" style="fill:rgb(77,133,82);fill-rule:nonzero;"/>
    </g>
    <g>
        <path d="M42.8,27.5C45,37.7 52,45.7 61,49.5C67.6,42.4 70.7,32.3 68.6,22.1C66.5,11.9 59.3,3.9 50.4,0.1C43.8,7.2 40.7,17.3 42.8,27.5Z" style="fill:rgb(38,147,108);fill-rule:nonzero;"/>
        <path d="M57.5,33.4L47.6,-9.5L48.8,-9.7L57.5,33.4Z" style="fill:rgb(75,85,81);fill-rule:nonzero;"/>
    </g>
    <g>
        <path d="M-7.4,29.7C-0.3,26.7 6.2,21.9 11.4,15.6C16.6,9.3 20,2 21.7,-5.6C14.6,-2.5 8.1,2.2 2.9,8.5C-2.3,14.8 -5.8,22.1 -7.4,29.7Z" style="fill:rgb(109,189,123);fill-rule:nonzero;"/>
        <path d="M-3,24.3L24,-9.1L24.6,-8.6L-3,24.3Z" style="fill:rgb(114,161,121);fill-rule:nonzero;"/>
    </g>
    <g>
        <path d="M31.3,24.9C32,19.3 31.4,13.4 29.3,7.8C27.2,2.2 23.8,-2.7 19.6,-6.5C18.9,-0.9 19.5,5 21.6,10.6C23.7,16.2 27.1,21.1 31.3,24.9Z" style="fill:rgb(89,162,96);fill-rule:nonzero;"/>
        <path d="M29.5,20.1L18.3,-9.3L18.8,-9.5L29.5,20.1Z" style="fill:rgb(84,112,86);fill-rule:nonzero;"/>
    </g>
    <g>
        <circle cx="72" cy="26.5" r="9.1" style="fill:rgb(227,113,73);"/>
        <g>
            <g opacity="0.5">
                <circle cx="69.6" cy="27.7" r="0.3" style="fill:rgb(190,83,56);"/>
                <circle cx="74.8" cy="20.9" r="0.3" style="fill:rgb(190,83,56);"/>
                <circle cx="73.2" cy="33.9" r="0.3" style="fill:rgb(190,83,56);"/>
                <circle cx="68.7" cy="32.6" r="0.3" style="fill:rgb(190,83,56);"/>
                <circle cx="72.2" cy="31" r="0.1" style="fill:rgb(190,83,56);"/>
                <circle cx="75.7" cy="24.8" r="0.1" style="fill:rgb(190,83,56);"/>
                <circle cx="70.1" cy="21.6" r="0.1" style="fill:rgb(190,83,56);"/>
                <circle cx="65.8" cy="28.6" r="0.2" style="fill:rgb(190,83,56);"/>
                <circle cx="66" cy="23.4" r="0.1" style="fill:rgb(190,83,56);"/>
                <circle cx="75.9" cy="28.6" r="0.1" style="fill:rgb(190,83,56);"/>
                <circle cx="77.6" cy="21.9" r="0.1" style="fill:rgb(190,83,56);"/>
                <circle cx="79.2" cy="28.1" r="0.1" style="fill:rgb(190,83,56);"/>
                <circle cx="75.5" cy="33.1" r="0.1" style="fill:rgb(190,83,56);"/>
            </g>
        </g>
    </g>
    <g>
        <circle cx="34.5" cy="1.2" r="7.6" style="fill:rgb(227,113,73);"/>
        <g>
            <g opacity="0.5">
                <circle cx="32.5" cy="2.2" r="0.3" style="fill:rgb(190,83,56);"/>
                <circle cx="35.5" cy="7.4" r="0.3" style="fill:rgb(190,83,56);"/>
                <circle cx="31.7" cy="6.4" r="0.3" style="fill:rgb(190,83,56);"/>
                <circle cx="34.6" cy="5" r="0.1" style="fill:rgb(190,83,56);"/>
                <circle cx="29.3" cy="3" r="0.2" style="fill:rgb(190,83,56);"/>
                <circle cx="37.7" cy="3" r="0.1" style="fill:rgb(190,83,56);"/>
                <circle cx="40.5" cy="2.5" r="0.1" style="fill:rgb(190,83,56);"/>
                <circle cx="37.4" cy="6.7" r="0.1" style="fill:rgb(190,83,56);"/>
            </g>
        </g>
    </g>
    <g>
        <circle cx="6.5" cy="43.6" r="7.6" style="fill:rgb(227,113,73);"/>
        <g>
            <g opacity="0.5">
                <circle cx="4.5" cy="44.6" r="0.3" style="fill:rgb(190,83,56);"/>
                <circle cx="8.9" cy="39" r="0.3" style="fill:rgb(190,83,56);"/>
                <circle cx="7.5" cy="49.8" r="0.3" style="fill:rgb(190,83,56);"/>
                <circle cx="3.7" cy="48.7" r="0.3" style="fill:rgb(190,83,56);"/>
                <circle cx="6.6" cy="47.4" r="0.1" style="fill:rgb(190,83,56);"/>
                <circle cx="9.6" cy="42.2" r="0.1" style="fill:rgb(190,83,56);"/>
                <circle cx="4.9" cy="39.6" r="0.1" style="fill:rgb(190,83,56);"/>
                <circle cx="1.3" cy="45.4" r="0.2" style="fill:rgb(190,83,56);"/>
                <circle cx="1.5" cy="41.1" r="0.1" style="fill:rgb(190,83,56);"/>
                <circle cx="9.7" cy="45.4" r="0.1" style="fill:rgb(190,83,56);"/>
                <circle cx="11.1" cy="39.7" r="0.1" style="fill:rgb(190,83,56);"/>
                <circle cx="12.5" cy="44.9" r="0.1" style="fill:rgb(190,83,56);"/>
                <circle cx="9.4" cy="49.1" r="0.1" style="fill:rgb(190,83,56);"/>
            </g>
        </g>
    </g>
    <g>
        <circle cx="131.6" cy="2.7" r="10.3" style="fill:rgb(227,113,73);"/>
        <g>
            <g opacity="0.5">
                <circle cx="128.9" cy="4.1" r="0.4" style="fill:rgb(190,83,56);"/>
                <circle cx="133" cy="11.2" r="0.4" style="fill:rgb(190,83,56);"/>
                <circle cx="127.9" cy="9.7" r="0.4" style="fill:rgb(190,83,56);"/>
                <circle cx="131.8" cy="7.8" r="0.2" style="fill:rgb(190,83,56);"/>
                <circle cx="135.9" cy="0.8" r="0.2" style="fill:rgb(190,83,56);"/>
                <circle cx="124.6" cy="5.1" r="0.2" style="fill:rgb(190,83,56);"/>
                <circle cx="136" cy="5.1" r="0.1" style="fill:rgb(190,83,56);"/>
                <circle cx="139.8" cy="4.5" r="0.1" style="fill:rgb(190,83,56);"/>
                <circle cx="135.6" cy="10.2" r="0.1" style="fill:rgb(190,83,56);"/>
            </g>
        </g>
    </g>
    <g>
        <path d="M67.2,30.2C70.2,24.9 72.1,18.9 72.4,12.4C72.7,5.9 71.5,-0.3 69,-5.8C66,-0.6 64.1,5.5 63.7,12C63.3,18.5 64.7,24.7 67.2,30.2Z" style="fill:rgb(109,189,123);fill-rule:nonzero;"/>
        <path d="M67.5,24.7L68.8,-9.2L69.4,-9.1L67.5,24.7Z" style="fill:rgb(114,161,121);fill-rule:nonzero;"/>
    </g>
    <g>
        <circle cx="86.9" cy="194.1" r="35.3" style="fill:rgb(227,113,73);"/>
        <g>
            <g opacity="0.5">
                <circle cx="80.3" cy="202.1" r="1.2" style="fill:rgb(190,83,56);"/>
                <circle cx="88.3" cy="169.6" r="1.2" style="fill:rgb(190,83,56);"/>
                <circle cx="103" cy="218.6" r="1.2" style="fill:rgb(190,83,56);"/>
                <circle cx="85" cy="221" r="1.2" style="fill:rgb(190,83,56);"/>
                <circle cx="94.8" cy="209.7" r="0.5" style="fill:rgb(190,83,56);"/>
                <circle cx="97.6" cy="182.1" r="0.5" style="fill:rgb(190,83,56);"/>
                <circle cx="72.5" cy="179.7" r="0.5" style="fill:rgb(190,83,56);"/>
                <circle cx="68.3" cy="211.3" r="0.7" style="fill:rgb(190,83,56);"/>
                <circle cx="60.8" cy="192.6" r="0.3" style="fill:rgb(190,83,56);"/>
                <circle cx="104.2" cy="195.4" r="0.5" style="fill:rgb(190,83,56);"/>
                <circle cx="99.5" cy="168.7" r="0.5" style="fill:rgb(190,83,56);"/>
                <circle cx="115.2" cy="188.1" r="0.5" style="fill:rgb(190,83,56);"/>
                <circle cx="110" cy="211.9" r="0.5" style="fill:rgb(190,83,56);"/>
            </g>
        </g>
    </g>
    <circle cx="20.8" cy="39.2" r="2.6" style="fill:rgb(186,48,51);"/>
    <g transform="matrix(1,0,0,1,16.7172,29.7173)">
        <path d="M1.182,-1.23L3.379,-1.504L3.379,-12.158L1.143,-12.119L1.143,-13.32L5.303,-14.219L5.303,-1.504L7.49,-1.23L7.49,0L1.182,0L1.182,-1.23Z" style="fill-rule:nonzero;"/>
    </g>
    <g transform="matrix(1,0,0,1,55.5473,180.637)">
        <path d="M8.438,-4.219L31.328,-4.219L31.328,-109.844L4.922,-103.906L4.922,-107.813L35.547,-114.375L35.547,-4.219L58.438,-4.219L58.438,0L8.438,0L8.438,-4.219Z" style="fill-rule:nonzero;"/>
    </g>
    <g>
        <path d="M75.6,167.9C83.7,167.1 91.6,163.8 98,157.9C104.4,152 108.3,144.4 109.8,136.4C101.7,137.2 93.8,140.5 87.4,146.4C80.9,152.3 77,159.9 75.6,167.9Z" style="fill:rgb(38,147,108);fill-rule:nonzero;"/>
        <path d="M34.3,151.4C38.7,158.2 45.2,163.8 53.4,166.8C61.6,169.8 70.2,169.9 77.9,167.5C73.5,160.7 67,155.1 58.8,152.1C50.6,149.1 42.1,149.1 34.3,151.4Z" style="fill:rgb(38,147,108);fill-rule:nonzero;"/>
        <path d="M69.4,134.5C67.1,139.7 66.3,145.8 67.7,151.8C69.1,157.8 72.4,162.9 76.8,166.6C79.1,161.4 79.9,155.3 78.5,149.3C77.1,143.2 73.8,138.1 69.4,134.5Z" style="fill:rgb(38,147,108);fill-rule:nonzero;"/>
    </g>
    <g>
        <path d="M13.7,58.3C13.9,58.1 14,57.8 13.9,57.6L14.8,56.7C15,56.8 15.3,56.7 15.5,56.5C15.7,56.3 15.8,56 15.7,55.8L16.6,54.9C16.8,55 17.1,54.9 17.3,54.7C17.6,54.4 17.6,54 17.4,53.7C17.6,52.6 17.3,51.5 16.6,50.7C15.8,49.9 14.7,49.6 13.6,49.8C13.3,49.6 12.9,49.6 12.6,49.9C12.4,50.1 12.3,50.4 12.4,50.6L11.5,51.5C11.3,51.4 11,51.5 10.8,51.7C10.6,51.9 10.5,52.2 10.6,52.4L9.7,53.3C9.5,53.2 9.2,53.3 9,53.5C8.8,53.7 8.7,54 8.8,54.2L7.9,55.1C7.7,55 7.4,55.1 7.2,55.3C6.9,55.6 6.9,56.1 7.2,56.4C7.4,56.6 7.7,56.7 7.9,56.6L8.8,57.6C8.7,57.9 8.8,58.1 9,58.3C9.2,58.5 9.5,58.6 9.7,58.5L10.6,59.4C10.5,59.7 10.6,59.9 10.8,60.1C11.1,60.4 11.6,60.4 11.9,60.1C12.1,59.9 12.2,59.6 12.1,59.4L13,58.5C13.3,58.5 13.6,58.5 13.7,58.3ZM11.2,58.9L10.3,58C10.3,57.9 10.3,57.7 10.3,57.6L11.2,56.7C11.3,56.7 11.5,56.7 11.6,56.7L12.5,57.6C12.5,57.7 12.5,57.9 12.5,58L11.6,58.9C11.4,58.9 11.3,58.9 11.2,58.9ZM8.4,55.7L9.3,54.8C9.4,54.8 9.6,54.8 9.7,54.8L10.6,55.8C10.6,55.9 10.6,56 10.6,56.2L9.7,57.2C9.6,57.2 9.5,57.2 9.3,57.2L8.4,56.2C8.4,56 8.4,55.8 8.4,55.7ZM13.4,51L14.3,52C14.3,52.1 14.3,52.2 14.3,52.4L13.4,53.4C13.3,53.4 13.2,53.4 13,53.4L12.1,52.4C12.1,52.3 12.1,52.1 12.1,52L13,51C13.2,51.1 13.3,51.1 13.4,51ZM16.2,53.8C16.2,53.9 16.2,54.1 16.2,54.2L15.3,55.1C15.2,55.1 15,55.1 14.9,55.1L14,54.2C14,54.1 14,53.9 14,53.8L14.9,52.9C15,52.9 15.2,52.9 15.3,52.9L16.2,53.8ZM13,57L12.1,56.1C12.1,56 12.1,55.8 12.1,55.7L13,54.8C13.1,54.8 13.3,54.8 13.4,54.8L14.3,55.7C14.3,55.8 14.3,56 14.3,56.1L13.4,57C13.3,57 13.2,57 13,57ZM11.6,52.9L12.5,53.9C12.5,54 12.5,54.1 12.5,54.3L11.6,55.3C11.5,55.3 11.4,55.3 11.2,55.3L10.3,54.3C10.3,54.2 10.3,54 10.3,53.9L11.2,53C11.3,52.9 11.4,52.9 11.6,52.9ZM16.1,51.1C16.7,51.7 16.9,52.5 16.8,53.3L16.7,53.3L15.8,52.4C15.9,52.1 15.8,51.9 15.6,51.7C15.4,51.5 15.1,51.4 14.9,51.5L14,50.5L14,50.4C14.7,50.3 15.5,50.5 16.1,51.1Z" style="fill:white;fill-rule:nonzero;"/>
        <path d="M-2.5,39L6.5,48" style="fill:none;stroke:white;stroke-width:0.5px;"/>
        <path d="M-4,71.4L5,62.3" style="fill:none;stroke:white;stroke-width:0.5px;"/>
        <path d="M10.6,157.2C10.8,157 10.9,156.7 10.8,156.5L11.7,155.6C11.9,155.7 12.2,155.6 12.4,155.4C12.6,155.2 12.7,154.9 12.6,154.7L13.5,153.8C13.7,153.9 14,153.8 14.2,153.6C14.5,153.3 14.5,152.9 14.3,152.6C14.5,151.5 14.2,150.4 13.5,149.6C12.8,148.8 11.6,148.5 10.5,148.7C10.2,148.5 9.8,148.5 9.5,148.8C9.3,149 9.2,149.3 9.3,149.5L8.4,150.4C8.2,150.3 7.9,150.4 7.7,150.6C7.5,150.8 7.4,151.1 7.5,151.3L6.6,152.2C6.4,152.1 6.1,152.2 5.9,152.4C5.7,152.6 5.6,152.9 5.7,153.1L4.8,154C4.6,153.9 4.3,154 4.1,154.2C3.8,154.5 3.8,155 4.1,155.3C4.3,155.5 4.6,155.6 4.8,155.5L5.7,156.5C5.6,156.8 5.7,157 5.9,157.2C6.1,157.4 6.4,157.5 6.6,157.4L7.5,158.3C7.4,158.6 7.5,158.8 7.7,159C8,159.3 8.5,159.3 8.8,159C9,158.8 9.1,158.5 9,158.3L9.9,157.4C10.1,157.4 10.4,157.4 10.6,157.2ZM8,157.8L7.1,156.9C7.1,156.8 7.1,156.6 7.1,156.5L8,155.6C8.1,155.6 8.3,155.6 8.4,155.6L9.3,156.5C9.3,156.6 9.3,156.8 9.3,156.9L8.4,157.8C8.3,157.7 8.1,157.7 8,157.8ZM5.2,154.6L6.1,153.7C6.2,153.7 6.4,153.7 6.5,153.7L7.4,154.7C7.4,154.8 7.4,154.9 7.4,155.1L6.5,156.1C6.4,156.1 6.3,156.1 6.1,156.1L5.2,155.1C5.3,154.8 5.3,154.7 5.2,154.6ZM10.3,149.9L11.2,150.9C11.2,151 11.2,151.1 11.2,151.3L10.3,152.3C10.2,152.3 10.1,152.3 9.9,152.3L9,151.3C9,151.2 9,151 9,150.9L9.9,150C10,150 10.1,150 10.3,149.9ZM13,152.7C13,152.8 13,153 13,153.1L12.1,154C12,154 11.8,154 11.7,154L10.8,153.1C10.8,153 10.8,152.8 10.8,152.7L11.7,151.8C11.8,151.8 12,151.8 12.1,151.8L13,152.7ZM9.9,155.9L8.9,155C8.9,154.9 8.9,154.7 8.9,154.6L9.8,153.7C9.9,153.7 10.1,153.7 10.2,153.7L11.1,154.6C11.1,154.7 11.1,154.9 11.1,155L10.2,155.9C10.1,155.9 10,155.9 9.9,155.9ZM8.4,151.8L9.3,152.8C9.3,152.9 9.3,153 9.3,153.2L8.4,154.2C8.3,154.2 8.2,154.2 8,154.2L7.1,153.2C7.1,153.1 7.1,152.9 7.1,152.8L8,151.9C8.1,151.8 8.3,151.8 8.4,151.8ZM13,150C13.6,150.6 13.8,151.4 13.7,152.2L13.6,152.2L12.7,151.3C12.8,151 12.7,150.8 12.5,150.6C12.3,150.4 12,150.3 11.8,150.4L10.9,149.4L10.9,149.3C11.6,149.2 12.4,149.4 13,150Z" style="fill:white;fill-rule:nonzero;"/>
        <path d="M-5.6,137.9L3.3,146.9" style="fill:none;stroke:white;stroke-width:0.5px;"/>
        <path d="M-7.1,170.3L1.8,161.2" style="fill:none;stroke:white;stroke-width:0.5px;"/>
        <path d="M12.8,108.3C13,108.1 13.1,107.8 13,107.6L13.9,106.7C14.1,106.8 14.4,106.7 14.6,106.5C14.8,106.3 14.9,106 14.8,105.8L15.7,104.9C15.9,105 16.2,104.9 16.4,104.7C16.7,104.4 16.7,104 16.5,103.7C16.7,102.6 16.4,101.5 15.7,100.7C15,99.9 13.8,99.6 12.7,99.8C12.4,99.6 12,99.6 11.7,99.9C11.5,100.1 11.4,100.4 11.5,100.6L10.6,101.5C10.4,101.4 10.1,101.5 9.9,101.7C9.7,101.9 9.6,102.2 9.7,102.4L8.8,103.3C8.6,103.2 8.3,103.3 8.1,103.5C7.9,103.7 7.8,104 7.9,104.2L7,105.1C6.8,105 6.5,105.1 6.3,105.3C6,105.6 6,106.1 6.3,106.4C6.5,106.6 6.8,106.7 7,106.6L7.9,107.6C7.8,107.9 7.9,108.1 8.1,108.3C8.3,108.5 8.6,108.6 8.8,108.5L9.7,109.4C9.6,109.7 9.7,109.9 9.9,110.1C10.2,110.4 10.7,110.4 11,110.1C11.2,109.9 11.3,109.6 11.2,109.4L12.1,108.5C12.3,108.6 12.6,108.5 12.8,108.3ZM10.2,108.9L9.3,108C9.3,107.9 9.3,107.7 9.3,107.6L10.2,106.7C10.3,106.7 10.5,106.7 10.6,106.7L11.5,107.6C11.5,107.7 11.5,107.9 11.5,108L10.6,108.9C10.5,108.9 10.3,108.9 10.2,108.9ZM7.4,105.7L8.3,104.8C8.4,104.8 8.6,104.8 8.7,104.8L9.6,105.8C9.6,105.9 9.6,106 9.6,106.2L8.7,107.2C8.6,107.2 8.5,107.2 8.3,107.2L7.4,106.2C7.5,106 7.5,105.9 7.4,105.7ZM12.4,101.1L13.3,102.1C13.3,102.2 13.3,102.3 13.3,102.5L12.4,103.5C12.3,103.5 12.2,103.5 12,103.5L11.1,102.5C11.1,102.4 11.1,102.2 11.1,102.1L12,101.2C12.2,101.1 12.3,101.1 12.4,101.1ZM15.2,103.9C15.2,104 15.2,104.2 15.2,104.3L14.3,105.2C14.2,105.2 14,105.2 13.9,105.2L13,104.3C13,104.2 13,104 13,103.9L13.9,103C14,103 14.2,103 14.3,103L15.2,103.9ZM12,107.1L11.1,106.2C11.1,106.1 11.1,105.9 11.1,105.8L12,104.9C12.1,104.9 12.3,104.9 12.4,104.9L13.3,105.8C13.3,105.9 13.3,106.1 13.3,106.2L12.4,107.1C12.3,107 12.2,107 12,107.1ZM10.6,102.9L11.5,103.9C11.5,104 11.5,104.1 11.5,104.3L10.6,105.3C10.5,105.3 10.4,105.3 10.2,105.3L9.3,104.3C9.3,104.2 9.3,104 9.3,103.9L10.2,103C10.3,103 10.5,103 10.6,102.9ZM15.1,101.1C15.7,101.7 15.9,102.5 15.8,103.3L15.7,103.3L14.8,102.4C14.9,102.1 14.8,101.9 14.6,101.7C14.4,101.5 14.1,101.4 13.9,101.5L13,100.5L13,100.4C13.7,100.3 14.6,100.6 15.1,101.1Z" style="fill:white;fill-rule:nonzero;"/>
        <path d="M-5,121.4L4,112.4" style="fill:none;stroke:white;stroke-width:0.5px;"/>
        <path d="M35.9,131.7C36.1,131.5 36.2,131.2 36.1,131L37,130C37.2,130.1 37.5,130 37.7,129.8C37.9,129.6 38,129.3 37.9,129.1L38.8,128.2C39,128.3 39.3,128.2 39.5,128C39.8,127.7 39.8,127.3 39.6,127C39.8,125.9 39.5,124.8 38.8,124C38.1,123.2 36.9,122.9 35.8,123.1C35.5,122.9 35.1,122.9 34.8,123.2C34.6,123.4 34.5,123.7 34.6,123.9L33.7,124.8C33.5,124.7 33.2,124.8 33,125C32.8,125.2 32.7,125.5 32.8,125.7L31.9,126.6C31.7,126.5 31.4,126.6 31.2,126.8C31,127 30.9,127.3 31,127.5L30.1,128.4C29.9,128.3 29.6,128.4 29.4,128.6C29.1,128.9 29.1,129.4 29.4,129.7C29.6,129.9 29.9,130 30.1,129.9L31,130.9C30.9,131.2 31,131.4 31.2,131.6C31.4,131.8 31.7,131.9 31.9,131.8L32.8,132.7C32.7,133 32.8,133.2 33,133.4C33.3,133.7 33.8,133.7 34.1,133.4C34.3,133.2 34.4,132.9 34.3,132.7L35.2,131.8C35.4,131.9 35.7,131.8 35.9,131.7ZM33.3,132.3L32.4,131.4C32.4,131.3 32.4,131.1 32.4,131L33.3,130.1C33.4,130.1 33.6,130.1 33.7,130.1L34.6,131C34.6,131.1 34.6,131.3 34.6,131.4L33.7,132.3C33.6,132.2 33.4,132.2 33.3,132.3ZM30.5,129.1L31.4,128.2C31.5,128.2 31.7,128.2 31.8,128.2L32.7,129.2C32.7,129.3 32.7,129.4 32.7,129.6L31.8,130.6C31.7,130.6 31.6,130.6 31.4,130.6L30.5,129.6C30.6,129.3 30.6,129.2 30.5,129.1ZM35.5,124.4L36.4,125.4C36.4,125.5 36.4,125.6 36.4,125.8L35.5,126.8C35.4,126.8 35.3,126.8 35.1,126.8L34.2,125.8C34.2,125.7 34.2,125.5 34.2,125.4L35.1,124.5C35.3,124.4 35.4,124.4 35.5,124.4ZM38.3,127.2C38.3,127.3 38.3,127.5 38.3,127.6L37.4,128.5C37.3,128.5 37.1,128.5 37,128.5L36.1,127.6C36.1,127.5 36.1,127.3 36.1,127.2L37,126.3C37.1,126.3 37.3,126.3 37.4,126.3L38.3,127.2ZM35.2,130.4L34.3,129.5C34.3,129.4 34.3,129.2 34.3,129.1L35.2,128.2C35.3,128.2 35.5,128.2 35.6,128.2L36.5,129.1C36.5,129.2 36.5,129.4 36.5,129.5L35.6,130.4C35.4,130.4 35.3,130.4 35.2,130.4ZM33.7,126.3L34.6,127.3C34.6,127.4 34.6,127.5 34.6,127.7L33.7,128.7C33.6,128.7 33.5,128.7 33.3,128.7L32.4,127.7C32.4,127.6 32.4,127.4 32.4,127.3L33.3,126.4C33.4,126.3 33.6,126.3 33.7,126.3ZM38.3,124.5C38.9,125.1 39.1,125.9 39,126.7L38.9,126.7L38,125.8C38.1,125.5 38,125.3 37.8,125.1C37.6,124.9 37.3,124.8 37.1,124.9L36.2,123.9L36.2,123.8C36.9,123.7 37.7,123.9 38.3,124.5Z" style="fill:white;fill-rule:nonzero;"/>
        <path d="M19.7,112.4L28.6,121.4" style="fill:none;stroke:white;stroke-width:0.5px;"/>
        <path d="M-5,87.4L3.9,96.5" style="fill:none;stroke:white;stroke-width:0.5px;"/>
        <path d="M18.2,144.7L27.1,135.7" style="fill:none;stroke:white;stroke-width:0.5px;"/>
        <path d="M38.1,82.8C38.3,82.6 38.4,82.3 38.3,82.1L39.2,81.2C39.4,81.3 39.7,81.2 39.9,81C40.1,80.8 40.2,80.5 40.1,80.3L41,79.4C41.2,79.5 41.5,79.4 41.7,79.2C42,78.9 42,78.5 41.8,78.2C42,77.1 41.7,76 41,75.2C40.2,74.4 39.1,74.1 38,74.3C37.7,74.1 37.3,74.1 37,74.4C36.8,74.6 36.7,74.9 36.8,75.1L35.9,76C35.7,75.9 35.4,76 35.2,76.2C35,76.4 34.9,76.7 35,76.9L34,77.8C33.8,77.7 33.5,77.8 33.3,78C33.1,78.2 33,78.5 33.1,78.7L32.2,79.6C32,79.5 31.7,79.6 31.5,79.8C31.2,80.1 31.2,80.6 31.5,80.9C31.7,81.1 32,81.2 32.2,81.1L33.1,82.1C33,82.4 33.1,82.6 33.3,82.8C33.5,83 33.8,83.1 34,83L34.9,83.9C34.8,84.2 34.9,84.4 35.1,84.6C35.4,84.9 35.9,84.9 36.2,84.6C36.4,84.4 36.5,84.1 36.4,83.9L37.3,83C37.6,83.1 37.9,83 38.1,82.8ZM35.5,83.4L34.6,82.5C34.6,82.4 34.6,82.2 34.6,82.1L35.5,81.2C35.6,81.2 35.8,81.2 35.9,81.2L36.8,82.1C36.8,82.2 36.8,82.4 36.8,82.5L35.9,83.4C35.8,83.4 35.6,83.4 35.5,83.4ZM32.7,80.2L33.6,79.3C33.7,79.3 33.9,79.3 34,79.3L34.9,80.3C34.9,80.4 34.9,80.5 34.9,80.7L34,81.7C33.9,81.7 33.8,81.7 33.6,81.7L32.7,80.7C32.7,80.5 32.7,80.3 32.7,80.2ZM37.7,75.6L38.6,76.6C38.6,76.7 38.6,76.8 38.6,77L37.7,78C37.6,78 37.5,78 37.3,78L36.4,77C36.4,76.9 36.4,76.7 36.4,76.6L37.3,75.7C37.5,75.6 37.6,75.6 37.7,75.6ZM40.5,78.4C40.5,78.5 40.5,78.7 40.5,78.8L39.6,79.7C39.5,79.7 39.3,79.7 39.2,79.7L38.3,78.8C38.3,78.7 38.3,78.5 38.3,78.4L39.2,77.5C39.3,77.5 39.5,77.5 39.6,77.5L40.5,78.4ZM37.3,81.5L36.4,80.6C36.4,80.5 36.4,80.3 36.4,80.2L37.3,79.3C37.4,79.3 37.6,79.3 37.7,79.3L38.6,80.2C38.6,80.3 38.6,80.5 38.6,80.6L37.7,81.5C37.6,81.5 37.5,81.5 37.3,81.5ZM35.9,77.4L36.8,78.4C36.8,78.5 36.8,78.6 36.8,78.8L35.9,79.8C35.8,79.8 35.7,79.8 35.5,79.8L34.6,78.8C34.6,78.7 34.6,78.5 34.6,78.4L35.5,77.5C35.6,77.5 35.8,77.5 35.9,77.4ZM40.4,75.6C41,76.2 41.2,77 41.1,77.8L41,77.8L40.1,76.9C40.2,76.6 40.1,76.4 39.9,76.2C39.7,76 39.4,75.9 39.2,76L38.3,75L38.3,74.9C39,74.8 39.8,75 40.4,75.6Z" style="fill:white;fill-rule:nonzero;"/>
        <path d="M20.3,95.9L29.3,86.9" style="fill:none;stroke:white;stroke-width:0.5px;"/>
        <path d="M61.2,106.1C61.4,105.9 61.5,105.6 61.4,105.4L62.3,104.5C62.5,104.6 62.8,104.5 63,104.3C63.2,104.1 63.3,103.8 63.2,103.6L64.1,102.7C64.3,102.8 64.6,102.7 64.8,102.5C65.1,102.2 65.1,101.8 64.9,101.5C65.1,100.4 64.8,99.3 64.1,98.5C63.3,97.7 62.2,97.4 61.1,97.6C60.8,97.4 60.4,97.4 60.1,97.7C59.9,97.9 59.8,98.2 59.9,98.4L59,99.3C58.8,99.2 58.5,99.3 58.3,99.5C58.1,99.7 58,100 58.1,100.2L57.2,101.1C57,101 56.7,101.1 56.5,101.3C56.3,101.5 56.2,101.8 56.3,102L55.4,102.9C55.2,102.8 54.9,102.9 54.7,103.1C54.4,103.4 54.4,103.9 54.7,104.2C54.9,104.4 55.2,104.5 55.4,104.4L56.3,105.4C56.2,105.7 56.3,105.9 56.5,106.1C56.7,106.3 57,106.4 57.2,106.3L58.1,107.2C58,107.5 58.1,107.7 58.3,107.9C58.6,108.2 59.1,108.2 59.4,107.9C59.6,107.7 59.7,107.4 59.6,107.2L60.5,106.3C60.7,106.4 61,106.3 61.2,106.1ZM58.6,106.7L57.7,105.8C57.7,105.7 57.7,105.5 57.7,105.4L58.6,104.5C58.7,104.5 58.9,104.5 59,104.5L59.9,105.4C59.9,105.5 59.9,105.7 59.9,105.8L59,106.7C58.9,106.7 58.7,106.7 58.6,106.7ZM55.8,103.5L56.7,102.6C56.8,102.6 57,102.6 57.1,102.6L58,103.6C58,103.7 58,103.8 58,104L57.1,105C57,105 56.9,105 56.7,105L55.8,104C55.9,103.8 55.9,103.7 55.8,103.5ZM60.8,98.9L61.7,99.9C61.7,100 61.7,100.1 61.7,100.3L60.8,101.3C60.7,101.3 60.6,101.3 60.4,101.3L59.5,100.3C59.5,100.2 59.5,100 59.5,99.9L60.4,99C60.6,98.9 60.7,98.9 60.8,98.9ZM63.6,101.7C63.6,101.8 63.6,102 63.6,102.1L62.7,103C62.6,103 62.4,103 62.3,103L61.4,102.1C61.4,102 61.4,101.8 61.4,101.7L62.3,100.8C62.4,100.8 62.6,100.8 62.7,100.8L63.6,101.7ZM60.5,104.9L59.6,104C59.6,103.9 59.6,103.7 59.6,103.6L60.5,102.7C60.6,102.7 60.8,102.7 60.9,102.7L61.8,103.6C61.8,103.7 61.8,103.9 61.8,104L60.9,104.9C60.7,104.8 60.6,104.8 60.5,104.9ZM59,100.7L59.9,101.7C59.9,101.8 59.9,101.9 59.9,102.1L59,103.1C58.9,103.1 58.8,103.1 58.6,103.1L57.7,102.1C57.7,102 57.7,101.8 57.7,101.7L58.6,100.8C58.7,100.8 58.9,100.8 59,100.7ZM63.5,99C64.1,99.6 64.3,100.4 64.2,101.2L64.1,101.2L63.2,100.3C63.3,100 63.2,99.8 63,99.6C62.8,99.4 62.5,99.3 62.3,99.4L61.4,98.4L61.4,98.3C62.2,98.1 63,98.4 63.5,99Z" style="fill:white;fill-rule:nonzero;"/>
        <path d="M45,86.8L53.9,95.9" style="fill:none;stroke:white;stroke-width:0.5px;"/>
        <path d="M20.3,61.9L29.2,71" style="fill:none;stroke:white;stroke-width:0.5px;"/>
        <path d="M43.5,119.2L52.4,110.2" style="fill:none;stroke:white;stroke-width:0.5px;"/>
        <path d="M8.2,204.2C8.4,204 8.5,203.7 8.4,203.5L9.3,202.6C9.5,202.7 9.8,202.6 10,202.4C10.2,202.2 10.3,201.9 10.2,201.7L11.1,200.8C11.3,200.9 11.6,200.8 11.8,200.6C12.1,200.3 12.1,199.9 11.9,199.6C12.1,198.5 11.8,197.4 11.1,196.6C10.4,195.8 9.2,195.5 8.1,195.7C7.8,195.5 7.4,195.5 7.1,195.8C6.9,196 6.8,196.3 6.9,196.5L6,197.4C5.8,197.3 5.5,197.4 5.3,197.6C5.1,197.8 5,198.1 5.1,198.3L4.2,199.2C4,199.1 3.7,199.2 3.5,199.4C3.3,199.6 3.2,199.9 3.3,200.1L2.4,201C2.2,200.9 1.9,201 1.7,201.2C1.4,201.5 1.4,202 1.7,202.3C1.9,202.5 2.2,202.6 2.4,202.5L3.3,203.5C3.2,203.8 3.3,204 3.5,204.2C3.7,204.4 4,204.5 4.2,204.4L5.1,205.3C5,205.6 5.1,205.8 5.3,206C5.6,206.3 6.1,206.3 6.4,206C6.6,205.8 6.7,205.5 6.6,205.3L7.5,204.4C7.7,204.5 8,204.4 8.2,204.2ZM5.7,204.8L4.8,203.9C4.8,203.8 4.8,203.6 4.8,203.5L5.7,202.6C5.8,202.6 6,202.6 6.1,202.6L7,203.5C7,203.6 7,203.8 7,203.9L6,204.8C5.9,204.8 5.8,204.8 5.7,204.8ZM2.9,201.6L3.8,200.7C3.9,200.7 4.1,200.7 4.2,200.7L5.1,201.7C5.1,201.8 5.1,201.9 5.1,202.1L4.2,203.1C4.1,203.1 4,203.1 3.8,203.1L2.9,202.1C2.9,201.9 2.9,201.8 2.9,201.6ZM7.9,197L8.8,198C8.8,198.1 8.8,198.2 8.8,198.4L7.9,199.4C7.8,199.4 7.7,199.4 7.5,199.4L6.6,198.4C6.6,198.3 6.6,198.1 6.6,198L7.5,197.1C7.6,197 7.8,197 7.9,197ZM10.7,199.8C10.7,199.9 10.7,200.1 10.7,200.2L9.8,201.1C9.7,201.1 9.5,201.1 9.4,201.1L8.5,200.2C8.5,200.1 8.5,199.9 8.5,199.8L9.4,198.9C9.5,198.9 9.7,198.9 9.8,198.9L10.7,199.8ZM7.5,203L6.6,202C6.6,201.9 6.6,201.7 6.6,201.6L7.5,200.7C7.6,200.7 7.8,200.7 7.9,200.7L8.8,201.6C8.8,201.7 8.8,201.9 8.8,202L7.9,203C7.8,202.9 7.6,202.9 7.5,203ZM6,198.8L6.9,199.8C6.9,199.9 6.9,200 6.9,200.2L6,201.2C5.9,201.2 5.8,201.2 5.6,201.2L4.7,200.2C4.7,200.1 4.7,199.9 4.7,199.8L5.6,198.9C5.8,198.9 5.9,198.9 6,198.8ZM10.6,197C11.2,197.6 11.4,198.4 11.3,199.2L11.2,199.2L10.3,198.3C10.4,198 10.3,197.8 10.1,197.6C9.9,197.4 9.6,197.3 9.4,197.4L8.5,196.4L8.5,196.3C9.2,196.2 10,196.5 10.6,197Z" style="fill:white;fill-rule:nonzero;"/>
        <path d="M-8,184.9L1,194" style="fill:none;stroke:white;stroke-width:0.5px;"/>
        <path d="M32.7,179.5C32.9,179.3 33,179 32.9,178.8L33.8,177.9C34,178 34.3,177.9 34.5,177.7C34.7,177.5 34.8,177.2 34.7,177L35.6,176.1C35.8,176.2 36.1,176.1 36.3,175.9C36.6,175.6 36.6,175.2 36.4,174.9C36.6,173.8 36.3,172.7 35.6,171.9C34.9,171.1 33.7,170.8 32.6,171C32.3,170.8 31.9,170.8 31.6,171.1C31.4,171.3 31.3,171.6 31.4,171.8L30.5,172.7C30.3,172.6 30,172.7 29.8,172.9C29.6,173.1 29.5,173.4 29.6,173.6L28.7,174.5C28.5,174.4 28.2,174.5 28,174.7C27.8,174.9 27.7,175.2 27.8,175.4L26.9,176.3C26.7,176.2 26.4,176.3 26.2,176.5C25.9,176.8 25.9,177.3 26.2,177.6C26.4,177.8 26.7,177.9 26.9,177.8L27.8,178.8C27.7,179.1 27.8,179.3 28,179.5C28.2,179.7 28.5,179.8 28.7,179.7L29.6,180.6C29.5,180.9 29.6,181.1 29.8,181.3C30.1,181.6 30.6,181.6 30.9,181.3C31.1,181.1 31.2,180.8 31.1,180.6L32,179.7C32.2,179.8 32.5,179.7 32.7,179.5ZM30.2,180.1L29.3,179.2C29.3,179.1 29.3,178.9 29.3,178.8L30.2,177.9C30.3,177.9 30.5,177.9 30.6,177.9L31.5,178.8C31.5,178.9 31.5,179.1 31.5,179.2L30.6,180.1C30.4,180.1 30.3,180.1 30.2,180.1ZM27.4,176.9L28.3,176C28.4,176 28.6,176 28.7,176L29.6,177C29.6,177.1 29.6,177.2 29.6,177.4L28.7,178.4C28.6,178.4 28.5,178.4 28.3,178.4L27.4,177.4C27.4,177.2 27.4,177 27.4,176.9ZM32.4,172.3L33.3,173.3C33.3,173.4 33.3,173.5 33.3,173.7L32.4,174.7C32.3,174.7 32.2,174.7 32,174.7L31.1,173.7C31.1,173.6 31.1,173.4 31.1,173.3L32,172.4C32.1,172.3 32.3,172.3 32.4,172.3ZM35.2,175.1C35.2,175.2 35.2,175.4 35.2,175.5L34.3,176.4C34.2,176.4 34,176.4 33.9,176.4L33,175.5C33,175.4 33,175.2 33,175.1L33.9,174.2C34,174.2 34.2,174.2 34.3,174.2L35.2,175.1ZM32,178.2L31.1,177.3C31.1,177.2 31.1,177 31.1,176.9L32,176C32.1,176 32.3,176 32.4,176L33.3,176.9C33.3,177 33.3,177.2 33.3,177.3L32.4,178.2C32.3,178.2 32.1,178.2 32,178.2ZM30.5,174.1L31.4,175.1C31.4,175.2 31.4,175.3 31.4,175.5L30.5,176.5C30.4,176.5 30.3,176.5 30.1,176.5L29.2,175.5C29.2,175.4 29.2,175.2 29.2,175.1L30.1,174.2C30.3,174.1 30.4,174.1 30.5,174.1ZM35.1,172.3C35.7,172.9 35.9,173.7 35.8,174.5L35.7,174.5L34.8,173.6C34.9,173.3 34.8,173.1 34.6,172.9C34.4,172.7 34.1,172.6 33.9,172.7L33,171.7L33,171.6C33.7,171.5 34.5,171.7 35.1,172.3Z" style="fill:white;fill-rule:nonzero;"/>
        <path d="M16.5,160.2L25.5,169.3" style="fill:none;stroke:white;stroke-width:0.5px;"/>
        <path d="M15,192.6L24,183.6" style="fill:none;stroke:white;stroke-width:0.5px;"/>
        <path d="M58,154C58.2,153.8 58.3,153.5 58.2,153.3L59.1,152.4C59.3,152.5 59.6,152.4 59.8,152.2C60,152 60.1,151.7 60,151.5L60.9,150.6C61.1,150.7 61.4,150.6 61.6,150.4C61.9,150.1 61.9,149.7 61.7,149.4C61.9,148.3 61.6,147.2 60.9,146.4C60.1,145.6 59,145.3 57.9,145.5C57.6,145.3 57.2,145.3 56.9,145.6C56.7,145.8 56.6,146.1 56.7,146.3L55.8,147.2C55.6,147.1 55.3,147.2 55.1,147.4C54.9,147.6 54.8,147.9 54.9,148.1L54,149C53.8,148.9 53.5,149 53.3,149.2C53.1,149.4 53,149.7 53.1,149.9L52.2,150.8C52,150.7 51.7,150.8 51.5,151C51.2,151.3 51.2,151.8 51.5,152.1C51.7,152.3 52,152.4 52.2,152.3L53.1,153.3C53,153.6 53.1,153.8 53.3,154C53.5,154.2 53.8,154.3 54,154.2L54.9,155.1C54.8,155.4 54.9,155.6 55.1,155.8C55.4,156.1 55.9,156.1 56.2,155.8C56.4,155.6 56.5,155.3 56.4,155.1L57.3,154.2C57.5,154.2 57.8,154.2 58,154ZM55.5,154.6L54.6,153.7C54.6,153.6 54.6,153.4 54.6,153.3L55.5,152.4C55.6,152.4 55.8,152.4 55.9,152.4L56.8,153.3C56.8,153.4 56.8,153.6 56.8,153.7L55.9,154.6C55.7,154.6 55.6,154.6 55.5,154.6ZM52.7,151.4L53.6,150.5C53.7,150.5 53.9,150.5 54,150.5L54.9,151.5C54.9,151.6 54.9,151.7 54.9,151.9L54,152.9C53.9,152.9 53.8,152.9 53.6,152.9L52.7,151.9C52.7,151.7 52.7,151.5 52.7,151.4ZM57.7,146.7L58.6,147.7C58.6,147.8 58.6,147.9 58.6,148.1L57.7,149.1C57.6,149.1 57.5,149.1 57.3,149.1L56.4,148.1C56.4,148 56.4,147.8 56.4,147.7L57.3,146.8C57.4,146.8 57.6,146.8 57.7,146.7ZM60.5,149.5C60.5,149.6 60.5,149.8 60.5,149.9L59.6,150.8C59.5,150.8 59.3,150.8 59.2,150.8L58.3,149.9C58.3,149.8 58.3,149.6 58.3,149.5L59.2,148.6C59.3,148.6 59.5,148.6 59.6,148.6L60.5,149.5ZM57.3,152.7L56.4,151.8C56.4,151.7 56.4,151.5 56.4,151.4L57.3,150.5C57.4,150.5 57.6,150.5 57.7,150.5L58.6,151.4C58.6,151.5 58.6,151.7 58.6,151.8L57.7,152.7C57.6,152.7 57.4,152.7 57.3,152.7ZM55.8,148.6L56.7,149.6C56.7,149.7 56.7,149.8 56.7,150L55.8,151C55.7,151 55.6,151 55.4,151L54.5,150C54.5,149.9 54.5,149.7 54.5,149.6L55.4,148.7C55.6,148.6 55.7,148.6 55.8,148.6ZM60.4,146.8C61,147.4 61.2,148.2 61.1,149L61,149L60.1,148.1C60.2,147.8 60.1,147.6 59.9,147.4C59.7,147.2 59.4,147.1 59.2,147.2L58.3,146.2L58.3,146.1C59,146 59.8,146.2 60.4,146.8Z" style="fill:white;fill-rule:nonzero;"/>
        <path d="M41.8,134.7L50.8,143.7" style="fill:none;stroke:white;stroke-width:0.5px;"/>
        <path d="M40.3,167.1L49.3,158" style="fill:none;stroke:white;stroke-width:0.5px;"/>
        <path d="M83.3,128.5C83.5,128.3 83.6,128 83.5,127.8L84.4,126.9C84.6,127 84.9,126.9 85.1,126.7C85.3,126.5 85.4,126.2 85.3,126L86.2,125.1C86.4,125.2 86.7,125.1 86.9,124.9C87.2,124.6 87.2,124.2 87,123.9C87.2,122.8 86.9,121.7 86.2,120.9C85.4,120.1 84.3,119.8 83.2,120C82.9,119.8 82.5,119.8 82.2,120.1C82,120.3 81.9,120.6 82,120.8L81.1,121.7C80.9,121.6 80.6,121.7 80.4,121.9C80.2,122.1 80.1,122.4 80.2,122.6L79.3,123.5C79.1,123.4 78.8,123.5 78.6,123.7C78.4,123.9 78.3,124.2 78.4,124.4L77.5,125.3C77.3,125.2 77,125.3 76.8,125.5C76.5,125.8 76.5,126.3 76.8,126.6C77,126.8 77.3,126.9 77.5,126.8L78.4,127.8C78.3,128.1 78.4,128.3 78.6,128.5C78.8,128.7 79.1,128.8 79.3,128.7L80.2,129.6C80.1,129.9 80.2,130.1 80.4,130.3C80.7,130.6 81.2,130.6 81.5,130.3C81.7,130.1 81.8,129.8 81.7,129.6L82.6,128.7C82.8,128.7 83.1,128.7 83.3,128.5ZM80.7,129.1L79.8,128.2C79.8,128.1 79.8,127.9 79.8,127.8L80.7,126.9C80.8,126.9 81,126.9 81.1,126.9L82,127.8C82,127.9 82,128.1 82,128.2L81.1,129.1C81,129 80.9,129 80.7,129.1ZM78,125.9L78.9,125C79,125 79.2,125 79.3,125L80.2,126C80.2,126.1 80.2,126.2 80.2,126.4L79.3,127.4C79.2,127.4 79.1,127.4 78.9,127.4L78,126.4C78,126.1 78,126 78,125.9ZM83,121.2L83.9,122.2C83.9,122.3 83.9,122.4 83.9,122.6L83,123.6C82.9,123.6 82.8,123.6 82.6,123.6L81.7,122.6C81.7,122.5 81.7,122.3 81.7,122.2L82.6,121.3C82.7,121.2 82.8,121.2 83,121.2ZM85.8,124C85.8,124.1 85.8,124.3 85.8,124.4L84.9,125.3C84.8,125.3 84.6,125.3 84.5,125.3L83.6,124.4C83.6,124.3 83.6,124.1 83.6,124L84.5,123.1C84.6,123.1 84.8,123.1 84.9,123.1L85.8,124ZM82.6,127.2L81.7,126.3C81.7,126.2 81.7,126 81.7,125.9L82.6,125C82.7,125 82.9,125 83,125L83.9,125.9C83.9,126 83.9,126.2 83.9,126.3L83,127.2C82.8,127.2 82.7,127.2 82.6,127.2ZM81.1,123.1L82,124.1C82,124.2 82,124.3 82,124.5L81.1,125.5C81,125.5 80.9,125.5 80.7,125.5L79.8,124.5C79.8,124.4 79.8,124.2 79.8,124.1L80.7,123.2C80.9,123.1 81,123.1 81.1,123.1ZM85.7,121.3C86.3,121.9 86.5,122.7 86.4,123.5L86.3,123.5L85.4,122.6C85.5,122.3 85.4,122.1 85.2,121.9C85,121.7 84.7,121.6 84.5,121.7L83.6,120.7L83.6,120.6C84.3,120.5 85.1,120.7 85.7,121.3Z" style="fill:white;fill-rule:nonzero;"/>
        <path d="M67.1,109.2L76,118.2" style="fill:none;stroke:white;stroke-width:0.5px;"/>
        <path d="M65.6,141.6L74.6,132.5" style="fill:none;stroke:white;stroke-width:0.5px;"/>
    </g>
</svg>
