<?xml version="1.0" encoding="UTF-8" standalone="no"?>
<!DOCTYPE svg PUBLIC "-//W3C//DTD SVG 1.1//EN" "http://www.w3.org/Graphics/SVG/1.1/DTD/svg11.dtd">
<svg width="100%" height="100%" viewBox="0 0 168 250" version="1.1" xmlns="http://www.w3.org/2000/svg" xmlns:xlink="http://www.w3.org/1999/xlink" xml:space="preserve" xmlns:serif="http://www.serif.com/" style="fill-rule:evenodd;clip-rule:evenodd;stroke-linejoin:round;stroke-miterlimit:1.41421;">
    <rect x="-5.7" y="-5.7" width="178.6" height="260.8" style="fill:rgb(118,116,177);"/>
    <g>
        <g>
            <g transform="matrix(-0.6586,0.7525,-0.7525,-0.6586,293.982,123.027)">
                <rect x="115.6" y="112.2" width="7" height="32.1" style="fill:rgb(241,242,242);"/>
            </g>
            <circle cx="134.3" cy="136.3" r="5.2" style="fill:rgb(241,242,242);"/>
            <circle cx="128.8" cy="142.6" r="5.2" style="fill:rgb(241,242,242);"/>
        </g>
        <g>
            <path d="M50.9,73.3L55.6,66.7L128.6,118.2L107.9,136.3L50.9,73.3Z" style="fill:rgb(233,203,188);fill-rule:nonzero;"/>
            <path d="M50.4,73.5L55.9,66.2L87.7,88.7L74.2,101.6L50.4,73.5Z" style="fill:rgb(241,242,242);fill-rule:nonzero;"/>
            <path d="M70.7,97.7L83.1,85.4L87.7,88.7L74.2,101.6L70.7,97.7Z" style="fill:rgb(230,231,232);fill-rule:nonzero;"/>
            <g>
                <path d="M68.5,62.4C68.2,63.8 68.8,65.8 69.8,66.8L75.7,72.4C76.7,73.4 76.5,74.7 75.2,75.2L54.2,84C52.9,84.6 50.8,84.3 49.6,83.5L39.8,76.5C38.6,75.7 38.3,74 39.2,72.8L49.8,58C50.6,56.8 52,55 52.7,53.8C53.5,52.7 54.8,50.8 55.6,49.6L71.3,27.5C72.1,26.3 73.6,25.9 74.6,26.6C75.6,27.3 76.1,29 75.8,30.4L68.5,62.4Z" style="fill:rgb(81,86,159);fill-rule:nonzero;"/>
                <path d="M68.9,24.6L35.7,71.4C35.1,72.2 35.3,73.4 36.1,74C36.9,74.6 38.1,74.4 38.7,73.6L71.9,26.8C72.5,26 72.3,24.8 71.5,24.2C70.6,23.6 69.5,23.8 68.9,24.6Z" style="fill:rgb(77,72,158);fill-rule:nonzero;"/>
                <path d="M68.9,60.9L63.7,61.8C63,61.9 62.3,61.4 62.2,60.7C62.1,60 62.6,59.3 63.3,59.2L69.6,58.1L68.9,60.9Z" style="fill:white;fill-rule:nonzero;"/>
                <path d="M70.4,54.2L65.8,55C65.1,55.1 64.4,54.6 64.3,53.9C64.2,53.2 64.7,52.5 65.4,52.4L71.1,51.4L70.4,54.2Z" style="fill:white;fill-rule:nonzero;"/>
                <path d="M71.7,48.5L68.5,49C67.8,49.1 67.1,48.6 67,47.9C66.9,47.2 67.4,46.5 68.1,46.4L72.3,45.7L71.7,48.5Z" style="fill:white;fill-rule:nonzero;"/>
            </g>
        </g>
    </g>
    <circle cx="20.8" cy="39.2" r="2.6" style="fill:rgb(186,48,51);"/>
    <g transform="matrix(1,0,0,1,15.3198,29.7173)">
        <path d="M9.756,-10.508C9.756,-9.766 9.548,-9.116 9.131,-8.56C8.714,-8.003 8.151,-7.588 7.441,-7.314C8.262,-7.028 8.918,-6.579 9.409,-5.967C9.901,-5.355 10.146,-4.648 10.146,-3.848C10.146,-2.533 9.718,-1.528 8.862,-0.835C8.006,-0.142 6.895,0.205 5.527,0.205C4.134,0.205 3.014,-0.142 2.168,-0.835C1.322,-1.528 0.898,-2.533 0.898,-3.848C0.898,-4.648 1.139,-5.355 1.621,-5.967C2.103,-6.579 2.754,-7.028 3.574,-7.314C2.865,-7.588 2.308,-8.003 1.904,-8.56C1.501,-9.116 1.299,-9.766 1.299,-10.508C1.299,-11.758 1.685,-12.723 2.456,-13.403C3.228,-14.084 4.245,-14.424 5.508,-14.424C6.758,-14.424 7.778,-14.084 8.569,-13.403C9.36,-12.723 9.756,-11.758 9.756,-10.508ZM8.232,-3.887C8.232,-4.668 7.975,-5.309 7.461,-5.811C6.947,-6.312 6.296,-6.563 5.508,-6.563C4.714,-6.563 4.067,-6.313 3.569,-5.815C3.071,-5.317 2.822,-4.674 2.822,-3.887C2.822,-3.079 3.068,-2.446 3.56,-1.987C4.051,-1.528 4.707,-1.299 5.527,-1.299C6.328,-1.299 6.979,-1.53 7.48,-1.992C7.982,-2.454 8.232,-3.086 8.232,-3.887ZM7.832,-10.469C7.832,-11.172 7.612,-11.755 7.173,-12.217C6.733,-12.679 6.178,-12.91 5.508,-12.91C4.824,-12.91 4.272,-12.687 3.853,-12.241C3.433,-11.795 3.223,-11.204 3.223,-10.469C3.223,-9.746 3.434,-9.167 3.857,-8.73C4.281,-8.294 4.837,-8.076 5.527,-8.076C6.204,-8.076 6.758,-8.294 7.188,-8.73C7.617,-9.167 7.832,-9.746 7.832,-10.469Z" style="fill-rule:nonzero;"/>
    </g>
    <circle cx="146.4" cy="210.3" r="2.6" style="fill:rgb(186,48,51);"/>
    <g transform="matrix(-1,0,0,-1,151.926,219.742)">
        <path d="M9.756,-10.508C9.756,-9.766 9.548,-9.116 9.131,-8.56C8.714,-8.003 8.151,-7.588 7.441,-7.314C8.262,-7.028 8.918,-6.579 9.409,-5.967C9.901,-5.355 10.146,-4.648 10.146,-3.848C10.146,-2.533 9.718,-1.528 8.862,-0.835C8.006,-0.142 6.895,0.205 5.527,0.205C4.134,0.205 3.014,-0.142 2.168,-0.835C1.322,-1.528 0.898,-2.533 0.898,-3.848C0.898,-4.648 1.139,-5.355 1.621,-5.967C2.103,-6.579 2.754,-7.028 3.574,-7.314C2.865,-7.588 2.308,-8.003 1.904,-8.56C1.501,-9.116 1.299,-9.766 1.299,-10.508C1.299,-11.758 1.685,-12.723 2.456,-13.403C3.228,-14.084 4.245,-14.424 5.508,-14.424C6.758,-14.424 7.778,-14.084 8.569,-13.403C9.36,-12.723 9.756,-11.758 9.756,-10.508ZM8.232,-3.887C8.232,-4.668 7.975,-5.309 7.461,-5.811C6.947,-6.312 6.296,-6.563 5.508,-6.563C4.714,-6.563 4.067,-6.313 3.569,-5.815C3.071,-5.317 2.822,-4.674 2.822,-3.887C2.822,-3.079 3.068,-2.446 3.56,-1.987C4.051,-1.528 4.707,-1.299 5.527,-1.299C6.328,-1.299 6.979,-1.53 7.48,-1.992C7.982,-2.454 8.232,-3.086 8.232,-3.887ZM7.832,-10.469C7.832,-11.172 7.612,-11.755 7.173,-12.217C6.733,-12.679 6.178,-12.91 5.508,-12.91C4.824,-12.91 4.272,-12.687 3.853,-12.241C3.433,-11.795 3.223,-11.204 3.223,-10.469C3.223,-9.746 3.434,-9.167 3.857,-8.73C4.281,-8.294 4.837,-8.076 5.527,-8.076C6.204,-8.076 6.758,-8.294 7.188,-8.73C7.617,-9.167 7.832,-9.746 7.832,-10.469Z" style="fill-rule:nonzero;"/>
    </g>
    <g transform="matrix(1,0,0,1,46.2383,166.637)">
        <path d="M66.855,-74.238C66.855,-68.678 65.158,-63.825 61.763,-59.678C58.368,-55.531 53.913,-52.614 48.398,-50.928C54.733,-49.196 59.871,-46.097 63.813,-41.631C67.756,-37.165 69.727,-31.924 69.727,-25.908C69.727,-17.158 66.753,-10.413 60.806,-5.674C54.858,-0.934 47.282,1.436 38.076,1.436C28.688,1.436 21.043,-0.934 15.142,-5.674C9.24,-10.413 6.289,-17.158 6.289,-25.908C6.289,-31.969 8.215,-37.233 12.065,-41.699C15.916,-46.165 21.032,-49.242 27.412,-50.928C21.852,-52.614 17.409,-55.519 14.082,-59.644C10.755,-63.768 9.092,-68.633 9.092,-74.238C9.092,-82.624 11.792,-89.175 17.192,-93.892C22.593,-98.608 29.508,-100.967 37.939,-100.967C46.279,-100.967 53.184,-98.597 58.652,-93.857C64.121,-89.118 66.855,-82.578 66.855,-74.238ZM65.967,-25.566C65.967,-32.585 63.278,-38.258 57.9,-42.588C52.523,-46.917 45.869,-49.082 37.939,-49.082C29.873,-49.082 23.197,-46.917 17.91,-42.588C12.624,-38.258 9.98,-32.585 9.98,-25.566C9.98,-18.229 12.601,-12.51 17.842,-8.408C23.083,-4.307 29.827,-2.256 38.076,-2.256C46.097,-2.256 52.751,-4.318 58.037,-8.442C63.324,-12.567 65.967,-18.275 65.967,-25.566ZM63.164,-74.58C63.164,-81.097 60.726,-86.509 55.85,-90.815C50.973,-95.122 45.003,-97.275 37.939,-97.275C30.602,-97.275 24.575,-95.213 19.858,-91.089C15.142,-86.965 12.783,-81.462 12.783,-74.58C12.783,-67.926 15.153,-62.629 19.893,-58.687C24.632,-54.744 30.693,-52.773 38.076,-52.773C45.231,-52.773 51.201,-54.756 55.986,-58.721C60.771,-62.686 63.164,-67.972 63.164,-74.58Z" style="fill-rule:nonzero;"/>
    </g>
    <g>
        <g>
            <g transform="matrix(-0.8288,-0.5595,0.5595,-0.8288,-28.2999,416.538)">
                <rect x="46.9" y="200.2" width="5.4" height="24.9" style="fill:rgb(241,242,242);"/>
            </g>
            <circle cx="44.8" cy="225.1" r="4" style="fill:rgb(241,242,242);"/>
            <circle cx="39.4" cy="221.4" r="4" style="fill:rgb(241,242,242);"/>
        </g>
        <g>
            <path d="M98.3,153.4C97.3,152.8 96,153.1 95.4,154.1L93.3,157.5C92.9,158.2 91.5,157.7 92.4,156.2C92.9,155.4 97.8,147.5 97.8,147.5C98.4,146.5 98.1,145.2 97.1,144.6C96.1,144 94.8,144.3 94.2,145.3L89.5,152.9C88.8,154 87.6,153.2 88.4,151.9C88.8,151.3 93.9,143.1 93.9,143.1C94.5,142.1 94.2,140.8 93.2,140.2C92.2,139.6 90.9,139.9 90.3,140.9L85,149.4C84,150.6 83.3,149.5 83.8,148.7C84.1,148.2 87.1,143.4 87.1,143.4C87.7,142.4 87.4,141.1 86.4,140.5C85.4,139.9 84.1,140.2 83.5,141.2C81.2,145 75.1,156 74.4,153.2L73,147.4C72.7,146.3 71.6,145.5 70.4,145.8C69.3,146.1 68.5,147.2 68.8,148.4L70.7,156.3C71.1,157.6 71.7,158.9 71.4,160.7C60.9,176.6 75.4,196.7 90.3,170.8L94.9,163.4L99.2,156.5C99.6,155.3 99.3,154 98.3,153.4Z" style="fill:rgb(191,143,126);fill-rule:nonzero;"/>
            <circle cx="85" cy="142.3" r="1.8" style="fill:rgb(106,199,187);"/>
            <circle cx="91.9" cy="142" r="1.8" style="fill:rgb(106,199,187);"/>
            <circle cx="95.8" cy="146.5" r="1.8" style="fill:rgb(106,199,187);"/>
            <circle cx="97.2" cy="155.3" r="1.8" style="fill:rgb(106,199,187);"/>
            <path d="M68.7,148.2L68.9,149.3L69.1,150.3C70,150.1 70.6,149.1 70.4,148.2C70.2,147.4 69.6,146.9 68.8,146.9C68.7,147.2 68.6,147.7 68.7,148.2Z" style="fill:rgb(106,199,187);fill-rule:nonzero;"/>
        </g>
        <path d="M62.2,223.9L60.9,217.7L55.7,218.8L54.6,213.6L49.3,214.7L48.2,209.4L42.3,210.6L41,204.7L39.2,205.1L40.2,209.1L35.1,210.4" style="fill:none;"/>
        <path d="M48.2,209.4L49.3,214.7L54.6,213.6L55.7,218.8L60.1,217.8L88.6,174.4L69.5,161.9L41.1,205.1L42.3,210.6L48.2,209.4Z" style="fill:rgb(197,90,78);fill-rule:nonzero;"/>
        <g>
            <g opacity="0.5">
                <clipPath id="_clip1">
                    <path d="M37.6,210.4L69.5,161.9L88.6,174.4L56.7,222.9"/>
                </clipPath>
                <g clip-path="url(#_clip1)">
                    <path d="M41.8,193.1L41.1,194.2M42.7,191.7L42.1,192.7M43.6,190.3L43,191.3M44.7,188.6L43.9,189.8M49.9,180.9L46.7,185.8M53.4,175.6L52.8,176.6M54.4,174.2L53.8,175.2M55.5,172.5L54.7,173.7M40.5,204.8L43.7,200L44.7,200.6L41.5,205.5L41.3,205.4L42.4,210.6L47.5,209.5L47.3,209.3L50.5,204.4L55.4,207.6L52.2,212.5L48.5,210.1L49.5,214.6L54.8,213.5L55.9,218.7L60.2,217.8L59.6,217.4L62.8,212.5L63.9,213.2L61,217.6L61.1,217.6L74,204L88,183L89.3,183.9L91.2,181.1L89.9,180.2L90.6,179.1L91.9,180L92.2,179.6L90.9,178.7L91.5,177.7L92.8,178.6L93.1,178.2L91.8,177.3L92.4,176.3L93.7,177.2L94,176.8L92.7,175.9L93.5,174.7L94.8,175.6L96.7,172.8L95.4,171.9L96.2,170.7L93.4,168.8L92.6,170L91.5,169.3L92.3,168.1L91.9,167.8L91.1,169L90.1,168.4L90.9,167.2L90.5,166.9L89.7,168.1L88.7,167.5L89.5,166.3L89.1,166L88.3,167.2L87.1,166.4L87.9,165.2L85,163L84.2,164.2L79.3,161L80.1,159.8L77.3,157.9L76.5,159.1L75.4,158.4L76.2,157.2L75.8,156.9L75,158.1L74,157.5L74.8,156.3L74.4,156L73.6,157.2L72.6,156.6L73.4,155.4L73,155L72.2,156.2L71,155.4L71.8,154.2L69,152.3L68.2,153.5L67,152.7L65.1,155.5L66.3,156.3L65.5,157.5L64.3,156.7L64,157.1L65.2,157.9L64.6,158.9L63.4,158.1L63.1,158.5L64.3,159.3L63.7,160.3L62.5,159.5L62,160L63.2,160.8L62.5,161.9L61.3,161.1L59.4,163.9L60.6,164.7L57.4,169.6L56.2,168.8M88.2,171L89.2,171.6L88.4,172.8L87.4,172.2L88.2,171ZM88.1,173.3L87.5,174.3L86.5,173.7L87.1,172.7L88.1,173.3ZM84.8,175.2L84.1,176.3L83.1,175.7L83.8,174.6L84.8,175.2ZM84.1,174.1L84.7,173.1L85.7,173.7L85.1,174.7L84.1,174.1ZM82.2,179.1L79,184L78,183.4L81.2,178.5L82.2,179.1ZM77,186.8L76.2,188L75.2,187.4L76,186.2L77,186.8ZM75.9,188.5L75.3,189.5L74.3,188.9L74.9,187.9L75.9,188.5ZM72.4,191.8L73.1,190.7L74.1,191.3L73.4,192.4L72.4,191.8ZM71.5,195.2L68.3,200.1L67.3,199.5L70.5,194.6L71.5,195.2ZM73.4,190.2L74,189.2L75,189.8L74.4,190.8L73.4,190.2ZM74.8,187.1L73.6,186.3L74.4,185.1L75.6,185.9L74.8,187.1ZM74.5,187.6L73.9,188.6L72.7,187.8L73.3,186.8L74.5,187.6ZM73.6,189L73,190L71.8,189.2L72.4,188.2L73.6,189ZM72.7,190.4L72,191.5L70.8,190.7L71.5,189.6L72.7,190.4ZM70.1,194.3L66.9,199.2L65.7,198.4L68.9,193.5L70.1,194.3ZM60.6,177.6L61.4,176.4L62.4,177L61.6,178.2L60.6,177.6ZM61.2,178.7L60.6,179.7L59.6,179.1L60.2,178.1L61.2,178.7ZM63.3,173.6L66.5,168.7L67.5,169.3L64.3,174.2L63.3,173.6ZM67.9,169.6L69,170.3L65.8,175.2L64.7,174.5L67.9,169.6ZM63.7,184.4L68.6,187.6L67.9,188.7L63,185.5L63.7,184.4ZM69.5,186.3L68.9,187.3L64,184L64.6,183L69.5,186.3ZM65,182.6L65.6,181.6L70.5,184.8L69.9,185.8L65,182.6ZM62.6,202.9L63.8,203.7L63.2,204.7L62,203.9L62.6,202.9ZM62.9,202.4L63.7,201.2L64.9,202L64.1,203.2L62.9,202.4ZM70.8,184.4L65.9,181.2L66.7,180L71.6,183.2L70.8,184.4ZM71.9,166L70.8,165.3L71.4,164.3L72.5,165L71.9,166ZM71.6,166.4L70.9,167.5L69.8,166.8L70.5,165.7L71.6,166.4ZM70.4,165L69.4,164.4L70,163.4L71,164L70.4,165ZM70.1,165.4L69.4,166.5L68.4,165.9L69.1,164.8L70.1,165.4ZM69,164L68,163.4L68.6,162.4L69.6,163L69,164ZM68.7,164.5L68,165.6L67,165L67.7,163.9L68.7,164.5ZM66,168.4L62.8,173.3L61.8,172.7L65,167.8L66,168.4ZM60.9,176.1L60.1,177.3L59.1,176.7L59.9,175.5L60.9,176.1ZM59.8,177.8L59.2,178.8L58.2,178.2L58.8,177.2L59.8,177.8ZM58.9,179.2L58.3,180.2L57.3,179.6L57.9,178.6L58.9,179.2ZM58,180.6L57.3,181.7L56.3,181.1L57,180L58,180.6ZM55.3,184.5L52.1,189.4L51.1,188.8L54.3,183.9L55.3,184.5ZM50.2,192.2L49.4,193.4L48.4,192.8L49.2,191.6L50.2,192.2ZM49.1,193.9L48.5,194.9L47.5,194.3L48.1,193.3L49.1,193.9ZM48.2,195.3L47.6,196.3L46.6,195.7L47.2,194.7L48.2,195.3ZM47.7,197L48.7,197.6L48,198.7L47,198.1L47.7,197ZM48,196.6L48.6,195.6L49.6,196.2L49,197.2L48,196.6ZM48.9,195.2L49.5,194.2L50.5,194.8L49.9,195.8L48.9,195.2ZM49.9,193.8L50.7,192.6L51.7,193.2L50.9,194.4L49.9,193.8ZM52.6,189.7L55.8,184.8L56.8,185.4L53.6,190.3L52.6,189.7ZM57.7,182L58.4,180.9L59.4,181.5L58.7,182.6L57.7,182ZM58.7,180.4L59.3,179.4L60.3,180L59.7,181L58.7,180.4ZM59.8,181.8L60.9,182.5L60.2,183.6L59.1,182.9L59.8,181.8ZM60.1,181.4L60.7,180.4L61.8,181.1L61.2,182.1L60.1,181.4ZM61,180L61.6,179L62.7,179.7L62.1,180.7L61,180ZM62,178.6L62.8,177.4L63.9,178.1L63.1,179.3L62,178.6ZM61.1,188.4L66,191.6L62.8,196.5L57.9,193.3L61.1,188.4ZM60.7,205.7L61.9,206.5L61.2,207.6L60,206.8L60.7,205.7ZM61,205.2L61.6,204.2L62.8,205L62.2,206L61,205.2ZM62.4,206.8L63.4,207.4L62.7,208.5L61.7,207.9L62.4,206.8ZM62.7,206.3L63.3,205.3L64.3,205.9L63.7,206.9L62.7,206.3ZM63.6,204.9L64.2,203.9L65.2,204.5L64.6,205.5L63.6,204.9ZM64.6,203.5L65.4,202.3L66.4,202.9L65.6,204.1L64.6,203.5ZM65.7,204.9L66.7,205.5L66.1,206.5L65.1,205.9L65.7,204.9ZM66,204.5L66.8,203.3L67.8,203.9L67,205.1L66,204.5ZM68.7,200.4L71.9,195.5L72.9,196.1L69.7,201L68.7,200.4ZM73.8,192.7L74.5,191.6L75.5,192.2L74.8,193.3L73.8,192.7ZM74.8,191.1L75.4,190.1L76.4,190.7L75.8,191.7L74.8,191.1ZM75.8,189.7L76.4,188.7L77.4,189.3L76.8,190.3L75.8,189.7ZM76.7,188.3L77.5,187.1L78.5,187.7L77.7,188.9L76.7,188.3ZM79.4,184.3L82.6,179.4L83.6,180L80.4,184.9L79.4,184.3ZM84.5,176.6L85.2,175.5L86.2,176.1L85.5,177.2L84.5,176.6ZM85.5,175L86.1,174L87.1,174.6L86.5,175.6L85.5,175ZM86.8,170.1L87.8,170.7L87,171.9L86,171.3L86.8,170.1ZM86.6,172.4L86,173.4L85,172.8L85.6,171.8L86.6,172.4ZM85.1,169L86.3,169.8L85.5,171L84.3,170.2L85.1,169ZM84,170.6L85.2,171.4L84.6,172.4L83.4,171.6L84,170.6ZM83.1,172L84.3,172.8L83.7,173.8L82.5,173L83.1,172ZM82.2,173.4L83.4,174.2L82.7,175.3L81.5,174.5L82.2,173.4ZM79.5,177.4L80.7,178.2L77.5,183.1L76.3,182.3L79.5,177.4ZM77.4,163.9L82.3,167.1L81.5,168.3L76.6,165.1L77.4,163.9ZM76.3,165.5L81.2,168.7L80.6,169.7L75.7,166.5L76.3,165.5ZM75.4,166.9L80.3,170.1L79.7,171.1L74.8,167.9L75.4,166.9ZM74.5,168.3L79.4,171.5L78.7,172.6L73.8,169.4L74.5,168.3ZM71.8,172.3L76.7,175.5L73.5,180.4L68.6,177.2L71.8,172.3ZM73.5,161.2L74.6,161.9L73.8,163.1L72.7,162.4L73.5,161.2ZM73.5,163.6L72.9,164.6L71.8,163.9L72.4,162.9L73.5,163.6ZM72.1,160.3L73.1,160.9L72.3,162.1L71.3,161.5L72.1,160.3ZM71.9,162.6L71.3,163.6L70.3,163L70.9,162L71.9,162.6ZM70.7,159.4L71.7,160L70.9,161.2L69.9,160.6L70.7,159.4ZM70.5,161.7L69.9,162.7L68.9,162.1L69.5,161.1L70.5,161.7ZM69,158.3L70.2,159.1L69.4,160.3L68.2,159.5L69,158.3ZM67.9,159.9L69.1,160.7L68.5,161.7L67.3,160.9L67.9,159.9ZM67,161.3L68.2,162.1L67.6,163.1L66.4,162.3L67,161.3ZM66.1,162.7L67.3,163.5L66.6,164.6L65.4,163.8L66.1,162.7ZM63.4,166.7L64.6,167.5L61.4,172.4L60.2,171.6L63.4,166.7ZM58.3,174.4L59.5,175.2L58.7,176.4L57.5,175.6L58.3,174.4ZM57.2,176L58.4,176.8L57.8,177.8L56.6,177L57.2,176ZM56.3,177.4L57.5,178.2L56.9,179.2L55.7,178.4L56.3,177.4ZM55.3,178.8L56.5,179.6L55.8,180.7L54.6,179.9L55.3,178.8ZM52.7,182.8L53.9,183.6L50.7,188.5L49.5,187.7L52.7,182.8ZM47.6,190.5L48.8,191.3L48,192.5L46.8,191.7L47.6,190.5ZM46.5,192.2L47.7,193L47.1,194L45.9,193.2L46.5,192.2ZM40,204.6L38.8,203.8L42,198.9L43.2,199.7L40,204.6ZM45.1,196.9L43.9,196.1L44.6,195L45.8,195.8L45.1,196.9ZM44.9,194.5L45.5,193.5L46.7,194.3L46.1,195.3L44.9,194.5ZM45.6,197.2L46.3,196.1L47.3,196.7L46.6,197.8L45.6,197.2ZM41.8,205.8L45,200.9L46,201.5L42.8,206.4L41.8,205.8ZM44.3,207.5L43.2,206.8L46.4,201.9L47.5,202.6L44.3,207.5ZM49.5,199.8L48.4,199.1L49.1,198L50.2,198.7L49.5,199.8ZM50.5,198.2L49.4,197.5L50,196.5L51.1,197.2L50.5,198.2ZM51.4,196.8L50.3,196.1L50.9,195.1L52,195.8L51.4,196.8ZM52.3,195.4L51.2,194.7L52,193.5L53.1,194.2L52.3,195.4ZM55,191.3L53.9,190.6L57.1,185.7L58.2,186.4L55,191.3ZM57.2,204.9L52.3,201.7L53,200.6L57.9,203.8L57.2,204.9ZM58.2,203.3L53.3,200.1L53.9,199.1L58.8,202.3L58.2,203.3ZM59.1,201.9L54.2,198.7L54.8,197.7L59.7,200.9L59.1,201.9ZM55.2,197.3L56,196.1L60.9,199.3L60.1,200.5L55.2,197.3ZM54.9,214.5L58.1,209.6L59.3,210.4L56.1,215.3L54.9,214.5ZM56.6,215.6L59.8,210.7L60.8,211.3L57.6,216.2L56.6,215.6ZM58.9,217.2L57.9,216.6L61.1,211.7L62.1,212.3L58.9,217.2ZM64,209.4L63,208.8L63.7,207.7L64.7,208.3L64,209.4ZM64.1,207.3L64.7,206.3L65.7,206.9L65.1,207.9L64.1,207.3ZM65.6,210.5L64.5,209.8L65.2,208.7L66.3,209.4L65.6,210.5ZM66.6,208.9L65.5,208.2L66.1,207.2L67.2,207.9L66.6,208.9ZM67.5,207.5L66.4,206.8L67,205.8L68.1,206.5L67.5,207.5ZM68.5,206.1L67.4,205.4L68.2,204.2L69.3,204.9L68.5,206.1ZM71.2,202.1L70.1,201.4L73.3,196.5L74.4,197.2L71.2,202.1ZM76.3,194.4L75.2,193.7L75.9,192.6L77,193.3L76.3,194.4ZM77.3,192.8L76.2,192.1L76.8,191.1L77.9,191.8L77.3,192.8ZM78.2,191.4L77.1,190.7L77.7,189.7L78.8,190.4L78.2,191.4ZM79.2,190L78.1,189.3L78.9,188.1L80,188.8L79.2,190ZM81.9,185.9L80.8,185.2L84,180.3L85.1,181L81.9,185.9ZM87,178.2L85.9,177.5L86.6,176.4L87.7,177.1L87,178.2ZM88,176.7L86.9,176L87.5,175L88.6,175.7L88,176.7ZM89,175.3L87.9,174.6L88.5,173.6L89.6,174.3L89,175.3ZM89.9,173.9L88.8,173.2L89.6,172L90.7,172.7L89.9,173.9Z" style="fill:rgb(39,59,131);fill-rule:nonzero;"/>
                </g>
                <clipPath id="_clip2">
                    <path d="M37.6,210.4L69.5,161.9L88.6,174.4L56.7,222.9"/>
                </clipPath>
                <g clip-path="url(#_clip2)">
                    <path d="M39.3,215.2L39.2,215.2L38.7,215.9L38.1,215.4L33.4,216.4L31.7,208.3L31.4,208.7L30.1,207.9L29.8,208.4L31.1,209.2L30.3,210.3L29.1,209.5L27.2,212.3L28.4,213.1L27,215.3L29.8,217.2L31.3,215L32.5,215.8L31,218L31.5,218.3L33,216.1L33.9,216.8L32.4,219L32.9,219.3L34.4,217.1L35.3,217.7L33.8,219.9L34.3,220.2L35.8,218L36.9,218.7L35.4,220.9L38.2,222.8L39.7,220.6" style="fill:rgb(39,59,131);fill-rule:nonzero;"/>
                </g>
            </g>
        </g>
    </g>
</svg>
