<?xml version="1.0" encoding="UTF-8" standalone="no"?>
<!DOCTYPE svg PUBLIC "-//W3C//DTD SVG 1.1//EN" "http://www.w3.org/Graphics/SVG/1.1/DTD/svg11.dtd">
<svg width="100%" height="100%" viewBox="0 0 168 250" version="1.1" xmlns="http://www.w3.org/2000/svg" xmlns:xlink="http://www.w3.org/1999/xlink" xml:space="preserve" xmlns:serif="http://www.serif.com/" style="fill-rule:evenodd;clip-rule:evenodd;stroke-linejoin:round;stroke-miterlimit:1.41421;">
    <rect x="-5.7" y="-5.7" width="178.6" height="260.8" style="fill:rgb(249,160,46);"/>
    <path d="M-5.4,124.3L9.8,111.9L15.1,123.2L27.8,94.5L47.3,122.5L61.5,110.8L69.7,122.2L82.4,97L96.2,117.2L103,104.1L117.8,124.6L132,83.5L137.3,108.7L144.4,104.1L155.4,134.9L173.2,112.2L173.2,255.3L-5.4,255.3L-5.4,124.3Z" style="fill:rgb(205,111,40);fill-rule:nonzero;"/>
    <circle cx="20.8" cy="39.2" r="2.6" style="fill:rgb(186,48,51);"/>
    <g transform="matrix(1,0,0,1,11.8434,29.7172)">
        <path d="M5.742,-6.563C5.729,-5.612 5.645,-4.954 5.488,-4.59C5.332,-4.225 4.925,-3.747 4.268,-3.154C3.61,-2.373 3.149,-1.781 2.886,-1.377C2.622,-0.973 2.49,-0.488 2.49,0.078C2.49,0.775 2.671,1.307 3.032,1.675C3.394,2.043 3.919,2.227 4.609,2.227C5.195,2.227 5.698,2.065 6.118,1.743C6.538,1.421 6.748,0.947 6.748,0.322L8.584,0.322L8.613,0.381C8.626,1.429 8.254,2.269 7.495,2.9C6.737,3.532 5.775,3.848 4.609,3.848C3.32,3.848 2.324,3.521 1.621,2.866C0.918,2.212 0.566,1.299 0.566,0.127C0.566,-0.7 0.793,-1.46 1.245,-2.153C1.698,-2.847 2.305,-3.564 3.066,-4.307C3.411,-4.652 3.623,-4.964 3.701,-5.244C3.779,-5.524 3.818,-5.964 3.818,-6.563L5.742,-6.563ZM3.76,-10.576L5.762,-10.576L5.762,-8.535L3.76,-8.535L3.76,-10.576Z" style="fill:rgb(34,14,10);fill-rule:nonzero;"/>
        <path d="M12.207,-4.004C12.214,-4.954 12.293,-5.61 12.446,-5.972C12.599,-6.333 13.008,-6.813 13.672,-7.412C14.316,-8.174 14.775,-8.76 15.049,-9.17C15.322,-9.58 15.459,-10.075 15.459,-10.654C15.459,-11.344 15.275,-11.875 14.907,-12.246C14.539,-12.617 14.014,-12.803 13.33,-12.803C12.738,-12.803 12.235,-12.642 11.821,-12.319C11.408,-11.997 11.201,-11.523 11.201,-10.898L9.365,-10.898L9.336,-10.957C9.316,-12.005 9.684,-12.845 10.439,-13.477C11.195,-14.108 12.158,-14.424 13.33,-14.424C14.613,-14.424 15.609,-14.097 16.318,-13.442C17.028,-12.788 17.383,-11.875 17.383,-10.703C17.383,-9.863 17.153,-9.095 16.694,-8.398C16.235,-7.702 15.628,-6.989 14.873,-6.26C14.528,-5.908 14.318,-5.592 14.243,-5.313C14.168,-5.033 14.131,-4.596 14.131,-4.004L12.207,-4.004ZM14.189,0L12.188,0L12.188,-2.031L14.189,-2.031L14.189,0Z" style="fill:rgb(34,14,10);fill-rule:nonzero;"/>
    </g>
    <circle cx="146.4" cy="210.3" r="2.6" style="fill:rgb(186,48,51);"/>
    <g transform="matrix(-1,0,0,-1,155.404,219.729)">
        <path d="M5.742,-6.563C5.729,-5.612 5.645,-4.954 5.488,-4.59C5.332,-4.225 4.925,-3.747 4.268,-3.154C3.61,-2.373 3.149,-1.781 2.886,-1.377C2.622,-0.973 2.49,-0.488 2.49,0.078C2.49,0.775 2.671,1.307 3.032,1.675C3.394,2.043 3.919,2.227 4.609,2.227C5.195,2.227 5.698,2.065 6.118,1.743C6.538,1.421 6.748,0.947 6.748,0.322L8.584,0.322L8.613,0.381C8.626,1.429 8.254,2.269 7.495,2.9C6.737,3.532 5.775,3.848 4.609,3.848C3.32,3.848 2.324,3.521 1.621,2.866C0.918,2.212 0.566,1.299 0.566,0.127C0.566,-0.7 0.793,-1.46 1.245,-2.153C1.698,-2.847 2.305,-3.564 3.066,-4.307C3.411,-4.652 3.623,-4.964 3.701,-5.244C3.779,-5.524 3.818,-5.964 3.818,-6.563L5.742,-6.563ZM3.76,-10.576L5.762,-10.576L5.762,-8.535L3.76,-8.535L3.76,-10.576Z" style="fill:rgb(34,14,10);fill-rule:nonzero;"/>
        <path d="M12.207,-4.004C12.214,-4.954 12.293,-5.61 12.446,-5.972C12.599,-6.333 13.008,-6.813 13.672,-7.412C14.316,-8.174 14.775,-8.76 15.049,-9.17C15.322,-9.58 15.459,-10.075 15.459,-10.654C15.459,-11.344 15.275,-11.875 14.907,-12.246C14.539,-12.617 14.014,-12.803 13.33,-12.803C12.738,-12.803 12.235,-12.642 11.821,-12.319C11.408,-11.997 11.201,-11.523 11.201,-10.898L9.365,-10.898L9.336,-10.957C9.316,-12.005 9.684,-12.845 10.439,-13.477C11.195,-14.108 12.158,-14.424 13.33,-14.424C14.613,-14.424 15.609,-14.097 16.318,-13.442C17.028,-12.788 17.383,-11.875 17.383,-10.703C17.383,-9.863 17.153,-9.095 16.694,-8.398C16.235,-7.702 15.628,-6.989 14.873,-6.26C14.528,-5.908 14.318,-5.592 14.243,-5.313C14.168,-5.033 14.131,-4.596 14.131,-4.004L12.207,-4.004ZM14.189,0L12.188,0L12.188,-2.031L14.189,-2.031L14.189,0Z" style="fill:rgb(34,14,10);fill-rule:nonzero;"/>
    </g>
    <g>
        <g>
            <path d="M93.3,106.2L96.1,107.9L92.9,107.4L93.3,106.2Z" style="fill:rgb(34,14,10);fill-rule:nonzero;"/>
            <path d="M86.8,118.6L89.5,120.4L86.3,119.9L86.8,118.6Z" style="fill:rgb(34,14,10);fill-rule:nonzero;"/>
            <path d="M65.2,98.6L66.9,132.5L75,134.8C75,134.8 76.8,127.5 78.7,123.7C80.7,119.7 86,120.1 86.8,120L87.3,119C85,115.6 86,110.9 89.4,108.7C90.5,107.9 91.8,107.5 93.1,107.5L93.6,106.4C93.2,106 92.8,105.5 92.4,104.9C89.5,100.5 90.7,94.6 95.1,91.7C96.2,91 98.4,90.1 100.1,89.5L100,89.2L65.2,98.6Z" style="fill:rgb(34,14,10);fill-rule:nonzero;"/>
            <path d="M100,89.1L100.1,89.4C101.5,88.9 102.6,88.5 102.6,88.5L100,89.1Z" style="fill:rgb(34,14,10);fill-rule:nonzero;"/>
        </g>
        <g>
            <path d="M51.3,108.2L47.3,108L50.1,109.6L51.3,108.2Z" style="fill:rgb(34,14,10);fill-rule:nonzero;"/>
            <path d="M54.1,106.1L50.1,105.9L52.9,107.5L54.1,106.1Z" style="fill:rgb(34,14,10);fill-rule:nonzero;"/>
            <path d="M56.6,104.5L52.6,104.3L55.4,105.9L56.6,104.5Z" style="fill:rgb(34,14,10);fill-rule:nonzero;"/>
        </g>
        <path d="M75.3,176.4L75.5,192.8L77.3,192.8L84.5,178.9L75.3,176.4Z" style="fill:rgb(34,14,10);fill-rule:nonzero;"/>
        <path d="M77.2,192.9C77.2,192.9 76.8,191.7 76.3,191.4C74.4,190.3 72,190.8 70.9,192.7C70.8,192.9 70.7,193.1 70.6,193.3C71.4,192.8 72.3,192.4 73.3,192.3C72.7,192.6 72.1,193.1 71.8,193.7C71.7,193.9 71.6,194.1 71.5,194.3C72.4,193.7 73.5,193.4 74.6,193.2C73.9,193.5 73.3,194 72.9,194.7C72.8,194.9 72.7,195.1 72.6,195.3C74.6,194 77.2,192.9 77.2,192.9Z" style="fill:rgb(34,14,10);fill-rule:nonzero;"/>
        <path d="M35.9,159.8L36.4,189.2L39.5,189.2L52.6,164.3L35.9,159.8Z" style="fill:rgb(34,14,10);fill-rule:nonzero;"/>
        <path d="M39.4,189.4C39.4,189.4 38.7,187.2 37.8,186.6C34.5,184.5 30.1,185.6 28,188.9C27.8,189.2 27.6,189.6 27.5,189.9C29,189 30.6,188.4 32.3,188C31.2,188.6 30.2,189.4 29.5,190.6C29.3,190.9 29.1,191.3 29,191.6C30.7,190.6 32.6,189.9 34.5,189.6C33.3,190.2 32.2,191.1 31.4,192.3C31.2,192.6 31,193 30.9,193.3C34.7,191.3 39.4,189.4 39.4,189.4Z" style="fill:rgb(34,14,10);fill-rule:nonzero;"/>
        <g>
            <path d="M119.4,219.4L119.1,223.4L117.9,220.4L119.4,219.4Z" style="fill:rgb(34,14,10);fill-rule:nonzero;"/>
            <path d="M121.9,217L121.6,220.9L120.4,217.9L121.9,217Z" style="fill:rgb(34,14,10);fill-rule:nonzero;"/>
            <path d="M123.9,214.7L123.5,218.7L122.4,215.7L123.9,214.7Z" style="fill:rgb(34,14,10);fill-rule:nonzero;"/>
        </g>
        <path d="M86.3,39.2C85.1,42.8 83.8,45.8 81.5,48.9C76.4,55.4 69.1,61.1 66.4,69.5C67.7,70.2 69.4,71.1 70.6,71.8C73.2,62.8 78.5,57.4 82.8,49.3C84.3,46.4 85.8,42.2 86.3,39.2Z" style="fill:rgb(34,14,10);fill-rule:nonzero;"/>
        <path d="M73.7,142.1C73.7,121.7 82.1,102.5 84.5,94.3C86.5,87.4 88.2,74.5 84.2,69.4C80.1,64.3 53.8,79 56.6,79C56.6,79 67.2,79.7 67.2,87.5C67.2,95.3 59.7,101 55.3,104.9C51.3,108.4 28.6,123.8 28.6,141.5C28.6,194.4 118.4,185.6 118.4,208.9C118.4,222.2 98.3,227 98.3,227C98.3,227 126.6,225.5 126.6,206.3C126.4,177 73.7,165.1 73.7,142.1Z" style="fill:rgb(145,34,33);fill-rule:nonzero;"/>
        <path d="M84.5,69.3C81,63.8 73.1,62.5 66.8,66.4C63.1,68.7 48.7,81.1 50.2,88.5L61.1,84.6C62.6,84.1 64.3,84.8 64.8,86.3C65.3,87.8 64.6,89.5 63.1,90L55.5,92.7C63.1,93.9 76.4,88.3 79.5,86.4C85.7,82.5 88,74.8 84.5,69.3Z" style="fill:rgb(145,34,33);fill-rule:nonzero;"/>
        <g>
            <path d="M51.1,88.2L52.4,87.7L51.1,88.2Z" style="fill:white;fill-rule:nonzero;"/>
            <path d="M53.4,87.4L52.4,87.7L51.1,88.2L52.1,91.2L53.4,87.4Z" style="fill:white;fill-rule:nonzero;"/>
            <path d="M54,90.5L55.2,86.7L52.9,87.6L54,90.5Z" style="fill:white;fill-rule:nonzero;"/>
            <path d="M55.8,89.9L57,86.1L54.7,86.9L55.8,89.9Z" style="fill:white;fill-rule:nonzero;"/>
            <path d="M57.6,89.2L58.8,85.4L56.5,86.3L57.6,89.2Z" style="fill:white;fill-rule:nonzero;"/>
            <path d="M59.4,88.6L60.6,84.8L58.3,85.6L59.4,88.6Z" style="fill:white;fill-rule:nonzero;"/>
        </g>
        <g transform="matrix(0.7907,0.6122,-0.6122,0.7907,61.8308,-15.7857)">
            <ellipse cx="54" cy="82.5" rx="0.7" ry="1.6" style="fill:rgb(34,14,10);"/>
        </g>
        <g transform="matrix(0.7907,0.6122,-0.6122,0.7907,62.1268,-18.0147)">
            <ellipse cx="57.4" cy="81.9" rx="0.7" ry="1.6" style="fill:rgb(34,14,10);"/>
        </g>
        <path d="M98,41.5C96.8,45.1 95.5,48.1 93.2,51.2C88.1,57.7 80.8,63.4 78.1,71.8C78.5,72.4 79.3,73.1 80,73.5C80.8,73.9 81.6,74 82.4,74.1C85,65.1 90.3,59.7 94.6,51.6C96,48.7 97.5,44.5 98,41.5Z" style="fill:rgb(34,14,10);fill-rule:nonzero;"/>
        <path d="M66.7,76.4C68.2,76.7 69.9,76.4 71.3,75.4C72.7,74.4 73.6,73 73.9,71.5C72.4,71.2 70.7,71.5 69.3,72.5C67.9,73.4 67,74.8 66.7,76.4Z" style="fill:white;fill-rule:nonzero;"/>
        <path d="M69.6,74.3C70,74.8 70.6,75.2 71.2,75.2C71.4,74.6 71.3,74 70.9,73.4C70.5,72.9 69.9,72.5 69.3,72.5C69.2,73.1 69.3,73.8 69.6,74.3Z" style="fill:rgb(227,125,76);fill-rule:nonzero;"/>
        <path d="M70,73.3C71.6,72.3 73.5,72 75.2,72.2C73.5,70.8 71.1,70.6 69.1,71.8C67.1,73 66.2,75.3 66.7,77.4C67.2,75.8 68.4,74.3 70,73.3Z" style="fill:rgb(34,14,10);fill-rule:nonzero;"/>
        <path d="M73.2,66.1L77.5,60.7L76.3,66.1L73.2,66.1Z" style="fill:rgb(34,14,10);fill-rule:nonzero;"/>
        <path d="M77.6,66L80.1,62.9L79.4,66L77.6,66Z" style="fill:rgb(34,14,10);fill-rule:nonzero;"/>
        <circle cx="54.7" cy="167.6" r="8.9" style="fill:rgb(34,14,10);"/>
        <path d="M45.8,167.6L46.3,197.1L49.4,197.1L62.5,172.1L45.8,167.6Z" style="fill:rgb(34,14,10);fill-rule:nonzero;"/>
        <path d="M49.3,197.2C49.3,197.2 48.6,195 47.7,194.4C44.4,192.3 40,193.4 37.9,196.7C37.7,197 37.5,197.4 37.4,197.7C38.9,196.8 40.5,196.2 42.2,195.8C41.1,196.4 40.1,197.2 39.4,198.4C39.2,198.7 39,199.1 38.9,199.4C40.6,198.4 42.5,197.7 44.4,197.4C43.2,198 42.1,198.9 41.3,200.1C41.1,200.4 40.9,200.8 40.8,201.1C44.6,199.1 49.3,197.2 49.3,197.2Z" style="fill:rgb(34,14,10);fill-rule:nonzero;"/>
        <circle cx="89.1" cy="182.9" r="5" style="fill:rgb(34,14,10);"/>
        <path d="M84.1,182.9L84.4,199.3L86.1,199.3L93.4,185.4L84.1,182.9Z" style="fill:rgb(34,14,10);fill-rule:nonzero;"/>
        <path d="M86.1,199.4C86.1,199.4 85.7,198.2 85.2,197.9C83.3,196.8 80.9,197.3 79.8,199.2C79.7,199.4 79.6,199.6 79.5,199.8C80.3,199.3 81.2,198.9 82.2,198.8C81.6,199.1 81,199.6 80.7,200.2C80.6,200.4 80.5,200.6 80.4,200.8C81.3,200.2 82.4,199.9 83.5,199.7C82.8,200 82.2,200.5 81.8,201.2C81.7,201.4 81.6,201.6 81.5,201.8C83.4,200.5 86.1,199.4 86.1,199.4Z" style="fill:rgb(34,14,10);fill-rule:nonzero;"/>
        <g>
            <path d="M123.2,157.5L121.8,162.8L121,157.4L123.2,157.5Z" style="fill:rgb(34,14,10);fill-rule:nonzero;"/>
            <path d="M99.8,153.5L98.3,158.7L97.4,153.3L99.8,153.5Z" style="fill:rgb(34,14,10);fill-rule:nonzero;"/>
            <path d="M117.2,97.3L67.1,128.5L67.5,142.7C67.5,142.7 80.2,141.8 87.2,142.9C94.6,144 96.8,152.8 97.4,154L99.3,154.3C103.7,148.9 111.6,148 117,152.3C118.8,153.7 120.1,155.6 120.9,157.6L122.9,157.9C123.4,157 124,156.1 124.7,155.2C130.3,148.2 140.4,147.1 147.4,152.7C149.2,154.1 151.7,157.1 153.6,159.5L154,159.2L117.2,97.3Z" style="fill:rgb(145,34,33);fill-rule:nonzero;"/>
            <path d="M154.1,159.3L153.7,159.6C155.3,161.6 156.4,163.2 156.4,163.2L154.1,159.3Z" style="fill:rgb(34,14,10);fill-rule:nonzero;"/>
        </g>
    </g>
    <path d="M145.2,40.8L138.3,30.1L129.2,36.1L134.7,28.2L126,22.3L125.5,21.9C125.5,21.9 125.7,22.1 126,22.3C126.3,22.6 126.7,23 126.9,23.3C127.6,24.4 127.4,25.8 126.3,26.6C126.2,26.7 126,26.8 125.9,26.8L125.2,26.9L125.9,27.1C126.2,27.2 126.4,27.4 126.6,27.7C127.2,28.5 127,29.7 126.2,30.3L125.6,30.4L126.3,30.6C126.5,30.7 127.7,31.1 127.8,32.2C127.9,32.8 127.8,33.8 127.7,34.5C125.8,32.2 123.7,29.7 122.5,27.6L121.1,24.8L120.6,25.5L119.6,21.7L120.2,26.2L119.9,26.6L118.9,22.9L119.4,27.3L116.9,31L122.2,28.2C122.5,30.9 123.6,33.5 124.9,35.7L124.5,37.8L125.1,38.4L124.9,37.6L125.3,36.5C125.4,36.7 125.6,36.9 125.7,37.1L125.2,39.4L125.8,39.9L125.6,39.2L126.2,37.8C126.8,38.7 127.4,39.4 127.9,40.1L126.4,41.7L127.4,43.9L126.1,45L128.2,44.2L127.7,41.8L128.8,41.1C129.1,41.5 129.4,41.7 129.6,42L128.4,43.6L130,46.3L128.5,47.8L131,46.6L130.1,43.7L130.7,43.2C134.6,46.8 138.3,51.2 141,56.4C141,56.4 139,46.9 132.4,39.9C132.4,39.9 131.9,39.3 131,38.5C131.7,38.5 132.5,38.4 133.1,38.5C134.4,38.6 134.9,40.2 135,40.4L135.2,41.2L135.4,40.4C136.1,39.4 137.5,39.2 138.5,39.9C138.8,40.1 139.1,40.5 139.2,40.8L139.4,41.7L139.6,40.9C139.7,40.7 139.8,40.6 139.9,40.4C140.8,39.1 142.6,38.9 143.9,39.8C144.3,39.9 144.8,40.4 145.2,40.8C145.4,41.2 145.6,41.5 145.6,41.5L145.2,40.8Z" style="fill:rgb(34,14,10);fill-opacity:0.3;fill-rule:nonzero;"/>
    <path d="M40.2,65.1L39.1,62.4L40,59.7L38.9,61.9L38.8,61.6L39.8,58.9L38.6,61.1L38.4,60.6L37.1,62.1C36.1,63.2 34.4,64.6 32.9,65.7C32.9,65.3 33,64.7 33.2,64.3C33.4,63.6 34.2,63.6 34.4,63.5L34.8,63.5L34.4,63.3C34,62.8 34,62.1 34.5,61.6C34.7,61.5 34.8,61.4 35,61.3L35.5,61.3L35.1,61.1C35,61 34.9,61 34.9,60.9C34.3,60.3 34.4,59.3 35,58.8C35.2,58.7 35.5,58.5 35.7,58.3C35.9,58.2 36.1,58.1 36.1,58.1L35.7,58.3L29.4,61L31.8,66.7L26.9,61.7L21.1,67.4L20.7,67.8C20.7,67.8 20.9,67.7 21.1,67.5C21.4,67.3 21.7,67 22,66.9C22.9,66.5 24,66.9 24.4,67.8C24.5,67.9 24.5,68 24.5,68.1L24.5,68.6L24.7,68.1C24.8,67.9 25,67.7 25.3,67.6C26,67.3 26.9,67.6 27.2,68.3L27.2,68.8L27.4,68.3C27.5,68.2 28,67.3 28.8,67.4C29.2,67.4 29.7,67.6 30.1,67.7C29.5,68.1 29,68.4 29,68.4C23.9,71.9 21.4,77.6 21.4,77.6C23.8,74.7 26.7,72.5 29.7,70.7L30,71.1L29,72.8L30.4,73.9L29.7,72.8L31,71.3L30.5,70.2C30.7,70.1 30.9,70 31.1,69.8L31.7,70.4L31.1,71.8L32.3,72.6L31.6,71.8L32.5,70.5L32,69.3C32.4,69 32.9,68.6 33.4,68.1L33.6,69.1L33.4,69.5L33.8,69.3L33.8,67.8C33.9,67.7 34,67.6 34.1,67.5L34.2,68.3L34,68.6L34.5,68.3L34.5,67C35.6,65.8 36.7,64.3 37.2,62.7L40.2,65.1Z" style="fill:rgb(34,14,10);fill-opacity:0.3;fill-rule:nonzero;"/>
</svg>
