<?xml version="1.0" encoding="UTF-8" standalone="no"?>
<!DOCTYPE svg PUBLIC "-//W3C//DTD SVG 1.1//EN" "http://www.w3.org/Graphics/SVG/1.1/DTD/svg11.dtd">
<svg width="100%" height="100%" viewBox="0 0 168 250" version="1.1" xmlns="http://www.w3.org/2000/svg" xmlns:xlink="http://www.w3.org/1999/xlink" xml:space="preserve" xmlns:serif="http://www.serif.com/" style="fill-rule:evenodd;clip-rule:evenodd;stroke-linejoin:round;stroke-miterlimit:1.41421;">
    <rect x="-6.3" y="-5.6" width="178.6" height="260.8" style="fill:rgb(120,203,231);"/>
    <circle cx="23.8" cy="39.2" r="2.6" style="fill:rgb(186,48,51);"/>
    <g transform="matrix(1,0,0,1,15.3207,28.6079)">
        <path d="M16.1,-5.796C16.1,-5.321 16.023,-4.876 15.87,-4.462C15.717,-4.048 15.502,-3.688 15.226,-3.381C14.95,-3.074 14.613,-2.833 14.214,-2.657C13.815,-2.48 13.371,-2.392 12.88,-2.392C12.435,-2.392 12.014,-2.465 11.615,-2.611C11.216,-2.756 10.841,-2.948 10.488,-3.186C10.135,-3.423 9.794,-3.688 9.465,-3.979C9.135,-4.27 8.824,-4.562 8.533,-4.853C8.196,-4.577 7.866,-4.293 7.544,-4.002C7.222,-3.711 6.889,-3.446 6.544,-3.209C6.199,-2.971 5.831,-2.775 5.44,-2.622C5.049,-2.469 4.623,-2.392 4.163,-2.392C3.672,-2.392 3.231,-2.476 2.841,-2.645C2.45,-2.814 2.112,-3.047 1.829,-3.346C1.545,-3.646 1.326,-3.998 1.173,-4.405C1.02,-4.811 0.943,-5.252 0.943,-5.727C0.943,-6.187 1.016,-6.624 1.162,-7.038C1.307,-7.452 1.518,-7.816 1.794,-8.13C2.07,-8.445 2.403,-8.69 2.794,-8.867C3.185,-9.043 3.626,-9.131 4.117,-9.131C4.562,-9.131 4.987,-9.051 5.394,-8.89C5.8,-8.729 6.183,-8.522 6.544,-8.269C6.904,-8.016 7.249,-7.74 7.579,-7.441C7.908,-7.142 8.226,-6.846 8.533,-6.555C8.84,-6.846 9.15,-7.145 9.465,-7.452C9.779,-7.759 10.109,-8.038 10.454,-8.291C10.799,-8.545 11.167,-8.752 11.558,-8.913C11.948,-9.074 12.374,-9.154 12.834,-9.154C13.325,-9.154 13.769,-9.07 14.168,-8.901C14.567,-8.732 14.912,-8.499 15.203,-8.2C15.494,-7.9 15.717,-7.544 15.87,-7.13C16.023,-6.716 16.1,-6.271 16.1,-5.796ZM14.789,-5.727C14.789,-6.31 14.628,-6.808 14.306,-7.222C13.984,-7.636 13.509,-7.843 12.88,-7.843C12.558,-7.843 12.24,-7.77 11.926,-7.625C11.611,-7.479 11.304,-7.299 11.006,-7.084C10.707,-6.869 10.423,-6.635 10.155,-6.383C9.886,-6.13 9.637,-5.903 9.407,-5.704C9.652,-5.489 9.909,-5.267 10.178,-5.037C10.446,-4.807 10.73,-4.592 11.029,-4.393C11.328,-4.194 11.634,-4.033 11.948,-3.91C12.263,-3.787 12.596,-3.726 12.949,-3.726C13.532,-3.726 13.984,-3.918 14.306,-4.301C14.628,-4.684 14.789,-5.16 14.789,-5.727ZM7.659,-5.727C7.429,-5.926 7.176,-6.145 6.9,-6.383C6.624,-6.62 6.329,-6.846 6.015,-7.061C5.7,-7.276 5.382,-7.456 5.06,-7.602C4.738,-7.747 4.416,-7.82 4.094,-7.82C3.803,-7.82 3.542,-7.763 3.312,-7.648C3.082,-7.533 2.89,-7.379 2.737,-7.188C2.584,-6.996 2.465,-6.777 2.381,-6.532C2.296,-6.287 2.254,-6.026 2.254,-5.75C2.254,-5.167 2.423,-4.684 2.76,-4.301C3.097,-3.918 3.573,-3.726 4.186,-3.726C4.493,-3.726 4.807,-3.791 5.129,-3.922C5.451,-4.052 5.765,-4.217 6.072,-4.416C6.379,-4.615 6.666,-4.834 6.935,-5.072C7.203,-5.309 7.444,-5.528 7.659,-5.727Z" style="fill-rule:nonzero;"/>
    </g>
    <circle cx="143.4" cy="210.3" r="2.6" style="fill:rgb(186,48,51);"/>
    <g>
        <path d="M125.5,32.8C122.8,33.8 121.4,36.9 122.4,39.6C123.4,42.3 126.5,43.7 129.2,42.7C135.3,40.4 138.1,28.1 138.1,28.1C138.1,28.1 125.8,32.7 125.5,32.8Z" style="fill:rgb(241,242,242);fill-rule:nonzero;"/>
        <g>
            <g>
                <path d="M109.6,62.5L108.8,60L106.2,60.4L115.9,44.6L119.4,46.8L109.6,62.5Z" style="fill:rgb(251,218,230);fill-rule:nonzero;"/>
                <path d="M109.6,62.5L108.8,60L106.2,60.4L108,57.4L111.5,59.5L109.6,62.5Z" style="fill:rgb(245,165,196);fill-rule:nonzero;"/>
            </g>
            <g>
                <path d="M122.1,69.9L121.2,67.3L118.6,67.7L128.4,52L131.8,54.1L122.1,69.9Z" style="fill:rgb(251,218,230);fill-rule:nonzero;"/>
                <path d="M122.1,69.9L121.2,67.3L118.6,67.7L120.5,64.8L123.9,66.9L122.1,69.9Z" style="fill:rgb(245,165,196);fill-rule:nonzero;"/>
            </g>
            <g>
                <path d="M128.2,73.6L127.3,71.1L124.7,71.5L134.4,55.7L137.9,57.8L128.2,73.6Z" style="fill:rgb(251,218,230);fill-rule:nonzero;"/>
                <path d="M128.2,73.6L127.3,71.1L124.7,71.5L126.6,68.5L130,70.6L128.2,73.6Z" style="fill:rgb(245,165,196);fill-rule:nonzero;"/>
            </g>
            <g>
                <path d="M116.1,52.8L118.7,49.7L113.3,45.3C112.2,44.2 111,44.8 110.5,45C110,45.2 98.8,50.1 98.8,50.1L101.2,51.3L100.5,53.9L111.5,49.1L116.1,52.8Z" style="fill:rgb(251,218,230);fill-rule:nonzero;"/>
                <path d="M100.5,53.8L101.2,51.2L98.9,50.1L102.1,48.7L103.7,52.4L100.5,53.8Z" style="fill:rgb(245,165,196);fill-rule:nonzero;"/>
            </g>
            <path d="M110,43.5L111.4,41.2C113.6,37.6 118.4,36.5 121.9,38.7L135.5,47.1C139.1,49.3 140.2,54.1 138,57.6L136.6,59.9C134.4,63.5 129.6,64.6 126.1,62.4L112.5,54C108.9,51.8 107.8,47.1 110,43.5Z" style="fill:rgb(251,218,230);fill-rule:nonzero;"/>
            <g transform="matrix(0.8514,0.5244,-0.5244,0.8514,50.3122,-57.5305)">
                <rect x="119.5" y="57.7" width="14.4" height="4.6" style="fill:rgb(251,218,230);"/>
            </g>
        </g>
        <path d="M133.3,39C129.8,37.3 125.6,38.8 123.9,42.3C122.2,45.8 123.7,50 127.2,51.7C135.1,55.5 149.5,46.8 149.5,46.8C149.5,46.8 133.6,39.1 133.3,39Z" style="fill:rgb(230,231,232);fill-rule:nonzero;"/>
        <g>
            <path d="M126.4,36.7C124.5,36.4 122.7,37.1 121.4,38.4C122.2,40 123.7,41.2 125.6,41.5C127.5,41.8 129.3,41.1 130.6,39.8C129.9,38.2 128.3,37 126.4,36.7Z" style="fill:rgb(249,200,218);fill-rule:nonzero;"/>
            <path d="M126.3,37.5C125,37.3 123.8,37.8 123,38.6C123.5,39.7 124.5,40.5 125.8,40.7C127.1,40.9 128.3,40.4 129.1,39.6C128.6,38.5 127.6,37.7 126.3,37.5Z" style="fill:rgb(245,165,196);fill-rule:nonzero;"/>
        </g>
        <path d="M119.7,27.8C118.6,29.4 118.5,31.4 119.2,33C121,33 122.8,32.1 123.8,30.5C124.9,28.9 125,26.9 124.3,25.3C122.6,25.4 120.8,26.2 119.7,27.8Z" style="fill:rgb(249,200,218);fill-rule:nonzero;"/>
        <path d="M121.1,30.2C119.1,28.9 117.5,28.2 114.6,28.8C111.7,29.5 111.4,30.5 108.4,29C107.9,28.7 106.8,29.5 105.9,30.8C105,32.1 104.7,33.5 105.2,33.8C105.2,33.8 107.3,35.2 107.7,39.3C107.9,41.1 109.1,43.7 111.1,45.1C115.2,47.8 120.8,46.7 123.5,42.6C126.2,38.5 125.2,33 121.1,30.2Z" style="fill:rgb(251,218,230);fill-rule:nonzero;"/>
        <g transform="matrix(0.832,0.5547,-0.5547,0.832,34.9625,-54.029)">
            <ellipse cx="106.7" cy="30.7" rx="0.1" ry="0.5" style="fill:rgb(245,165,196);"/>
        </g>
        <g transform="matrix(0.832,0.5547,-0.5547,0.832,35.4591,-53.9431)">
            <ellipse cx="106.8" cy="31.6" rx="0.1" ry="0.5" style="fill:rgb(245,165,196);"/>
        </g>
        <g>
            <circle cx="117.6" cy="36.4" r="1.6" style="fill:white;"/>
            <path d="M118.1,36.7C117.9,36.6 117.8,36.3 117.9,36C118,35.8 118.2,35.7 118.3,35.7C118.2,35.6 118.1,35.6 118,35.5C117.5,35.2 116.9,35.4 116.7,35.9C116.4,36.4 116.6,37 117.1,37.2C117.6,37.4 118.2,37.3 118.4,36.8C118.4,36.7 118.5,36.7 118.5,36.6C118.5,36.7 118.3,36.7 118.1,36.7Z" style="fill:rgb(1,1,1);fill-rule:nonzero;"/>
        </g>
        <path d="M110,37.4L109.4,37.3C109.2,38 108.5,38.5 107.8,38.4C107.7,38.4 107.6,38.4 107.5,38.3C107.5,38.5 107.6,38.7 107.6,38.9C108.8,39.2 109.8,38.5 110,37.4Z" style="fill:rgb(245,165,196);fill-rule:nonzero;"/>
        <path d="M109.1,42.9C109.1,42.9 109.8,44 109.6,45.2C109.3,46.4 113.5,43.9 113.5,43.9L110.7,42L109.1,42.9Z" style="fill:rgb(251,218,230);fill-rule:nonzero;"/>
        <path d="M137,57.2L137.9,57.1L138.2,61L137,57.2Z" style="fill:rgb(251,218,230);fill-rule:nonzero;"/>
    </g>
    <g>
        <circle cx="31.1" cy="78.7" r="15.8" style="fill:rgb(241,242,242);"/>
        <circle cx="46.6" cy="70.4" r="8.2" style="fill:rgb(241,242,242);"/>
        <circle cx="51.5" cy="86.2" r="12" style="fill:rgb(241,242,242);"/>
        <circle cx="57.3" cy="74.3" r="5.2" style="fill:rgb(241,242,242);"/>
    </g>
    <g transform="matrix(1,0,0,1,27.863,153.683)">
        <path d="M59.2,-37.44C57.387,-35.307 55.333,-33.12 53.04,-30.88C50.747,-28.64 48.347,-26.587 45.84,-24.72C43.333,-22.853 40.8,-21.307 38.24,-20.08C35.68,-18.853 33.173,-18.24 30.72,-18.24C25.173,-18.24 20.613,-20.213 17.04,-24.16C13.467,-28.107 11.68,-33.28 11.68,-39.68C11.68,-46.08 13.467,-51.227 17.04,-55.12C20.613,-59.013 25.173,-60.96 30.72,-60.96C33.173,-60.96 35.68,-60.347 38.24,-59.12C40.8,-57.893 43.333,-56.347 45.84,-54.48C48.347,-52.613 50.747,-50.533 53.04,-48.24C55.333,-45.947 57.387,-43.733 59.2,-41.6C61.013,-43.733 63.067,-45.947 65.36,-48.24C67.653,-50.533 70.053,-52.613 72.56,-54.48C75.067,-56.347 77.6,-57.893 80.16,-59.12C82.72,-60.347 85.227,-60.96 87.68,-60.96C93.227,-60.96 97.787,-59.013 101.36,-55.12C104.933,-51.227 106.72,-46.08 106.72,-39.68C106.72,-33.28 104.933,-28.107 101.36,-24.16C97.787,-20.213 93.227,-18.24 87.68,-18.24C85.227,-18.24 82.72,-18.853 80.16,-20.08C77.6,-21.307 75.067,-22.853 72.56,-24.72C70.053,-26.587 67.653,-28.64 65.36,-30.88C63.067,-33.12 61.013,-35.307 59.2,-37.44ZM61.12,-39.36C64.213,-36.053 66.987,-33.253 69.44,-30.96C71.893,-28.667 74.16,-26.8 76.24,-25.36C78.32,-23.92 80.293,-22.853 82.16,-22.16C84.027,-21.467 85.867,-21.12 87.68,-21.12C90.24,-21.12 92.507,-21.627 94.48,-22.64C96.453,-23.653 98.107,-25.013 99.44,-26.72C100.773,-28.427 101.787,-30.373 102.48,-32.56C103.173,-34.747 103.52,-37.013 103.52,-39.36C103.52,-41.813 103.173,-44.187 102.48,-46.48C101.787,-48.773 100.773,-50.773 99.44,-52.48C98.107,-54.187 96.453,-55.547 94.48,-56.56C92.507,-57.573 90.24,-58.08 87.68,-58.08C85.867,-58.08 84.027,-57.733 82.16,-57.04C80.293,-56.347 78.32,-55.227 76.24,-53.68C74.16,-52.133 71.867,-50.187 69.36,-47.84C66.853,-45.493 64.107,-42.667 61.12,-39.36ZM57.28,-39.36C51.2,-45.973 46.16,-50.747 42.16,-53.68C38.16,-56.613 34.347,-58.08 30.72,-58.08C28.16,-58.08 25.893,-57.573 23.92,-56.56C21.947,-55.547 20.293,-54.187 18.96,-52.48C17.627,-50.773 16.613,-48.773 15.92,-46.48C15.227,-44.187 14.88,-41.813 14.88,-39.36C14.88,-37.013 15.227,-34.747 15.92,-32.56C16.613,-30.373 17.627,-28.427 18.96,-26.72C20.293,-25.013 21.947,-23.653 23.92,-22.64C25.893,-21.627 28.16,-21.12 30.72,-21.12C32.533,-21.12 34.373,-21.467 36.24,-22.16C38.107,-22.853 40.08,-23.92 42.16,-25.36C44.24,-26.8 46.507,-28.667 48.96,-30.96C51.413,-33.253 54.187,-36.053 57.28,-39.36Z" style="fill-rule:nonzero;"/>
    </g>
    <g>
        <circle cx="140.1" cy="139.8" r="12.8" style="fill:rgb(241,242,242);"/>
        <circle cx="130.7" cy="129" r="6.7" style="fill:rgb(241,242,242);"/>
        <circle cx="122.5" cy="139.7" r="9.8" style="fill:rgb(241,242,242);"/>
        <circle cx="121.5" cy="129" r="4.2" style="fill:rgb(241,242,242);"/>
    </g>
    <g>
        <circle cx="83.1" cy="5.8" r="12.8" style="fill:rgb(241,242,242);"/>
        <circle cx="97.3" cy="6.7" r="6.7" style="fill:rgb(241,242,242);"/>
    </g>
    <g>
        <circle cx="115.4" cy="236.7" r="18.8" style="fill:rgb(241,242,242);"/>
        <circle cx="141.1" cy="240.2" r="14.3" style="fill:rgb(241,242,242);"/>
    </g>
    <g transform="matrix(-1,0,0,-1,151.925,220.839)">
        <path d="M16.1,-5.796C16.1,-5.321 16.023,-4.876 15.87,-4.462C15.717,-4.048 15.502,-3.688 15.226,-3.381C14.95,-3.074 14.613,-2.833 14.214,-2.657C13.815,-2.48 13.371,-2.392 12.88,-2.392C12.435,-2.392 12.014,-2.465 11.615,-2.611C11.216,-2.756 10.841,-2.948 10.488,-3.186C10.135,-3.423 9.794,-3.688 9.465,-3.979C9.135,-4.27 8.824,-4.562 8.533,-4.853C8.196,-4.577 7.866,-4.293 7.544,-4.002C7.222,-3.711 6.889,-3.446 6.544,-3.209C6.199,-2.971 5.831,-2.775 5.44,-2.622C5.049,-2.469 4.623,-2.392 4.163,-2.392C3.672,-2.392 3.231,-2.476 2.841,-2.645C2.45,-2.814 2.112,-3.047 1.829,-3.346C1.545,-3.646 1.326,-3.998 1.173,-4.405C1.02,-4.811 0.943,-5.252 0.943,-5.727C0.943,-6.187 1.016,-6.624 1.162,-7.038C1.307,-7.452 1.518,-7.816 1.794,-8.13C2.07,-8.445 2.403,-8.69 2.794,-8.867C3.185,-9.043 3.626,-9.131 4.117,-9.131C4.562,-9.131 4.987,-9.051 5.394,-8.89C5.8,-8.729 6.183,-8.522 6.544,-8.269C6.904,-8.016 7.249,-7.74 7.579,-7.441C7.908,-7.142 8.226,-6.846 8.533,-6.555C8.84,-6.846 9.15,-7.145 9.465,-7.452C9.779,-7.759 10.109,-8.038 10.454,-8.291C10.799,-8.545 11.167,-8.752 11.558,-8.913C11.948,-9.074 12.374,-9.154 12.834,-9.154C13.325,-9.154 13.769,-9.07 14.168,-8.901C14.567,-8.732 14.912,-8.499 15.203,-8.2C15.494,-7.9 15.717,-7.544 15.87,-7.13C16.023,-6.716 16.1,-6.271 16.1,-5.796ZM14.789,-5.727C14.789,-6.31 14.628,-6.808 14.306,-7.222C13.984,-7.636 13.509,-7.843 12.88,-7.843C12.558,-7.843 12.24,-7.77 11.926,-7.625C11.611,-7.479 11.304,-7.299 11.006,-7.084C10.707,-6.869 10.423,-6.635 10.155,-6.383C9.886,-6.13 9.637,-5.903 9.407,-5.704C9.652,-5.489 9.909,-5.267 10.178,-5.037C10.446,-4.807 10.73,-4.592 11.029,-4.393C11.328,-4.194 11.634,-4.033 11.948,-3.91C12.263,-3.787 12.596,-3.726 12.949,-3.726C13.532,-3.726 13.984,-3.918 14.306,-4.301C14.628,-4.684 14.789,-5.16 14.789,-5.727ZM7.659,-5.727C7.429,-5.926 7.176,-6.145 6.9,-6.383C6.624,-6.62 6.329,-6.846 6.015,-7.061C5.7,-7.276 5.382,-7.456 5.06,-7.602C4.738,-7.747 4.416,-7.82 4.094,-7.82C3.803,-7.82 3.542,-7.763 3.312,-7.648C3.082,-7.533 2.89,-7.379 2.737,-7.188C2.584,-6.996 2.465,-6.777 2.381,-6.532C2.296,-6.287 2.254,-6.026 2.254,-5.75C2.254,-5.167 2.423,-4.684 2.76,-4.301C3.097,-3.918 3.573,-3.726 4.186,-3.726C4.493,-3.726 4.807,-3.791 5.129,-3.922C5.451,-4.052 5.765,-4.217 6.072,-4.416C6.379,-4.615 6.666,-4.834 6.935,-5.072C7.203,-5.309 7.444,-5.528 7.659,-5.727Z" style="fill-rule:nonzero;"/>
    </g>
    <g>
        <path d="M60.3,166.1C64.8,167.8 67.1,172.9 65.4,177.4C63.7,181.9 58.6,184.2 54.1,182.5C43.9,178.6 39.3,158.2 39.3,158.2C39.3,158.2 59.8,165.9 60.3,166.1Z" style="fill:rgb(241,242,242);fill-rule:nonzero;"/>
        <g>
            <path d="M47.5,235.3L50,231.7L54,233.5L45.5,203.8L39,205.7L47.5,235.3Z" style="fill:rgb(251,218,230);fill-rule:nonzero;"/>
            <path d="M47.5,235.3L50,231.7L54,233.5L52.4,227.9L45.9,229.7L47.5,235.3Z" style="fill:rgb(245,165,196);fill-rule:nonzero;"/>
        </g>
        <g>
            <path d="M59.3,231.8L61.8,228.1L65.8,229.9L57.3,200.3L50.7,202.1L59.3,231.8Z" style="fill:rgb(251,218,230);fill-rule:nonzero;"/>
            <path d="M59.3,231.8L61.8,228.1L65.8,229.9L64.2,224.3L57.6,226.2L59.3,231.8Z" style="fill:rgb(245,165,196);fill-rule:nonzero;"/>
        </g>
        <g>
            <path d="M74,201L69.7,195.8L78.7,188.4L78.8,188.3C80.7,186.5 82.6,187.5 83.4,187.9C84.2,188.3 102.8,196.5 102.8,196.5L98.9,198.4L100.1,202.7L81.9,194.6L74,201Z" style="fill:rgb(251,218,230);fill-rule:nonzero;"/>
            <path d="M100,202.6L98.7,198.4L102.7,196.4L97.4,194.1L94.6,200.3L100,202.6Z" style="fill:rgb(245,165,196);fill-rule:nonzero;"/>
        </g>
        <g>
            <path d="M68.5,206.5L65.9,200.2L76.6,195.7L76.7,195.7C79,194.6 80.6,196.1 81.2,196.6C81.9,197.2 97.3,210.5 97.3,210.5L93,211.2L92.9,215.6L77.8,202.6L68.5,206.5Z" style="fill:rgb(251,218,230);fill-rule:nonzero;"/>
            <path d="M92.9,215.6L93,211.2L97.3,210.5L92.9,206.7L88.5,211.8L92.9,215.6Z" style="fill:rgb(245,165,196);fill-rule:nonzero;"/>
        </g>
        <path d="M86.1,183.9L83.7,180C80,174 72.1,172.1 66.1,175.8L43.5,189.7C37.5,193.4 35.6,201.3 39.3,207.3L41.7,211.2C45.4,217.2 53.3,219.1 59.3,215.4L81.9,201.5C87.9,197.8 89.8,189.8 86.1,183.9Z" style="fill:rgb(251,218,230);fill-rule:nonzero;"/>
        <path d="M44.2,174C50.9,170.8 58.9,173.6 62.1,180.3C65.3,187 62.5,195 55.8,198.2C40.7,205.5 13.2,188.9 13.2,188.9C13.2,188.9 43.6,174.3 44.2,174Z" style="fill:rgb(230,231,232);fill-rule:nonzero;"/>
        <g>
            <path d="M58.7,172.6C61.9,172.1 64.9,173.3 67,175.5C65.7,178.2 63.2,180.2 60,180.7C56.8,181.2 53.8,180 51.7,177.8C53,175.1 55.5,173.1 58.7,172.6Z" style="fill:rgb(249,200,218);fill-rule:nonzero;"/>
            <path d="M58.9,174C61,173.7 63,174.5 64.4,175.9C63.5,177.7 61.8,179.1 59.7,179.4C57.6,179.7 55.6,178.9 54.2,177.5C55.1,175.7 56.8,174.3 58.9,174Z" style="fill:rgb(245,165,196);fill-rule:nonzero;"/>
        </g>
        <path d="M69.9,157.8C71.7,160.5 71.9,163.7 70.8,166.5C67.8,166.5 64.9,165 63.1,162.4C61.3,159.8 61.1,156.5 62.2,153.7C65.1,153.7 68.1,155.2 69.9,157.8Z" style="fill:rgb(249,200,218);fill-rule:nonzero;"/>
        <path d="M67.6,161.8C70.9,159.6 73.7,158.4 78.4,159.5C83.2,160.6 83.7,162.3 88.7,159.8C89.5,159.3 91.3,160.6 92.8,162.8C94.3,165 94.8,167.2 94,167.8C94,167.8 90.5,170.1 89.8,176.9C89.5,179.8 87.4,184.3 84.1,186.5C77.3,191.1 68,189.2 63.5,182.4C59,175.6 60.8,166.4 67.6,161.8Z" style="fill:rgb(251,218,230);fill-rule:nonzero;"/>
        <g transform="matrix(-0.832,0.5547,-0.5547,-0.832,258.026,247.109)">
            <ellipse cx="91.6" cy="162.6" rx="0.2" ry="0.8" style="fill:rgb(245,165,196);"/>
        </g>
        <g transform="matrix(-0.832,0.5547,-0.5547,-0.832,258.498,249.841)">
            <ellipse cx="91.4" cy="164.1" rx="0.2" ry="0.8" style="fill:rgb(245,165,196);"/>
        </g>
        <g>
            <circle cx="73.4" cy="172.1" r="2.6" style="fill:white;"/>
            <path d="M72.6,172.5C73,172.3 73.2,171.8 73,171.4C72.9,171.1 72.6,171 72.3,171C72.4,170.9 72.6,170.8 72.7,170.7C73.5,170.3 74.5,170.6 74.9,171.4C75.3,172.2 75,173.2 74.2,173.6C73.4,174 72.4,173.7 72,172.9C71.9,172.8 71.9,172.7 71.9,172.5C72,172.6 72.3,172.7 72.6,172.5Z" style="fill:rgb(1,1,1);fill-rule:nonzero;"/>
        </g>
        <path d="M86,173.8L86.9,173.6C87.2,174.8 88.4,175.6 89.6,175.4C89.8,175.4 89.9,175.3 90,175.3C89.9,175.6 89.9,176 89.8,176.3L89.7,176.3C88.1,176.7 86.4,175.6 86,173.8Z" style="fill:rgb(245,165,196);fill-rule:nonzero;"/>
        <path d="M87.6,182.9C87.6,182.9 86.4,184.8 86.8,186.7C87.3,188.6 80.2,184.5 80.2,184.5L84.9,181.3L87.6,182.9Z" style="fill:rgb(251,218,230);fill-rule:nonzero;"/>
        <path d="M41.1,204.6L38.9,203.9L36.1,212.1L41.1,204.6Z" style="fill:rgb(251,218,230);fill-rule:nonzero;"/>
    </g>
</svg>
