<?xml version="1.0" encoding="UTF-8" standalone="no"?>
<!DOCTYPE svg PUBLIC "-//W3C//DTD SVG 1.1//EN" "http://www.w3.org/Graphics/SVG/1.1/DTD/svg11.dtd">
<svg width="100%" height="100%" viewBox="0 0 168 250" version="1.1" xmlns="http://www.w3.org/2000/svg" xmlns:xlink="http://www.w3.org/1999/xlink" xml:space="preserve" xmlns:serif="http://www.serif.com/" style="fill-rule:evenodd;clip-rule:evenodd;stroke-linejoin:round;stroke-miterlimit:1.41421;">
    <rect x="-5.7" y="-5.7" width="178.6" height="260.8" style="fill:rgb(252,209,127);"/>
    <g>
        <path d="M150,73.8C151.4,68.7 148.6,65.6 145.2,65.1C142.1,64.6 140.6,65.5 138.3,69.4C132.6,78.4 121.7,82 121.7,82C117.6,83.7 114.5,87.5 113.8,92.2C112.7,99.4 117.7,106.1 124.9,107.2C130.4,108 134.9,105.6 138.2,100.9C141.6,96.2 148.6,79 150,73.8Z" style="fill:rgb(95,86,121);fill-rule:nonzero;"/>
        <path d="M147.9,65.7C147,65 145.9,64.6 144.7,64.6C143.5,64.6 142.4,65 141.4,65.6C142.3,66.3 143.4,66.7 144.6,66.7C145.8,66.8 147,66.4 147.9,65.7Z" style="fill:rgb(38,147,108);fill-rule:nonzero;"/>
        <path d="M150.5,71.4C150.7,70.3 150.6,69.1 150.1,68C149.6,66.9 148.7,66.1 147.7,65.6C147.5,66.7 147.6,67.9 148.1,69C148.6,70 149.5,70.9 150.5,71.4Z" style="fill:rgb(38,147,108);fill-rule:nonzero;"/>
        <path d="M147.8,66L147.5,65.8L148.6,63.4L149.3,63.8L147.8,66Z" style="fill:rgb(38,147,108);fill-rule:nonzero;"/>
    </g>
    <circle cx="20.8" cy="39.2" r="2.6" style="fill:rgb(186,48,51);"/>
    <g transform="matrix(1,0,0,1,11.6431,28.6079)">
        <path d="M7.133,-3.828L8.703,-3.828L8.703,-2.625L7.133,-2.625L7.133,-1.203L8.406,-0.984L8.406,0L4.328,0L4.328,-0.984L5.602,-1.203L5.602,-2.625L0.492,-2.625L0.492,-3.492L5.508,-11.375L7.133,-11.375L7.133,-3.828ZM2.133,-3.828L5.602,-3.828L5.602,-9.18L5.555,-9.195L5.398,-8.781L2.133,-3.828Z" style="fill-rule:nonzero;"/>
        <path d="M17.461,-4.336C17.461,-2.883 17.138,-1.77 16.492,-0.996C15.846,-0.223 14.964,0.164 13.844,0.164C12.729,0.164 11.846,-0.224 11.195,-1C10.544,-1.776 10.219,-2.888 10.219,-4.336L10.219,-7.031C10.219,-8.479 10.542,-9.592 11.188,-10.371C11.833,-11.15 12.714,-11.539 13.828,-11.539C14.948,-11.539 15.833,-11.15 16.484,-10.371C17.135,-9.592 17.461,-8.479 17.461,-7.031L17.461,-4.336ZM15.922,-7.359C15.922,-8.344 15.743,-9.085 15.387,-9.582C15.03,-10.079 14.51,-10.328 13.828,-10.328C13.156,-10.328 12.643,-10.079 12.289,-9.582C11.935,-9.085 11.758,-8.344 11.758,-7.359L11.758,-4.023C11.758,-3.039 11.938,-2.296 12.297,-1.793C12.656,-1.29 13.172,-1.039 13.844,-1.039C14.526,-1.039 15.043,-1.289 15.395,-1.789C15.746,-2.289 15.922,-3.034 15.922,-4.023L15.922,-7.359Z" style="fill-rule:nonzero;"/>
    </g>
    <circle cx="146.4" cy="210.3" r="2.6" style="fill:rgb(186,48,51);"/>
    <g transform="matrix(-1,0,0,-1,155.595,220.843)">
        <path d="M7.133,-3.828L8.703,-3.828L8.703,-2.625L7.133,-2.625L7.133,-1.203L8.406,-0.984L8.406,0L4.328,0L4.328,-0.984L5.602,-1.203L5.602,-2.625L0.492,-2.625L0.492,-3.492L5.508,-11.375L7.133,-11.375L7.133,-3.828ZM2.133,-3.828L5.602,-3.828L5.602,-9.18L5.555,-9.195L5.398,-8.781L2.133,-3.828Z" style="fill-rule:nonzero;"/>
        <path d="M17.461,-4.336C17.461,-2.883 17.138,-1.77 16.492,-0.996C15.846,-0.223 14.964,0.164 13.844,0.164C12.729,0.164 11.846,-0.224 11.195,-1C10.544,-1.776 10.219,-2.888 10.219,-4.336L10.219,-7.031C10.219,-8.479 10.542,-9.592 11.188,-10.371C11.833,-11.15 12.714,-11.539 13.828,-11.539C14.948,-11.539 15.833,-11.15 16.484,-10.371C17.135,-9.592 17.461,-8.479 17.461,-7.031L17.461,-4.336ZM15.922,-7.359C15.922,-8.344 15.743,-9.085 15.387,-9.582C15.03,-10.079 14.51,-10.328 13.828,-10.328C13.156,-10.328 12.643,-10.079 12.289,-9.582C11.935,-9.085 11.758,-8.344 11.758,-7.359L11.758,-4.023C11.758,-3.039 11.938,-2.296 12.297,-1.793C12.656,-1.29 13.172,-1.039 13.844,-1.039C14.526,-1.039 15.043,-1.289 15.395,-1.789C15.746,-2.289 15.922,-3.034 15.922,-4.023L15.922,-7.359Z" style="fill-rule:nonzero;"/>
    </g>
    <g>
        <path d="M73.9,171C69.2,172 67.9,175.6 68.9,178.5C69.8,181.2 71.1,182.1 75.3,182.2C85,183 92.4,190.3 92.4,190.3C95.5,192.9 99.8,193.8 103.9,192.4C110.2,190.2 113.5,183.4 111.3,177.2C109.7,172.5 105.9,169.8 100.7,169.1C95.5,168.4 78.7,170 73.9,171Z" style="fill:rgb(46,37,71);fill-rule:nonzero;"/>
        <path d="M68.3,176.1C68.1,177.1 68.2,178.2 68.7,179.2C69.2,180.2 70,180.9 70.9,181.4C71.1,180.4 71,179.3 70.5,178.3C70,177.3 69.2,176.5 68.3,176.1Z" style="fill:rgb(38,147,108);fill-rule:nonzero;"/>
        <path d="M71.7,171.6C70.7,171.9 69.8,172.5 69.1,173.4C68.4,174.3 68.1,175.3 68.1,176.4C69.1,176.1 70,175.5 70.7,174.6C71.4,173.7 71.7,172.6 71.7,171.6Z" style="fill:rgb(38,147,108);fill-rule:nonzero;"/>
        <path d="M68.5,176.1L68.5,176.3L66.1,176.5L66.1,175.7L68.5,176.1Z" style="fill:rgb(38,147,108);fill-rule:nonzero;"/>
    </g>
    <g>
        <path d="M99.4,235.5C103.6,236.9 106.3,234.7 106.9,231.9C107.4,229.3 106.8,228.1 103.6,226C96.3,220.8 93.9,211.6 93.8,211.6C92.5,208.1 89.5,205.4 85.6,204.6C79.6,203.4 73.8,207.3 72.6,213.2C71.7,217.7 73.5,221.6 77.3,224.5C81.1,227.4 95.2,234.1 99.4,235.5Z" style="fill:rgb(95,86,121);fill-rule:nonzero;"/>
        <path d="M106.3,234.1C106.9,233.4 107.3,232.5 107.4,231.5C107.5,230.5 107.2,229.5 106.7,228.7C106.1,229.4 105.7,230.3 105.6,231.3C105.5,232.4 105.8,233.3 106.3,234.1Z" style="fill:rgb(38,147,108);fill-rule:nonzero;"/>
        <path d="M101.5,236C102.4,236.2 103.4,236.2 104.3,235.8C105.2,235.4 106,234.7 106.4,233.9C105.5,233.7 104.5,233.7 103.6,234.1C102.7,234.5 102,235.2 101.5,236Z" style="fill:rgb(38,147,108);fill-rule:nonzero;"/>
        <path d="M106.1,234L106.2,233.8L108.2,234.8L107.8,235.4L106.1,234Z" style="fill:rgb(38,147,108);fill-rule:nonzero;"/>
    </g>
    <g>
        <path d="M89.1,39.4C89,35.1 86,33.4 83.3,33.9C80.8,34.3 79.8,35.3 79.1,38.9C76.9,47.2 69.4,52.6 69.4,52.6C66.7,54.9 65.2,58.6 65.8,62.4C66.7,68.2 72.2,72.2 78,71.2C82.4,70.5 85.3,67.6 86.7,63.1C88.1,58.6 89.3,43.6 89.1,39.4Z" style="fill:rgb(46,37,71);fill-rule:nonzero;"/>
        <path d="M85.5,33.6C84.6,33.3 83.7,33.2 82.7,33.5C81.8,33.8 81,34.4 80.4,35.1C81.3,35.4 82.2,35.5 83.2,35.2C84.2,34.9 85,34.4 85.5,33.6Z" style="fill:rgb(38,147,108);fill-rule:nonzero;"/>
        <path d="M88.9,37.3C88.8,36.4 88.4,35.5 87.7,34.8C87,34.1 86.2,33.7 85.3,33.5C85.4,34.4 85.8,35.3 86.5,36C87.1,36.8 88,37.2 88.9,37.3Z" style="fill:rgb(38,147,108);fill-rule:nonzero;"/>
        <path d="M85.5,33.8L85.3,33.8L85.5,31.6L86.2,31.8L85.5,33.8Z" style="fill:rgb(38,147,108);fill-rule:nonzero;"/>
    </g>
    <g>
        <path d="M101.4,45.2C97.7,50.5 99.8,55.3 103.5,57.2C106.9,58.9 109,58.6 113.2,54.9C123.4,46.7 137.4,46.9 137.4,46.8C142.8,46.4 147.9,43.3 150.5,38.1C154.6,30.2 151.4,20.5 143.5,16.4C137.5,13.3 131.4,14.3 125.7,18.5C120,22.7 105.1,39.9 101.4,45.2Z" style="fill:rgb(54,47,68);fill-rule:nonzero;"/>
        <path d="M100.7,55.4C101.5,56.6 102.6,57.5 104,58C105.4,58.5 106.9,58.5 108.2,58.1C107.4,56.9 106.3,56 104.9,55.5C103.5,55 102,55 100.7,55.4Z" style="fill:rgb(38,147,108);fill-rule:nonzero;"/>
        <path d="M99.9,47.9C99.2,49.1 98.9,50.5 99.1,52C99.3,53.5 100,54.8 100.9,55.8C101.6,54.6 101.9,53.2 101.7,51.7C101.5,50.2 100.9,48.9 99.9,47.9Z" style="fill:rgb(38,147,108);fill-rule:nonzero;"/>
        <path d="M100.9,55.2L101.2,55.5L98.9,57.9L98.2,57.1L100.9,55.2Z" style="fill:rgb(38,147,108);fill-rule:nonzero;"/>
    </g>
    <g>
        <path d="M60.8,205.2C63.4,200.2 61.2,196.3 57.7,195.1C54.6,193.9 52.8,194.5 49.6,198.1C41.7,206.2 29.6,207.5 29.6,207.6C25,208.5 20.9,211.7 19.2,216.5C16.5,223.8 20.2,231.8 27.5,234.5C33,236.5 38.2,235.1 42.7,230.8C47.1,226.6 58.2,210.2 60.8,205.2Z" style="fill:rgb(54,47,68);fill-rule:nonzero;"/>
        <path d="M60.4,196.3C59.6,195.4 58.6,194.7 57.3,194.4C56,194.1 54.8,194.3 53.7,194.8C54.5,195.7 55.5,196.4 56.8,196.7C58,196.9 59.3,196.8 60.4,196.3Z" style="fill:rgb(38,147,108);fill-rule:nonzero;"/>
        <path d="M61.8,202.7C62.3,201.6 62.4,200.3 62.1,199.1C61.8,197.8 61.1,196.8 60.1,196C59.6,197.1 59.5,198.4 59.8,199.6C60.2,200.9 60.9,202 61.8,202.7Z" style="fill:rgb(38,147,108);fill-rule:nonzero;"/>
        <path d="M60.2,196.5L59.9,196.3L61.6,194L62.3,194.6L60.2,196.5Z" style="fill:rgb(38,147,108);fill-rule:nonzero;"/>
    </g>
    <g>
        <path d="M143.6,197.5C145.6,193.1 143.5,190.4 140.7,189.5C138.2,188.7 136.8,189.2 134.4,192.3C128.4,199.2 119.5,201 119.5,201C115.8,201.9 112,204.5 110.8,208.3C109,214.2 112.2,219.2 118.1,221C122.6,222.4 126.7,221 130.1,217.4C133.5,213.8 141.8,201.6 143.6,197.5Z" style="fill:rgb(46,37,71);fill-rule:nonzero;"/>
        <g>
            <path d="M142.7,190.4C142,189.7 141.1,189.2 140.1,189.1C139.1,188.9 138.1,189.1 137.2,189.6C137.9,190.3 138.8,190.8 139.8,190.9C140.9,191 141.9,190.9 142.7,190.4Z" style="fill:rgb(38,147,108);fill-rule:nonzero;"/>
            <path d="M144.3,195.5C144.6,194.6 144.6,193.6 144.3,192.6C144,191.6 143.3,190.8 142.6,190.3C142.3,191.2 142.3,192.2 142.6,193.2C142.8,194.1 143.5,194.9 144.3,195.5Z" style="fill:rgb(38,147,108);fill-rule:nonzero;"/>
            <path d="M140.1,193.4C140.8,193.2 141.4,192.9 141.8,192.3C142.3,191.7 142.5,191 142.5,190.4C141.8,190.6 141.2,190.9 140.8,191.5C140.3,192.1 140.1,192.8 140.1,193.4Z" style="fill:rgb(38,147,108);fill-rule:nonzero;"/>
            <path d="M142.6,190.6L142.4,190.4L143.6,188.5L144.2,188.9L142.6,190.6Z" style="fill:rgb(38,147,108);fill-rule:nonzero;"/>
        </g>
    </g>
    <g>
        <path d="M69.8,22C71.7,19.1 70.5,16.9 68.6,16C66.9,15.2 65.8,15.4 63.8,17.3C58.8,21.6 52.3,21.9 52.3,21.9C49.6,22.2 46.6,23.6 45.4,26.2C43.5,30.2 45.2,34.1 49.2,36C52.3,37.5 55.3,36.9 58.1,34.7C60.9,32.5 68.1,24.7 69.8,22Z" style="fill:rgb(95,86,121);fill-rule:nonzero;"/>
        <g>
            <path d="M70,16.8C69.6,16.2 69,15.8 68.3,15.6C67.6,15.4 66.9,15.4 66.2,15.7C66.6,16.3 67.2,16.7 67.9,16.9C68.6,17.1 69.3,17.1 70,16.8Z" style="fill:rgb(38,147,108);fill-rule:nonzero;"/>
            <path d="M70.5,20.6C70.8,20 70.9,19.3 70.8,18.5C70.7,17.7 70.3,17.1 69.8,16.7C69.5,17.3 69.4,18 69.5,18.8C69.6,19.5 70,20.1 70.5,20.6Z" style="fill:rgb(38,147,108);fill-rule:nonzero;"/>
            <path d="M67.7,18.7C68.2,18.6 68.7,18.4 69,18.1C69.4,17.7 69.6,17.3 69.7,16.8C69.2,16.9 68.7,17.1 68.4,17.4C68.1,17.8 67.8,18.3 67.7,18.7Z" style="fill:rgb(38,147,108);fill-rule:nonzero;"/>
            <path d="M69.8,17L69.7,16.8L70.8,15.6L71.1,16L69.8,17Z" style="fill:rgb(38,147,108);fill-rule:nonzero;"/>
        </g>
    </g>
    <g>
        <path d="M27.7,152C23.6,149.2 20.5,150.9 19.2,153.6C18,156 18.2,157.5 20.9,160.5C26.8,167.7 27.1,177 27.2,177C27.5,180.9 29.4,185.1 33.1,187C38.8,189.9 44.4,187.5 47.2,181.8C49.4,177.5 48.6,173.1 45.6,169.1C42.6,165.1 31.6,154.6 27.7,152Z" style="fill:rgb(61,51,93);fill-rule:nonzero;"/>
        <g>
            <path d="M20.4,151.7C19.6,152.3 18.9,153.1 18.6,154.1C18.3,155.1 18.3,156.1 18.6,157.1C19.4,156.5 20.1,155.7 20.4,154.7C20.8,153.7 20.7,152.6 20.4,151.7Z" style="fill:rgb(38,147,108);fill-rule:nonzero;"/>
            <path d="M25.8,151C24.9,150.5 23.9,150.3 22.9,150.5C21.8,150.7 20.9,151.2 20.2,151.9C21.1,152.4 22.1,152.6 23.1,152.4C24.2,152.2 25.1,151.7 25.8,151Z" style="fill:rgb(38,147,108);fill-rule:nonzero;"/>
            <path d="M23,154.9C22.9,154.2 22.7,153.5 22.2,153C21.7,152.4 21,152.1 20.4,152C20.5,152.7 20.7,153.4 21.2,153.9C21.7,154.4 22.4,154.8 23,154.9Z" style="fill:rgb(38,147,108);fill-rule:nonzero;"/>
            <path d="M20.6,151.9L20.4,152.1L18.7,150.5L19.2,150L20.6,151.9Z" style="fill:rgb(38,147,108);fill-rule:nonzero;"/>
        </g>
    </g>
    <g>
        <path d="M21.8,59.1C18.7,62.1 19.6,65 21.6,66.6C23.4,68.1 24.7,68.1 27.7,66.4C34.8,62.7 42.7,64.1 42.7,64.1C46,64.5 50,63.7 52.2,60.9C55.6,56.6 54.6,51.5 50.4,48.1C47.2,45.5 43.4,45.3 39.4,47.2C35.4,49.1 24.6,56.3 21.8,59.1Z" style="fill:rgb(61,51,93);fill-rule:nonzero;"/>
        <g>
            <path d="M20.2,65.2C20.5,66 21.1,66.7 21.9,67.1C22.7,67.6 23.6,67.7 24.4,67.6C24.1,66.8 23.5,66.1 22.7,65.7C21.9,65.3 21,65.1 20.2,65.2Z" style="fill:rgb(38,147,108);fill-rule:nonzero;"/>
            <path d="M20.6,60.6C20,61.2 19.7,62.1 19.6,63C19.5,63.9 19.8,64.8 20.3,65.5C20.9,64.9 21.2,64 21.3,63.1C21.3,62.1 21,61.3 20.6,60.6Z" style="fill:rgb(38,147,108);fill-rule:nonzero;"/>
            <path d="M23.3,63.6C22.7,63.5 22.1,63.6 21.5,64C20.9,64.3 20.5,64.8 20.3,65.4C20.9,65.5 21.5,65.4 22.1,65C22.7,64.6 23.1,64.1 23.3,63.6Z" style="fill:rgb(38,147,108);fill-rule:nonzero;"/>
            <path d="M20.3,65.1L20.5,65.3L18.8,66.5L18.5,65.9L20.3,65.1Z" style="fill:rgb(38,147,108);fill-rule:nonzero;"/>
        </g>
    </g>
    <g>
        <path d="M101.4,130.1C106.3,130.8 108.2,128 108.3,125C108.3,122.3 107.5,121.1 103.8,119.6C95.4,115.8 91.1,107.7 91.1,107.7C89.1,104.4 85.6,101.5 81.5,101.4C75.2,101.3 71.3,105.8 71.3,112.1C71.3,116.8 73.8,120.4 78.2,122.7C82.6,125 96.9,129.5 101.4,130.1Z" style="fill:rgb(95,86,121);fill-rule:nonzero;"/>
        <g>
            <path d="M108,127.2C108.5,126.4 108.7,125.3 108.6,124.3C108.5,123.3 108,122.4 107.3,121.7C106.8,122.5 106.6,123.6 106.7,124.6C106.8,125.6 107.3,126.6 108,127.2Z" style="fill:rgb(38,147,108);fill-rule:nonzero;"/>
            <path d="M103.6,130.2C104.6,130.2 105.6,130 106.4,129.4C107.3,128.8 107.9,128 108.2,127C107.2,127 106.2,127.2 105.4,127.8C104.5,128.4 103.9,129.2 103.6,130.2Z" style="fill:rgb(38,147,108);fill-rule:nonzero;"/>
            <path d="M104.3,125.5C104.7,126.1 105.2,126.6 105.9,126.9C106.6,127.2 107.3,127.2 108,127C107.6,126.4 107.1,125.9 106.4,125.6C105.7,125.4 105,125.4 104.3,125.5Z" style="fill:rgb(38,147,108);fill-rule:nonzero;"/>
            <path d="M107.8,127.2L107.9,126.9L110.1,127.5L109.8,128.2L107.8,127.2Z" style="fill:rgb(38,147,108);fill-rule:nonzero;"/>
        </g>
    </g>
    <g transform="matrix(1,0,0,1,18.4854,159.332)">
        <path d="M46.213,-25.325L60.364,-25.325L60.364,-22.292L46.213,-22.292L46.213,-3.032L55.366,-3.032L55.366,0L34.028,0L34.028,-3.032L43.181,-3.032L43.181,-22.292L3.538,-22.292L3.538,-23.977L42.563,-81.758L46.213,-81.758L46.213,-25.325ZM8.254,-25.325L43.181,-25.325L43.181,-77.49L42.844,-77.603L38.464,-70.359L8.254,-25.325Z" style="fill-rule:nonzero;"/>
        <path d="M122.3,-32.231C122.3,-21.563 120.138,-13.327 115.814,-7.524C111.49,-1.722 105.379,1.179 97.48,1.179C89.582,1.179 83.442,-1.731 79.063,-7.552C74.683,-13.374 72.493,-21.6 72.493,-32.231L72.493,-49.526C72.493,-60.158 74.664,-68.384 79.006,-74.205C83.349,-80.026 89.469,-82.937 97.368,-82.937C105.267,-82.937 111.397,-80.026 115.758,-74.205C120.119,-68.384 122.3,-60.158 122.3,-49.526L122.3,-32.231ZM119.268,-49.526C119.268,-59.035 117.396,-66.475 113.652,-71.847C109.909,-77.219 104.481,-79.905 97.368,-79.905C90.256,-79.905 84.837,-77.219 81.112,-71.847C77.387,-66.475 75.525,-59.035 75.525,-49.526L75.525,-32.344C75.525,-22.91 77.406,-15.47 81.168,-10.023C84.93,-4.576 90.368,-1.853 97.48,-1.853C104.556,-1.853 109.956,-4.567 113.68,-9.995C117.405,-15.423 119.268,-22.873 119.268,-32.344L119.268,-49.526Z" style="fill-rule:nonzero;"/>
    </g>
    <g>
        <path d="M27.6,84.2C23.7,82.5 20.9,84.4 20.2,87.1C19.5,89.5 20,90.8 22.9,93C29.4,98.5 31,107.5 31.1,107.5C32,110.9 34.7,113.8 38.3,114.8C43.9,116.4 49.7,113.2 51.4,107.6C52.6,103.4 51.2,99.6 47.8,96.4C44.3,93.3 31.5,85.9 27.6,84.2Z" style="fill:rgb(95,86,121);fill-rule:nonzero;"/>
        <path d="M20.9,85C20.3,85.6 19.8,86.5 19.6,87.4C19.5,88.4 19.6,89.3 20.1,90.1C20.7,89.5 21.2,88.6 21.4,87.7C21.5,86.7 21.3,85.8 20.9,85Z" style="fill:rgb(38,147,108);fill-rule:nonzero;"/>
        <path d="M25.7,83.6C24.8,83.3 23.9,83.3 23,83.6C22.1,83.9 21.3,84.5 20.8,85.2C21.7,85.5 22.6,85.5 23.5,85.2C24.4,84.9 25.2,84.3 25.7,83.6Z" style="fill:rgb(38,147,108);fill-rule:nonzero;"/>
        <path d="M21.1,85.1L20.9,85.3L19.2,84.2L19.6,83.6L21.1,85.1Z" style="fill:rgb(38,147,108);fill-rule:nonzero;"/>
    </g>
    <g>
        <path d="M124,143.8C119.2,142.6 117,145.2 116.6,148.1C116.3,150.8 117,152 120.5,153.9C128.4,158.6 131.7,167.2 131.8,167.1C133.4,170.6 136.6,173.9 140.6,174.4C146.8,175.2 151.2,171.1 152,164.9C152.6,160.2 150.5,156.4 146.3,153.6C142.1,150.8 128.4,145 124,143.8Z" style="fill:rgb(61,51,93);fill-rule:nonzero;"/>
        <g>
            <path d="M117.1,146C116.5,146.8 116.2,147.8 116.2,148.8C116.2,149.8 116.6,150.8 117.2,151.6C117.8,150.8 118.1,149.8 118.1,148.8C118.1,147.7 117.7,146.7 117.1,146Z" style="fill:rgb(38,147,108);fill-rule:nonzero;"/>
            <path d="M121.8,143.6C120.8,143.5 119.8,143.6 118.9,144.1C118,144.6 117.3,145.4 116.9,146.2C117.9,146.3 118.9,146.2 119.8,145.7C120.8,145.2 121.4,144.4 121.8,143.6Z" style="fill:rgb(38,147,108);fill-rule:nonzero;"/>
            <path d="M120.6,148.1C120.3,147.5 119.8,146.9 119.2,146.6C118.6,146.3 117.8,146.1 117.1,146.2C117.4,146.8 117.9,147.4 118.5,147.7C119.2,148.1 119.9,148.2 120.6,148.1Z" style="fill:rgb(38,147,108);fill-rule:nonzero;"/>
            <path d="M117.3,146.1L117.2,146.3L115.1,145.4L115.4,144.8L117.3,146.1Z" style="fill:rgb(38,147,108);fill-rule:nonzero;"/>
        </g>
    </g>
</svg>
