<?xml version="1.0" encoding="UTF-8" standalone="no"?>
<!DOCTYPE svg PUBLIC "-//W3C//DTD SVG 1.1//EN" "http://www.w3.org/Graphics/SVG/1.1/DTD/svg11.dtd">
<svg width="100%" height="100%" viewBox="0 0 168 250" version="1.1" xmlns="http://www.w3.org/2000/svg" xmlns:xlink="http://www.w3.org/1999/xlink" xml:space="preserve" xmlns:serif="http://www.serif.com/" style="fill-rule:evenodd;clip-rule:evenodd;stroke-linejoin:round;stroke-miterlimit:1.41421;">
    <rect x="-5.7" y="-5.7" width="178.6" height="260.8" style="fill:rgb(43,180,160);"/>
    <g>
        <path d="M88.4,134.5L55.2,115.1C42.7,111 29.2,117.8 25,130.2C20.9,142.7 27.7,156.2 40.1,160.4L78.3,164.7C90.9,168.9 100.9,138.7 88.4,134.5Z" style="fill:rgb(168,137,78);fill-rule:nonzero;"/>
        <clipPath id="_clip1">
            <path d="M88.4,134.5L55.2,115.1C42.7,111 29.2,117.8 25,130.2C20.9,142.7 27.7,156.2 40.1,160.4L78.3,164.7C90.9,168.9 100.9,138.7 88.4,134.5Z"/>
        </clipPath>
        <g clip-path="url(#_clip1)">
            <path d="M45.7,197.1L116.9,161.4L116.6,160.9L117.1,160.6L81.4,89.4L80.9,89.7L80.6,89.2L9.5,124.8L9.8,125.3L9.3,125.6L45,196.8L45.5,196.5L45.7,197.1ZM66.5,151L69.5,157L63.5,160L60.5,154L66.5,151ZM59.9,153L56.9,147L62.9,144L65.9,150L59.9,153ZM67.5,150.5L73.5,147.5L76.5,153.5L70.5,156.5L67.5,150.5ZM67,149.4L64,143.4L70,140.4L73,146.4L67,149.4ZM63.4,142.3L60.4,136.3L66.4,133.3L69.4,139.3L63.4,142.3ZM71.1,139.8L77.1,136.8L80.1,142.8L74.1,145.8L71.1,139.8ZM70.5,138.7L67.5,132.7L73.5,129.7L76.5,135.7L70.5,138.7ZM67,131.6L64,125.6L70,122.6L73,128.6L67,131.6ZM65.9,132.2L59.9,135.2L56.9,129.2L62.9,126.2L65.9,132.2ZM58.8,135.7L52.8,138.7L49.8,132.7L55.8,129.7L58.8,135.7ZM59.3,136.8L62.3,142.8L56.3,145.8L53.3,139.8L59.3,136.8ZM55.2,146.4L49.2,149.4L46.2,143.4L52.2,140.4L55.2,146.4ZM55.8,147.5L58.8,153.5L52.8,156.5L49.8,150.5L55.8,147.5ZM59.3,154.6L62.3,160.6L56.3,163.6L53.3,157.6L59.3,154.6ZM62.9,161.7L65.9,167.7L59.9,170.7L56.9,164.7L62.9,161.7ZM64,161.2L70,158.2L73,164.2L67,167.2L64,161.2ZM71.1,157.6L77.1,154.6L80.1,160.6L74.1,163.6L71.1,157.6ZM78.2,154L84.2,151L87.2,157L81.2,160L78.2,154ZM77.7,153L74.7,147L80.7,144L83.7,150L77.7,153ZM81.7,143.4L87.7,140.4L90.7,146.4L84.7,149.4L81.7,143.4ZM81.2,142.3L78.2,136.3L84.2,133.3L87.2,139.3L81.2,142.3ZM77.6,135.2L74.6,129.2L80.6,126.2L83.6,132.2L77.6,135.2ZM74.1,128.1L71.1,122.1L77.1,119.1L80.1,125.1L74.1,128.1ZM70.5,121L67.5,115L73.5,112L76.5,118L70.5,121ZM69.4,121.5L63.4,124.5L60.4,118.5L66.4,115.5L69.4,121.5ZM62.3,125.1L56.3,128.1L53.3,122.1L59.3,119.1L62.3,125.1ZM55.2,128.6L49.2,131.6L46.2,125.6L52.2,122.6L55.2,128.6ZM48.1,132.2L42.1,135.2L39.1,129.2L45.1,126.2L48.1,132.2ZM48.6,133.2L51.6,139.2L45.6,142.2L42.6,136.2L48.6,133.2ZM44.6,142.9L38.6,145.9L35.6,139.9L41.6,136.9L44.6,142.9ZM45.1,143.9L48.1,149.9L42.1,152.9L39.1,146.9L45.1,143.9ZM48.7,151L51.7,157L45.7,160L42.7,154L48.7,151ZM52.2,158.2L55.2,164.2L49.2,167.2L46.2,161.2L52.2,158.2ZM55.8,165.3L58.8,171.3L52.8,174.3L49.8,168.3L55.8,165.3ZM59.4,172.4L62.4,178.4L56.4,181.4L53.4,175.4L59.4,172.4ZM60.4,171.9L66.4,168.9L69.4,174.9L63.4,177.9L60.4,171.9ZM67.5,168.3L73.5,165.3L76.5,171.3L70.5,174.3L67.5,168.3ZM74.6,164.7L80.6,161.7L83.6,167.7L77.6,170.7L74.6,164.7ZM81.8,161.2L87.8,158.2L90.8,164.2L84.8,167.2L81.8,161.2ZM88.9,157.6L94.9,154.6L97.9,160.6L91.9,163.6L88.9,157.6ZM88.3,156.5L85.3,150.5L91.3,147.5L94.3,153.5L88.3,156.5ZM92.4,146.9L98.4,143.9L101.4,149.9L95.4,152.9L92.4,146.9ZM91.9,145.8L88.9,139.8L94.9,136.8L97.9,142.8L91.9,145.8ZM88.3,138.7L85.3,132.7L91.3,129.7L94.3,135.7L88.3,138.7ZM84.8,131.6L81.8,125.6L87.8,122.6L90.8,128.6L84.8,131.6ZM81.2,124.5L78.2,118.5L84.2,115.5L87.2,121.5L81.2,124.5ZM77.6,117.4L74.6,111.4L80.6,108.4L83.6,114.4L77.6,117.4ZM74.1,110.3L71.1,104.3L77.1,101.3L80.1,107.3L74.1,110.3ZM73,110.8L67,113.8L64,107.8L70,104.8L73,110.8ZM65.9,114.4L59.9,117.4L56.9,111.4L62.9,108.4L65.9,114.4ZM58.8,117.9L52.8,120.9L49.8,114.9L55.8,111.9L58.8,117.9ZM51.7,121.5L45.7,124.5L42.7,118.5L48.7,115.5L51.7,121.5ZM44.5,125.1L38.5,128.1L35.5,122.1L41.5,119.1L44.5,125.1ZM37.4,128.6L31.4,131.6L28.4,125.6L34.4,122.6L37.4,128.6ZM38,129.7L41,135.7L35,138.7L32,132.7L38,129.7ZM33.9,139.3L27.9,142.3L24.9,136.3L30.9,133.3L33.9,139.3ZM34.4,140.4L37.4,146.4L31.4,149.4L28.4,143.4L34.4,140.4ZM38,147.5L41,153.5L35,156.5L32,150.5L38,147.5ZM41.5,154.6L44.5,160.6L38.5,163.6L35.5,157.6L41.5,154.6ZM45.1,161.7L48.1,167.7L42.1,170.7L39.1,164.7L45.1,161.7ZM48.7,168.8L51.7,174.8L45.7,177.8L42.7,171.8L48.7,168.8ZM52.2,176L55.2,182L49.2,185L46.2,179L52.2,176ZM55.8,183.1L58.8,189.1L52.8,192.1L49.8,186.1L55.8,183.1ZM56.9,182.5L62.9,179.5L65.9,185.5L59.9,188.5L56.9,182.5ZM64,179L70,176L73,182L67,185L64,179ZM71.1,175.4L77.1,172.4L80.1,178.4L74.1,181.4L71.1,175.4ZM78.2,171.8L84.2,168.8L87.2,174.8L81.2,177.8L78.2,171.8ZM85.3,168.3L91.3,165.3L94.3,171.3L88.3,174.3L85.3,168.3ZM92.4,164.7L98.4,161.7L101.4,167.7L95.4,170.7L92.4,164.7ZM99.6,161.1L105.6,158.1L108.6,164.1L102.6,167.1L99.6,161.1ZM99,160.1L96,154.1L102,151.1L105,157.1L99,160.1ZM103.1,150.5L109.1,147.5L112.1,153.5L106.1,156.5L103.1,150.5ZM102.6,149.4L99.6,143.4L105.6,140.4L108.6,146.4L102.6,149.4ZM99,142.3L96,136.3L102,133.3L105,139.3L99,142.3ZM95.4,135.2L92.4,129.2L98.4,126.2L101.4,132.2L95.4,135.2ZM91.9,128L88.9,122L94.9,119L97.9,125L91.9,128ZM88.3,120.9L85.3,114.9L91.3,111.9L94.3,117.9L88.3,120.9ZM84.7,113.8L81.7,107.8L87.7,104.8L90.7,110.8L84.7,113.8ZM81.2,106.7L78.2,100.7L84.2,97.7L87.2,103.7L81.2,106.7ZM77.6,99.6L74.6,93.6L80.6,90.6L83.6,96.6L77.6,99.6ZM76.5,100.1L70.5,103.1L67.5,97.1L73.5,94.1L76.5,100.1ZM69.4,103.7L63.4,106.7L60.4,100.7L66.4,97.7L69.4,103.7ZM62.3,107.3L56.3,110.3L53.3,104.3L59.3,101.3L62.3,107.3ZM55.2,110.8L49.2,113.8L46.2,107.8L52.2,104.8L55.2,110.8ZM48.1,114.4L42.1,117.4L39.1,111.4L45.1,108.4L48.1,114.4ZM41,118L35,121L32,115L38,112L41,118ZM33.9,121.5L27.9,124.5L24.9,118.5L30.9,115.5L33.9,121.5ZM26.7,125.1L20.7,128.1L17.7,122.1L23.7,119.1L26.7,125.1ZM27.3,126.2L30.3,132.2L24.3,135.2L21.3,129.2L27.3,126.2ZM23.2,135.8L17.2,138.8L14.2,132.8L20.2,129.8L23.2,135.8ZM23.7,136.8L26.7,142.8L20.7,145.8L17.7,139.8L23.7,136.8ZM27.3,143.9L30.3,149.9L24.3,152.9L21.3,146.9L27.3,143.9ZM30.9,151.1L33.9,157.1L27.9,160.1L24.9,154.1L30.9,151.1ZM34.4,158.2L37.4,164.2L31.4,167.2L28.4,161.2L34.4,158.2ZM38,165.3L41,171.3L35,174.3L32,168.3L38,165.3ZM41.6,172.4L44.6,178.4L38.6,181.4L35.6,175.4L41.6,172.4ZM45.1,179.5L48.1,185.5L42.1,188.5L39.1,182.5L45.1,179.5ZM48.7,186.6L51.7,192.6L45.7,195.6L42.7,189.6L48.7,186.6ZM109.7,163.6L106.7,157.6L112.7,154.6L115.7,160.6L109.7,163.6ZM16.6,122.6L19.6,128.6L13.6,131.6L10.6,125.6L16.6,122.6Z" style="fill:rgb(154,113,67);fill-opacity:0.4;fill-rule:nonzero;"/>
        </g>
    </g>
    <g>
        <path d="M134.5,144.4C134.5,144.4 130.3,143.6 129.8,144.7C129.3,145.8 130.3,146.7 132.1,148.5L131.2,149.9C131.2,149.9 128.1,148.6 127.3,149.7C126.7,150.5 127.4,151.5 128.6,153.2L127.4,154.6C127.4,154.6 124.9,153.3 124.3,154.1C123.9,154.6 124,155.3 125.1,157L123.5,158.4C123.5,158.4 121.3,157.2 120.6,157.7C119.9,158.2 119.8,158.9 120.1,160.3L119.8,160.4L116.3,153.7L121,148L125.2,142.9L126.8,141.7L134.5,144.4Z" style="fill:rgb(69,64,75);fill-rule:nonzero;"/>
        <path d="M117.6,144.8L112.6,150.9L127.9,161.2L117.6,144.8Z" style="fill:rgb(84,90,99);fill-rule:nonzero;"/>
        <path d="M120.1,141.6L115.5,147.3L131.5,156.8L120.1,141.6Z" style="fill:rgb(84,90,99);fill-rule:nonzero;"/>
        <path d="M115.5,147.2L112.3,151.2L121,161.8L115.5,147.2Z" style="fill:rgb(84,90,99);fill-rule:nonzero;"/>
        <path d="M122.2,139.1L117.9,144.3L135.7,151.7L122.2,139.1Z" style="fill:rgb(84,90,99);fill-rule:nonzero;"/>
        <path d="M123.4,137.6L119.8,142L137.6,145L123.4,137.6Z" style="fill:rgb(84,90,99);fill-rule:nonzero;"/>
    </g>
    <g>
        <path d="M95.1,177.7C95.1,177.7 94.1,173.5 95.2,173C96.3,172.4 97.2,173.4 99.1,175.1L100.5,174.2C100.5,174.2 99.1,171.1 100.1,170.3C100.9,169.6 101.9,170.3 103.6,171.5L104.9,170.3C104.9,170.3 103.4,167.8 104.3,167.2C104.8,166.8 105.5,166.8 107.3,167.9L108.6,166.3C108.6,166.3 107.3,164.2 107.8,163.5C108.3,162.8 109,162.6 110.4,162.9L110.4,162.6L103.6,159.4L98.2,164.4L93.3,168.8L92.2,170.5L95.1,177.7Z" style="fill:rgb(69,64,75);fill-rule:nonzero;"/>
        <path d="M94.8,160.7L100.7,155.5L111.7,170.4L94.8,160.7Z" style="fill:rgb(84,90,99);fill-rule:nonzero;"/>
        <path d="M91.8,163.4L97.3,158.5L107.4,174.1L91.8,163.4Z" style="fill:rgb(84,90,99);fill-rule:nonzero;"/>
        <path d="M97.1,158.6L101,155.2L112,163.4L97.1,158.6Z" style="fill:rgb(84,90,99);fill-rule:nonzero;"/>
        <path d="M89.3,165.6L94.4,161.1L102.5,178.6L89.3,165.6Z" style="fill:rgb(84,90,99);fill-rule:nonzero;"/>
        <path d="M86.5,165L92.1,163.1L95.8,180.7L86.5,165Z" style="fill:rgb(84,90,99);fill-rule:nonzero;"/>
    </g>
    <path d="M43.2,49.9C24.6,60.1 31.7,78.3 42.6,102.3C49.1,116.6 35,123.9 44.6,141.3C56.7,163.4 83,171.8 105,159.7C129,146.6 134.7,119.6 122.4,97.6C114.5,83.8 73.6,33.2 43.2,49.9Z" style="fill:rgb(154,113,67);fill-rule:nonzero;"/>
    <g>
        <g>
            <circle cx="49.3" cy="76.8" r="4.4" style="fill:white;"/>
            <path d="M48.9,75.3C49.1,76 48.7,76.8 47.9,77C47.4,77.1 46.8,77 46.5,76.6C46.5,76.9 46.5,77.2 46.6,77.5C47,79 48.5,79.9 50,79.5C51.5,79.1 52.4,77.6 52,76.1C51.6,74.6 50.1,73.7 48.6,74.1C48.4,74.2 48.2,74.2 48,74.4C48.4,74.5 48.8,74.9 48.9,75.3Z" style="fill:rgb(1,1,1);fill-rule:nonzero;"/>
        </g>
        <g>
            <circle cx="68.2" cy="60.5" r="4.4" style="fill:white;"/>
            <path d="M67.8,59.1C68,59.8 67.6,60.6 66.8,60.8C66.3,60.9 65.7,60.8 65.4,60.4C65.4,60.7 65.4,61 65.5,61.3C65.9,62.8 67.4,63.7 68.9,63.3C70.4,62.9 71.3,61.4 70.9,59.9C70.5,58.4 69,57.5 67.5,57.9C67.3,58 67.1,58 66.9,58.2C67.3,58.2 67.7,58.6 67.8,59.1Z" style="fill:rgb(1,1,1);fill-rule:nonzero;"/>
        </g>
    </g>
    <circle cx="20.8" cy="39.2" r="2.6" style="fill:rgb(186,48,51);"/>
    <g transform="matrix(1,0,0,1,15.5643,29.7173)">
        <path d="M7.998,-11.406L7.813,-12.51L3.564,-12.51L3.105,-8.516C3.398,-8.737 3.729,-8.921 4.097,-9.067C4.465,-9.214 4.889,-9.294 5.371,-9.307C6.68,-9.32 7.71,-8.893 8.462,-8.027C9.214,-7.161 9.59,-5.996 9.59,-4.531C9.59,-3.105 9.207,-1.96 8.442,-1.094C7.677,-0.228 6.563,0.205 5.098,0.205C3.893,0.205 2.892,-0.124 2.095,-0.781C1.297,-1.439 0.915,-2.406 0.947,-3.682L0.967,-3.74L2.705,-3.74C2.705,-2.972 2.928,-2.373 3.374,-1.943C3.82,-1.514 4.395,-1.299 5.098,-1.299C5.911,-1.299 6.543,-1.585 6.992,-2.158C7.441,-2.731 7.666,-3.516 7.666,-4.512C7.666,-5.43 7.44,-6.18 6.987,-6.763C6.535,-7.345 5.908,-7.637 5.107,-7.637C4.352,-7.637 3.804,-7.523 3.462,-7.295C3.12,-7.067 2.871,-6.719 2.715,-6.25L1.113,-6.416L1.934,-14.219L9.443,-14.219L9.443,-11.406L7.998,-11.406Z" style="fill-rule:nonzero;"/>
    </g>
    <circle cx="146.4" cy="210.3" r="2.6" style="fill:rgb(186,48,51);"/>
    <g transform="matrix(-1,0,0,-1,151.673,219.744)">
        <path d="M7.998,-11.406L7.813,-12.51L3.564,-12.51L3.105,-8.516C3.398,-8.737 3.729,-8.921 4.097,-9.067C4.465,-9.214 4.889,-9.294 5.371,-9.307C6.68,-9.32 7.71,-8.893 8.462,-8.027C9.214,-7.161 9.59,-5.996 9.59,-4.531C9.59,-3.105 9.207,-1.96 8.442,-1.094C7.677,-0.228 6.563,0.205 5.098,0.205C3.893,0.205 2.892,-0.124 2.095,-0.781C1.297,-1.439 0.915,-2.406 0.947,-3.682L0.967,-3.74L2.705,-3.74C2.705,-2.972 2.928,-2.373 3.374,-1.943C3.82,-1.514 4.395,-1.299 5.098,-1.299C5.911,-1.299 6.543,-1.585 6.992,-2.158C7.441,-2.731 7.666,-3.516 7.666,-4.512C7.666,-5.43 7.44,-6.18 6.987,-6.763C6.535,-7.345 5.908,-7.637 5.107,-7.637C4.352,-7.637 3.804,-7.523 3.462,-7.295C3.12,-7.067 2.871,-6.719 2.715,-6.25L1.113,-6.416L1.934,-14.219L9.443,-14.219L9.443,-11.406L7.998,-11.406Z" style="fill-rule:nonzero;"/>
    </g>
    <g transform="matrix(1,0,0,1,48.3574,196.637)">
        <path d="M57.012,-86.475L57.012,-95.908L16.201,-95.908L12.031,-53.662C14.902,-56.533 18.035,-58.698 21.431,-60.156C24.826,-61.615 29.827,-62.435 36.436,-62.617C44.365,-62.845 50.905,-60.133 56.055,-54.482C61.204,-48.831 63.779,-41.243 63.779,-31.719C63.779,-21.556 61.387,-13.49 56.602,-7.52C51.816,-1.549 44.411,1.436 34.385,1.436C26.318,1.436 19.619,-0.854 14.287,-5.435C8.955,-10.015 6.403,-16.794 6.631,-25.771L6.768,-26.182L9.98,-26.182C9.98,-18.343 12.168,-12.396 16.543,-8.34C20.918,-4.284 26.865,-2.256 34.385,-2.256C43.226,-2.256 49.709,-4.694 53.833,-9.57C57.957,-14.447 60.02,-21.784 60.02,-31.582C60.02,-39.967 57.957,-46.576 53.833,-51.406C49.709,-56.237 43.932,-58.652 36.504,-58.652C29.212,-58.652 23.481,-57.433 19.312,-54.995C15.142,-52.557 12.145,-48.945 10.322,-44.16L7.52,-45.254L12.852,-99.531L60.703,-99.531L60.703,-86.475L57.012,-86.475Z" style="fill-rule:nonzero;"/>
    </g>
    <circle cx="32.9" cy="193.2" r="6.8" style="fill:rgb(26,78,71);fill-opacity:0.2;"/>
    <circle cx="136.9" cy="24.2" r="4.2" style="fill:rgb(26,78,71);fill-opacity:0.2;"/>
    <circle cx="139.4" cy="51.7" r="5.2" style="fill:rgb(26,78,71);fill-opacity:0.2;"/>
    <circle cx="44.7" cy="211.4" r="8.5" style="fill:rgb(26,78,71);fill-opacity:0.2;"/>
    <circle cx="23.7" cy="221.4" r="3.5" style="fill:rgb(26,78,71);fill-opacity:0.2;"/>
    <circle cx="126.4" cy="37.2" r="4.6" style="fill:rgb(26,78,71);fill-opacity:0.2;"/>
    <g>
        <g>
            <path d="M62.7,143.7C62.7,143.7 59.7,140.7 60.3,139.7C60.9,138.6 62.2,138.9 64.7,139.5L65.4,138C65.4,138 62.6,136.1 63,134.9C63.3,133.9 64.5,134 66.6,134.1L67.1,132.3C67.1,132.3 64.6,131 64.9,130C65.1,129.4 65.7,129.1 67.8,129L68.1,126.9C68.1,126.9 65.9,125.8 65.9,124.9C65.9,124 66.5,123.5 67.8,123L67.7,122.7L60.2,123.6L58.2,130.7L56.3,137L56.2,139L62.7,143.7Z" style="fill:rgb(69,64,75);fill-rule:nonzero;"/>
            <path d="M53.5,129.5L55.8,121.9L73,128.8L53.5,129.5Z" style="fill:rgb(84,90,99);fill-rule:nonzero;"/>
            <path d="M52.4,133.3L54.5,126.3L71.3,134.2L52.4,133.3Z" style="fill:rgb(84,90,99);fill-rule:nonzero;"/>
            <path d="M54.4,126.4L55.9,121.5L69.6,122.7L54.4,126.4Z" style="fill:rgb(84,90,99);fill-rule:nonzero;"/>
            <path d="M51.4,136.5L53.4,130L69.4,140.6L51.4,136.5Z" style="fill:rgb(84,90,99);fill-rule:nonzero;"/>
            <path d="M50.9,138.3L52.5,132.9L65,145.9L50.9,138.3Z" style="fill:rgb(84,90,99);fill-rule:nonzero;"/>
        </g>
        <g transform="matrix(-0.3352,0.9422,-0.9422,-0.3352,188.752,124.138)">
            <ellipse cx="50.6" cy="128.7" rx="13.4" ry="5.9" style="fill:rgb(154,113,67);"/>
        </g>
    </g>
    <g>
        <g>
            <path d="M109.1,126.5C109.1,126.5 110.5,122.5 109.6,121.8C108.6,121.1 107.5,121.9 105.5,123.5L104.3,122.4C104.3,122.4 106,119.5 105.1,118.5C104.4,117.7 103.3,118.3 101.5,119.3L100.3,117.9C100.3,117.9 102,115.6 101.3,114.9C100.8,114.4 100.1,114.4 98.3,115.3L97.2,113.5C97.2,113.5 98.7,111.5 98.3,110.8C97.9,110 97.2,109.8 95.8,109.9L95.8,109.6L102.9,107.2L107.8,112.7L112.2,117.6L113.1,119.4L109.1,126.5Z" style="fill:rgb(69,64,75);fill-rule:nonzero;"/>
            <path d="M111.3,109.7L106,103.9L93.4,117.5L111.3,109.7Z" style="fill:rgb(84,90,99);fill-rule:nonzero;"/>
            <path d="M114,112.7L109.1,107.3L97.3,121.7L114,112.7Z" style="fill:rgb(84,90,99);fill-rule:nonzero;"/>
            <path d="M109.2,107.4L105.7,103.6L93.9,110.5L109.2,107.4Z" style="fill:rgb(84,90,99);fill-rule:nonzero;"/>
            <path d="M116.2,115.2L111.7,110.2L101.7,126.6L116.2,115.2Z" style="fill:rgb(84,90,99);fill-rule:nonzero;"/>
            <path d="M117.5,116.6L113.7,112.4L108.1,129.5L117.5,116.6Z" style="fill:rgb(84,90,99);fill-rule:nonzero;"/>
        </g>
        <path d="M124.7,115.6C121.5,118.8 114.7,117.1 109.5,111.9C104.3,106.7 102.6,99.9 105.8,96.7C109,93.5 110.2,97.4 115.4,102.6C120.6,107.9 127.8,112.5 124.7,115.6Z" style="fill:rgb(154,113,67);fill-rule:nonzero;"/>
    </g>
    <g>
        <path d="M83.1,76.9C84.7,75.1 84,73.4 82.5,71.4C80.6,69.1 77.5,69.6 74.6,70.2C73.4,70.4 66.1,70.1 62.7,72.7C59.5,75.4 58.3,82.6 57.8,83.8C56.7,86.5 55.5,89.5 57.4,91.8C59,93.8 60.5,94.7 62.6,93.6C63.9,93 64.3,93.6 64.8,94.3C65.3,94.9 72.6,101.3 73.5,103.1C73.8,104.4 73.7,106.5 74.7,107.7C76.2,109.5 78.3,109.4 80.1,107.9C80.9,107.3 83.4,104.5 86.3,102.2C89.2,99.9 92.4,98 93.2,97.3C95,95.8 95.6,93.8 94.1,92C93.1,90.8 91,90.4 89.8,89.8C88.2,88.6 83.6,80.1 83,79.5C82.4,78.9 82.3,78 83.1,76.9Z" style="fill:rgb(91,85,87);fill-rule:nonzero;"/>
        <g>
            <circle cx="80.6" cy="101.4" r="1.2" style="fill:rgb(45,49,48);"/>
            <circle cx="87.1" cy="96.1" r="1.2" style="fill:rgb(45,49,48);"/>
        </g>
    </g>
</svg>
