<?xml version="1.0" encoding="UTF-8" standalone="no"?>
<!DOCTYPE svg PUBLIC "-//W3C//DTD SVG 1.1//EN" "http://www.w3.org/Graphics/SVG/1.1/DTD/svg11.dtd">
<svg width="100%" height="100%" viewBox="0 0 168 250" version="1.1" xmlns="http://www.w3.org/2000/svg" xmlns:xlink="http://www.w3.org/1999/xlink" xml:space="preserve" xmlns:serif="http://www.serif.com/" style="fill-rule:evenodd;clip-rule:evenodd;stroke-miterlimit:10;">
    <rect x="-5.7" y="-5.7" width="178.6" height="260.8" style="fill:rgb(175,195,207);"/>
    <circle cx="125.9" cy="245.1" r="6.1" style="fill:white;"/>
    <circle cx="134.7" cy="236.6" r="7.9" style="fill:white;"/>
    <circle cx="140.1" cy="229.8" r="3.2" style="fill:white;"/>
    <circle cx="146.6" cy="224" r="6.5" style="fill:white;"/>
    <circle cx="160.5" cy="209.4" r="7.9" style="fill:white;"/>
    <circle cx="160" cy="218.5" r="9.6" style="fill:white;"/>
    <circle cx="20.8" cy="39.2" r="2.6" style="fill:rgb(186,48,51);"/>
    <g transform="matrix(1,0,0,1,15.4419,29.7174)">
        <path d="M3.545,-7.998L5.225,-7.998C6.077,-7.998 6.681,-8.211 7.036,-8.638C7.391,-9.064 7.568,-9.658 7.568,-10.42C7.568,-11.234 7.367,-11.852 6.963,-12.275C6.559,-12.699 5.964,-12.91 5.176,-12.91C4.427,-12.91 3.826,-12.69 3.374,-12.251C2.922,-11.812 2.695,-11.227 2.695,-10.498L0.85,-10.498L0.83,-10.557C0.798,-11.631 1.187,-12.544 1.997,-13.296C2.808,-14.048 3.867,-14.424 5.176,-14.424C6.491,-14.424 7.539,-14.074 8.32,-13.374C9.102,-12.674 9.492,-11.676 9.492,-10.381C9.492,-9.795 9.315,-9.211 8.96,-8.628C8.605,-8.045 8.073,-7.601 7.363,-7.295C8.216,-7.015 8.82,-6.576 9.175,-5.977C9.53,-5.378 9.707,-4.707 9.707,-3.965C9.707,-2.669 9.282,-1.65 8.433,-0.908C7.583,-0.166 6.497,0.205 5.176,0.205C3.874,0.205 2.799,-0.145 1.953,-0.845C1.107,-1.545 0.7,-2.493 0.732,-3.691L0.762,-3.75L2.598,-3.75C2.598,-3.001 2.827,-2.406 3.286,-1.963C3.745,-1.52 4.375,-1.299 5.176,-1.299C5.99,-1.299 6.628,-1.52 7.09,-1.963C7.552,-2.406 7.783,-3.06 7.783,-3.926C7.783,-4.805 7.578,-5.452 7.168,-5.869C6.758,-6.286 6.11,-6.494 5.225,-6.494L3.545,-6.494L3.545,-7.998Z" style="fill-rule:nonzero;"/>
    </g>
    <circle cx="146.4" cy="210.3" r="2.6" style="fill:rgb(186,48,51);"/>
    <circle cx="115.1" cy="64.8" r="90" style="fill:none;stroke:rgb(72,76,87);stroke-width:1px;stroke-dasharray:6.02,6.02;"/>
    <path d="M-2.3,166.9L191,-23.6" style="fill:none;stroke:rgb(190,83,56);stroke-width:1px;"/>
    <g transform="matrix(1,0,0,1,47.0925,176.637)">
        <path d="M26.182,-52.705L33.77,-52.705C42.109,-52.705 48.672,-54.779 53.457,-58.926C58.242,-63.073 60.635,-68.177 60.635,-74.238C60.635,-80.938 58.573,-86.452 54.448,-90.781C50.324,-95.111 44.251,-97.275 36.23,-97.275C28.848,-97.275 22.718,-95.111 17.842,-90.781C12.965,-86.452 10.527,-80.687 10.527,-73.486L7.383,-73.486L7.246,-73.896C7.018,-81.963 9.718,-88.491 15.347,-93.481C20.975,-98.472 27.936,-100.967 36.23,-100.967C44.798,-100.967 51.623,-98.54 56.704,-93.687C61.785,-88.833 64.326,-82.259 64.326,-73.965C64.326,-68.724 62.674,-64.03 59.37,-59.883C56.066,-55.736 51.611,-52.751 46.006,-50.928C52.477,-49.333 57.513,-46.439 61.113,-42.246C64.714,-38.053 66.514,-32.767 66.514,-26.387C66.514,-17.728 63.757,-10.926 58.242,-5.981C52.728,-1.037 45.596,1.436 36.846,1.436C28.415,1.436 20.964,-1.06 14.492,-6.05C8.021,-11.04 4.899,-18.115 5.127,-27.275L5.264,-27.686L8.408,-27.686C8.408,-20.303 11.108,-14.219 16.509,-9.434C21.909,-4.648 28.688,-2.256 36.846,-2.256C45.049,-2.256 51.429,-4.364 55.986,-8.579C60.544,-12.795 62.822,-18.639 62.822,-26.113C62.822,-33.861 60.213,-39.591 54.995,-43.306C49.777,-47.02 42.702,-48.877 33.77,-48.877L26.182,-48.877L26.182,-52.705Z" style="fill-rule:nonzero;"/>
    </g>
    <g>
        <path d="M33.5,214.3L34.7,203.3L36,214.3L33.5,214.3Z" style="fill:rgb(92,127,142);fill-rule:nonzero;"/>
        <path d="M36,214.3L34.7,225.3L33.5,214.3L36,214.3Z" style="fill:rgb(92,127,142);fill-rule:nonzero;"/>
        <path d="M34.7,213.2L41.1,214.3L34.7,215.4L34.7,213.2Z" style="fill:rgb(92,127,142);fill-rule:nonzero;"/>
        <path d="M34.7,215.4L28.4,214.3L34.7,213.2L34.7,215.4Z" style="fill:rgb(92,127,142);fill-rule:nonzero;"/>
    </g>
    <g>
        <path d="M139,92.7L140,83.7L141,92.7L139,92.7Z" style="fill:rgb(92,127,142);fill-rule:nonzero;"/>
        <path d="M141,92.7L140,101.6L139,92.7L141,92.7Z" style="fill:rgb(92,127,142);fill-rule:nonzero;"/>
        <path d="M140,91.8L145.1,92.7L140,93.6L140,91.8Z" style="fill:rgb(92,127,142);fill-rule:nonzero;"/>
        <path d="M140,93.6L134.8,92.7L140,91.8L140,93.6Z" style="fill:rgb(92,127,142);fill-rule:nonzero;"/>
    </g>
    <g>
        <path d="M46.9,25.1L47.6,18.8L48.3,25.1L46.9,25.1Z" style="fill:rgb(92,127,142);fill-rule:nonzero;"/>
        <path d="M48.3,25.1L47.6,31.5L46.9,25.1L48.3,25.1Z" style="fill:rgb(92,127,142);fill-rule:nonzero;"/>
        <path d="M47.6,24.5L51.2,25.1L47.6,25.8L47.6,24.5Z" style="fill:rgb(92,127,142);fill-rule:nonzero;"/>
        <path d="M47.6,25.8L43.9,25.1L47.6,24.5L47.6,25.8Z" style="fill:rgb(92,127,142);fill-rule:nonzero;"/>
    </g>
    <g>
        <circle cx="0.2" cy="154.8" r="18.7" style="fill:rgb(92,127,142);"/>
        <circle cx="5.9" cy="147.8" r="4.7" style="fill:rgb(78,84,89);fill-opacity:0.3;"/>
        <circle cx="11.6" cy="159.2" r="1.7" style="fill:rgb(78,84,89);fill-opacity:0.3;"/>
        <circle cx="3.7" cy="166" r="2.2" style="fill:rgb(78,84,89);fill-opacity:0.3;"/>
    </g>
    <g>
        <path d="M135.4,215.4L128.8,208.8" style="fill:white;fill-rule:nonzero;stroke:white;stroke-width:1px;stroke-linecap:round;"/>
        <path d="M135.7,220.4L127.6,212.3" style="fill:white;fill-rule:nonzero;stroke:white;stroke-width:1px;stroke-linecap:round;"/>
        <path d="M132.3,221.6L123.8,213.1" style="fill:white;fill-rule:nonzero;stroke:white;stroke-width:1px;stroke-linecap:round;"/>
    </g>
    <g>
        <path d="M110.1,201.2L114.1,216.8L103.2,205.9C103.2,205.9 102.2,204.8 102.3,203.3C102.3,202 104.5,195.5 104.5,195.5L110.1,201.2Z" style="fill:rgb(160,29,32);fill-rule:nonzero;"/>
        <path d="M116.3,195L131.9,199L121,188C121,188 119.9,187 118.4,187.1C117.1,187.1 110.6,189.3 110.6,189.3L116.3,195Z" style="fill:rgb(160,29,32);fill-rule:nonzero;"/>
        <path d="M82,166.6C82,166.6 78,182.8 88.5,193.4C97.2,202.1 123.1,207.8 123.1,207.8C123.1,207.8 117.4,181.9 108.7,173.2C98.3,162.6 82,166.6 82,166.6Z" style="fill:rgb(186,48,51);fill-rule:nonzero;"/>
        <path d="M123.1,207.7C123.1,207.7 122.3,204.1 120.9,199.1L114.6,205.4C119.6,206.9 123.1,207.7 123.1,207.7Z" style="fill:rgb(160,29,32);fill-rule:nonzero;"/>
        <circle cx="95.3" cy="179.7" r="6.6" style="fill:rgb(160,29,32);"/>
    </g>
    <path d="M86.8,33.2C90,30.8 95.6,31.2 98.2,28.3C100.9,25.4 100,19.8 102,16.5C104,13.1 109.3,11.3 110.7,7.6C112,3.9 109.1,-0.9 109.7,-4.8C110.3,-8.7 114.5,-12.4 114.3,-16.3C114.1,-20.2 109.6,-23.5 108.6,-27.4C107.7,-31.2 110.1,-36.2 108.4,-39.8C106.8,-43.3 101.3,-44.6 98.9,-47.9" style="fill:none;stroke:rgb(228,227,231);stroke-width:1px;"/>
    <path d="M100,34.4C98.4,35.5 96.3,35 95.2,33.5L91.8,28.4C90.7,26.8 91.2,24.7 92.7,23.6C94.3,22.5 96.4,23 97.5,24.5L100.9,29.6C102,31.2 101.6,33.4 100,34.4Z" style="fill:rgb(229,227,232);fill-rule:nonzero;"/>
    <path d="M98.7,32.6L88.7,39.3L95.3,49.1L98.6,46.9L94.8,41.2C94.2,40.2 94.4,38.9 95.4,38.3C96.4,37.7 97.7,37.9 98.3,38.9L102.1,44.6L105.4,42.4L98.7,32.6Z" style="fill:rgb(137,133,150);fill-rule:nonzero;"/>
    <g transform="matrix(0.83,-0.5577,0.5577,0.83,-2.3967,56.2146)">
        <rect x="85" y="27.3" width="12" height="9.5" style="fill:rgb(91,92,95);"/>
    </g>
    <path d="M90.9,21C89.1,18.3 85.3,17.5 82.6,19.4C79.9,21.2 79.1,25 81,27.7L83.5,31.4L93.5,24.7L90.9,21Z" style="fill:rgb(137,133,150);fill-rule:nonzero;"/>
    <circle cx="85.8" cy="24.4" r="3.6" style="fill:rgb(200,199,208);"/>
    <path d="M84,23.2C83.5,23.8 83.3,24.6 83.6,25.3" style="fill:none;stroke:white;stroke-width:1px;stroke-linecap:round;"/>
    <path d="M99.3,48.1L94.9,51C94.9,51 92.8,48.6 94.5,47.4C95.4,46.8 97.5,45.4 97.5,45.4L99.3,48.1Z" style="fill:rgb(137,133,150);fill-rule:nonzero;"/>
    <path d="M106,43.6L101.6,46.5C101.6,46.5 99.5,44.1 101.2,42.9C102.1,42.3 104.2,40.9 104.2,40.9L106,43.6Z" style="fill:rgb(137,133,150);fill-rule:nonzero;"/>
    <g>
        <path d="M75.9,31.9C76,31.7 76.7,30.8 77.6,31.2C83.2,33.8 85.8,32 86.7,29.5C86.8,29.3 87,29.2 87.1,29.3C87.3,29.4 89.8,30.8 90,30.9C90.2,31 90.3,31.2 90.2,31.3C88.5,35.6 83.6,37.5 76.6,34.4C75,33.6 75.8,32.1 75.9,31.9Z" style="fill:rgb(91,92,95);fill-rule:nonzero;"/>
        <path d="M78.6,33.3C78.3,33.3 78.1,33.1 78.2,32.8L78.3,31C78.3,30.7 78.5,30.5 78.8,30.6C79.1,30.6 79.3,30.8 79.2,31.1L79.1,32.9C79.1,33.1 78.9,33.3 78.6,33.3Z" style="fill:rgb(91,92,95);fill-rule:nonzero;"/>
    </g>
    <g>
        <path d="M96.9,18.3C96.7,18.3 95.6,18.5 95.6,19.6C95.6,25.8 93,27.4 90.3,27.2C90.1,27.2 90,27.3 90,27.5C90,27.7 90.3,30.6 90.3,30.8C90.3,31 90.4,31.1 90.6,31.1C95.2,31.3 98.9,27.6 99,20C98.9,18.2 97.1,18.3 96.9,18.3Z" style="fill:rgb(91,92,95);fill-rule:nonzero;"/>
        <path d="M97.1,21.3C97.2,21.1 97.1,20.8 96.8,20.7L95.1,20.1C94.9,20 94.6,20.1 94.5,20.4C94.4,20.6 94.5,20.9 94.8,21L96.5,21.6C96.7,21.7 97,21.6 97.1,21.3Z" style="fill:rgb(91,92,95);fill-rule:nonzero;"/>
    </g>
    <circle cx="87.1" cy="33.3" r="0.6" style="fill:rgb(67,66,73);"/>
    <circle cx="88.4" cy="32.4" r="0.6" style="fill:rgb(67,66,73);"/>
    <g transform="matrix(0.83,-0.5577,0.5577,0.83,-1.6746,56.9929)">
        <rect x="92.4" y="29.7" width="0.4" height="3" style="fill:rgb(67,66,73);"/>
    </g>
    <g transform="matrix(0.83,-0.5577,0.5577,0.83,-1.3313,57.2724)">
        <rect x="93.1" y="29.3" width="0.4" height="3" style="fill:rgb(67,66,73);"/>
    </g>
    <g transform="matrix(0.83,-0.5577,0.5577,0.83,-0.988,57.5519)">
        <rect x="93.7" y="28.9" width="0.4" height="3" style="fill:rgb(67,66,73);"/>
    </g>
    <g transform="matrix(0.83,-0.5577,0.5577,0.83,-0.6448,57.8314)">
        <rect x="94.3" y="28.5" width="0.4" height="3" style="fill:rgb(67,66,73);"/>
    </g>
    <path d="M164.9,204.7L172.6,204.7L172.6,255.1L120.9,255.1L120.9,246.7L144.6,227L164.9,204.7Z" style="fill:white;fill-rule:nonzero;"/>
    <g transform="matrix(-1,0,0,-1,151.801,219.732)">
        <path d="M3.545,-7.998L5.225,-7.998C6.077,-7.998 6.681,-8.211 7.036,-8.638C7.391,-9.064 7.568,-9.658 7.568,-10.42C7.568,-11.234 7.367,-11.852 6.963,-12.275C6.559,-12.699 5.964,-12.91 5.176,-12.91C4.427,-12.91 3.826,-12.69 3.374,-12.251C2.922,-11.812 2.695,-11.227 2.695,-10.498L0.85,-10.498L0.83,-10.557C0.798,-11.631 1.187,-12.544 1.997,-13.296C2.808,-14.048 3.867,-14.424 5.176,-14.424C6.491,-14.424 7.539,-14.074 8.32,-13.374C9.102,-12.674 9.492,-11.676 9.492,-10.381C9.492,-9.795 9.315,-9.211 8.96,-8.628C8.605,-8.045 8.073,-7.601 7.363,-7.295C8.216,-7.015 8.82,-6.576 9.175,-5.977C9.53,-5.378 9.707,-4.707 9.707,-3.965C9.707,-2.669 9.282,-1.65 8.433,-0.908C7.583,-0.166 6.497,0.205 5.176,0.205C3.874,0.205 2.799,-0.145 1.953,-0.845C1.107,-1.545 0.7,-2.493 0.732,-3.691L0.762,-3.75L2.598,-3.75C2.598,-3.001 2.827,-2.406 3.286,-1.963C3.745,-1.52 4.375,-1.299 5.176,-1.299C5.99,-1.299 6.628,-1.52 7.09,-1.963C7.552,-2.406 7.783,-3.06 7.783,-3.926C7.783,-4.805 7.578,-5.452 7.168,-5.869C6.758,-6.286 6.11,-6.494 5.225,-6.494L3.545,-6.494L3.545,-7.998Z" style="fill-rule:nonzero;"/>
    </g>
</svg>
